M48
; DRILL file KiCad 10.0.3 date 2026-08-23T14:38:22
; FORMAT={-:-/ absolute / metric / decimal}
; #@! TF.CreationDate,2026-08-23T14:38:22+02:00
; #@! TF.GenerationSoftware,Kicad,Pcbnew,10.0.3
; #@! TF.FileFunction,Plated,1,4,PTH
FMAT,2
METRIC
; #@! TA.AperFunction,Plated,PTH,ViaDrill
T1C0.200
; #@! TA.AperFunction,Plated,PTH,ComponentDrill
T2C0.200
; #@! TA.AperFunction,Plated,PTH,ComponentDrill
T3C0.850
; #@! TA.AperFunction,Plated,PTH,ComponentDrill
T4C1.100
; #@! TA.AperFunction,Plated,PTH,ComponentDrill
T5C1.200
; #@! TA.AperFunction,Plated,PTH,ComponentDrill
T6C1.300
; #@! TA.AperFunction,Plated,PTH,ComponentDrill
T7C1.500
%
G90
G05
T1
X128.2Y-45.4
X128.5Y-53.8
X128.7Y-64.2
X130.5Y-24.8
X131.3Y-60.2
X131.6Y-78.6
X133.9Y-24.8
X134.2Y-32.4
X134.2Y-58.5
X134.5Y-46.0
X136.3Y-23.1
X136.6Y-40.4
X136.9Y-47.5
X137.0Y-36.8
X137.2Y-21.8
X138.8Y-32.4
X139.3Y-21.0
X139.7Y-65.05
X139.725Y-61.475
X140.3Y-32.4
X140.3Y-33.0
X140.3Y-33.7
X140.3Y-34.3
X140.7Y-71.1
X141.7Y-60.15
X142.573Y-58.125
X143.3Y-23.8
X143.6Y-58.76
X143.6Y-60.15
X143.6Y-61.45
X144.1Y-82.3
X144.2Y-32.8
X144.5Y-62.45
X145.3Y-37.6
X145.9Y-58.2
X146.97Y-58.2
X147.1Y-37.6
X147.9Y-65.15
X148.0Y-58.2
X148.4Y-41.0
X148.4Y-41.5
X148.4Y-42.0
X148.5Y-32.9
X148.5Y-33.7
X149.0Y-41.4
X149.0Y-42.0
X149.3Y-32.9
X149.3Y-33.7
X149.7Y-23.9
X150.5Y-58.25
X153.2Y-26.4
X153.5Y-67.85
X154.6Y-41.3
X154.85Y-58.3
X155.5Y-82.3
X155.8Y-20.7
X155.8Y-21.5
X156.6Y-41.3
X157.5Y-28.2
X158.4Y-28.2
X158.4Y-41.2
X159.7Y-66.4
X160.6Y-67.1
X160.6Y-73.3
X161.3Y-43.9
X161.3Y-44.7
X161.9Y-43.9
X161.9Y-44.7
X163.5Y-83.3
X164.3Y-60.5
X164.5Y-42.3
X165.5Y-64.9
X166.1Y-44.9
X166.8Y-60.7
X167.07Y-62.2
X167.7Y-37.4
X167.8Y-31.0
X168.5Y-63.4
X169.7Y-37.3
X170.2Y-43.9
X171.7Y-55.3
X172.9Y-43.9
X173.3Y-74.2
X173.4Y-35.3
X174.0Y-52.4
X175.3Y-44.1
X175.8Y-52.5
X175.9Y-59.6
X176.0Y-55.9
X177.6Y-36.2
X177.8Y-35.3
X178.3Y-42.3
X178.4Y-58.1
X178.4Y-59.6
X178.6Y-73.5
X178.7Y-36.2
X178.7Y-55.9
X178.8Y-54.2
X179.6Y-52.1
X180.2Y-57.6
X180.3Y-55.9
X181.2Y-52.1
X181.4Y-53.2
X181.475Y-56.0
X182.1Y-83.2
X182.5Y-25.7
X182.7Y-34.3
X182.7Y-37.3
X183.7Y-28.8
X183.75Y-58.25
X183.8Y-56.1
X183.9Y-54.4
X184.1Y-50.6
X184.6Y-64.1
X184.7Y-65.6
X185.5Y-63.3
X185.8Y-64.7
X185.9Y-56.1
X185.9Y-58.3
X186.0Y-54.399
X186.1Y-49.2
X186.1Y-50.7
X186.4Y-60.8
X187.3Y-60.8
X187.7Y-49.2
X187.7Y-50.7
X188.0Y-54.399
X188.0Y-56.1
X188.0Y-58.3
X188.5Y-61.3
X188.5Y-62.9
X188.6Y-46.7
X188.7Y-44.5
X189.9Y-42.6
X190.2Y-61.3
X190.3Y-62.9
X190.5Y-51.9
X190.7Y-56.4
X191.5Y-68.5
X191.5Y-74.1
X191.8Y-35.0
X192.1Y-51.9
X193.0Y-29.7
X193.2Y-59.8
X193.7Y-74.1
X194.6Y-44.7
X194.6Y-46.7
X194.6Y-48.7
X194.6Y-50.7
X194.6Y-52.7
X194.6Y-54.7
X194.6Y-58.7
X194.6Y-60.7
X194.6Y-62.7
X196.6Y-44.4
X196.9Y-62.7
X198.4Y-48.1
X198.6Y-44.4
X199.0Y-62.7
X200.6Y-44.4
X201.1Y-62.7
X201.1Y-64.5
X201.1Y-66.5
X201.1Y-68.5
X201.1Y-70.5
X201.1Y-72.5
X201.1Y-74.5
X201.1Y-76.5
X201.1Y-78.5
X201.1Y-80.5
X201.1Y-82.5
X201.1Y-84.5
X202.6Y-44.4
X202.9Y-56.6
X204.4Y-48.3
X204.5Y-25.9
X204.6Y-44.4
X205.7Y-30.5
X206.6Y-44.4
X208.6Y-44.4
X209.05Y-57.2
X209.8Y-48.3
X210.6Y-44.4
X210.9Y-56.1
X212.6Y-44.4
X213.7Y-62.3
X213.7Y-69.2
X214.6Y-44.4
X215.0Y-26.0
X216.6Y-44.4
X218.6Y-44.4
T2
X142.4Y-34.7
X142.4Y-35.65
X142.4Y-36.6
X159.35Y-38.65
X159.35Y-39.4
X159.35Y-40.15
X160.05Y-38.65
X160.05Y-39.4
X160.05Y-40.15
T4
X130.3Y-45.46
X130.3Y-48.0
X212.2Y-79.0
T5
X131.4Y-32.39
X131.4Y-36.2
T6
X163.54Y-80.9
X167.26Y-23.1
X168.62Y-80.9
X172.34Y-23.1
X173.7Y-80.9
X177.42Y-23.1
X182.125Y-80.828
X182.5Y-23.1
X187.205Y-80.828
X192.285Y-80.828
X194.34Y-23.1
X199.42Y-23.1
X204.5Y-23.1
T7
X207.175Y-73.975
X207.175Y-84.025
X217.225Y-73.975
X217.225Y-84.025
T3
G00X127.325Y-55.6
M15
G01X127.675Y-55.6
M16
G05
G00X127.325Y-62.2
M15
G01X127.675Y-62.2
M16
G05
M30
