%TF.GenerationSoftware,KiCad,Pcbnew,10.0.3*%
%TF.CreationDate,2026-08-23T14:38:44+02:00*%
%TF.ProjectId,demo LoRa_Node,64656d6f-204c-46f5-9261-5f4e6f64652e,B*%
%TF.SameCoordinates,Original*%
%TF.FileFunction,Copper,L2,Inr*%
%TF.FilePolarity,Positive*%
%FSLAX46Y46*%
G04 Gerber Fmt 4.6, Leading zero omitted, Abs format (unit mm)*
G04 Created by KiCad (PCBNEW 10.0.3) date 2026-08-23 14:38:44*
%MOMM*%
%LPD*%
G01*
G04 APERTURE LIST*
G04 Aperture macros list*
%AMRoundRect*
0 Rectangle with rounded corners*
0 $1 Rounding radius*
0 $2 $3 $4 $5 $6 $7 $8 $9 X,Y pos of 4 corners*
0 Add a 4 corners polygon primitive as box body*
4,1,4,$2,$3,$4,$5,$6,$7,$8,$9,$2,$3,0*
0 Add four circle primitives for the rounded corners*
1,1,$1+$1,$2,$3*
1,1,$1+$1,$4,$5*
1,1,$1+$1,$6,$7*
1,1,$1+$1,$8,$9*
0 Add four rect primitives between the rounded corners*
20,1,$1+$1,$2,$3,$4,$5,0*
20,1,$1+$1,$4,$5,$6,$7,0*
20,1,$1+$1,$6,$7,$8,$9,0*
20,1,$1+$1,$8,$9,$2,$3,0*%
G04 Aperture macros list end*
%TA.AperFunction,ComponentPad*%
%ADD10O,1.600000X1.400000*%
%TD*%
%TA.AperFunction,ComponentPad*%
%ADD11RoundRect,0.250000X-1.050000X-1.050000X1.050000X-1.050000X1.050000X1.050000X-1.050000X1.050000X0*%
%TD*%
%TA.AperFunction,ComponentPad*%
%ADD12C,2.600000*%
%TD*%
%TA.AperFunction,ComponentPad*%
%ADD13RoundRect,0.250000X1.050000X1.050000X-1.050000X1.050000X-1.050000X-1.050000X1.050000X-1.050000X0*%
%TD*%
%TA.AperFunction,ComponentPad*%
%ADD14RoundRect,0.250000X1.550000X-0.650000X1.550000X0.650000X-1.550000X0.650000X-1.550000X-0.650000X0*%
%TD*%
%TA.AperFunction,ComponentPad*%
%ADD15O,3.600000X1.800000*%
%TD*%
%TA.AperFunction,HeatsinkPad*%
%ADD16C,0.500000*%
%TD*%
%TA.AperFunction,ComponentPad*%
%ADD17RoundRect,0.250001X-0.799999X0.799999X-0.799999X-0.799999X0.799999X-0.799999X0.799999X0.799999X0*%
%TD*%
%TA.AperFunction,ComponentPad*%
%ADD18C,2.100000*%
%TD*%
%TA.AperFunction,ComponentPad*%
%ADD19R,3.500000X3.500000*%
%TD*%
%TA.AperFunction,ComponentPad*%
%ADD20C,4.000000*%
%TD*%
%TA.AperFunction,ViaPad*%
%ADD21C,0.500000*%
%TD*%
%TA.AperFunction,ViaPad*%
%ADD22C,0.600000*%
%TD*%
G04 APERTURE END LIST*
D10*
%TO.N,GND*%
%TO.C,J7*%
X127500000Y-55600000D03*
X127500000Y-62200000D03*
%TD*%
D11*
%TO.N,Net-(D1-A1)*%
%TO.C,J1*%
X167260000Y-23100000D03*
D12*
%TO.N,/analog/RS485+*%
X172340000Y-23100000D03*
%TO.N,/analog/RS485-*%
X177420000Y-23100000D03*
%TO.N,GND*%
X182500000Y-23100000D03*
%TD*%
D13*
%TO.N,Net-(D1-A1)*%
%TO.C,J3*%
X173700000Y-80900000D03*
D12*
%TO.N,Net-(D4-A2)*%
X168620000Y-80900000D03*
%TO.N,GND*%
X163540000Y-80900000D03*
%TD*%
D14*
%TO.N,Net-(BT1-+)*%
%TO.C,BT1*%
X131400000Y-36200000D03*
D15*
%TO.N,GND*%
X131400000Y-32390000D03*
%TD*%
D11*
%TO.N,Net-(D1-A1)*%
%TO.C,J2*%
X194340000Y-23100000D03*
D12*
%TO.N,Net-(D3-A2)*%
X199420000Y-23100000D03*
%TO.N,GND*%
X204500000Y-23100000D03*
%TD*%
D16*
%TO.N,GND*%
%TO.C,U8*%
X159350000Y-38650000D03*
X159350000Y-39400000D03*
X159350000Y-40150000D03*
X160050000Y-38650000D03*
X160050000Y-39400000D03*
X160050000Y-40150000D03*
%TD*%
D13*
%TO.N,Net-(D1-A1)*%
%TO.C,J4*%
X192285000Y-80827500D03*
D12*
%TO.N,Net-(D5-A2)*%
X187205000Y-80827500D03*
%TO.N,GND*%
X182125000Y-80827500D03*
%TD*%
D17*
%TO.N,GND*%
%TO.C,J8*%
X130300000Y-45460000D03*
D18*
%TO.N,+5V*%
X130300000Y-48000000D03*
%TD*%
D16*
%TO.N,GND*%
%TO.C,U7*%
X142400000Y-34700000D03*
X142400000Y-35650000D03*
X142400000Y-36600000D03*
%TD*%
D19*
%TO.N,Net-(J6-In)*%
%TO.C,J6*%
X212200000Y-79000000D03*
D20*
%TO.N,GND*%
X217225000Y-84025000D03*
X217225000Y-73975000D03*
X207175000Y-84025000D03*
X207175000Y-73975000D03*
%TD*%
D21*
%TO.N,+3V3*%
X189900000Y-42600000D03*
X181200000Y-52100000D03*
X190200000Y-61300000D03*
D22*
X161300000Y-44700000D03*
X177800000Y-35300000D03*
D21*
X188500000Y-61300000D03*
X180300000Y-55900000D03*
X187700000Y-50700000D03*
X175800000Y-52500000D03*
D22*
X164300000Y-60500000D03*
X153500000Y-67850000D03*
X141700000Y-60150000D03*
X161300000Y-43900000D03*
X147900000Y-65150000D03*
X193200000Y-59800000D03*
X161900000Y-44700000D03*
D21*
X190500000Y-51900000D03*
D22*
X143600000Y-60150000D03*
X161900000Y-43900000D03*
X177600000Y-36200000D03*
D21*
X178400000Y-58100000D03*
D22*
X169700000Y-37300000D03*
X178700000Y-36200000D03*
%TO.N,Net-(D1-A1)*%
X155800000Y-20700000D03*
X155800000Y-21500000D03*
%TO.N,/analog/RS485+*%
X182700000Y-37300000D03*
X182700000Y-34300000D03*
%TO.N,GND*%
X175900000Y-59600000D03*
X201100000Y-66500000D03*
X168500000Y-63400000D03*
X185900000Y-58300000D03*
D21*
X186100000Y-49200000D03*
X178800000Y-54200000D03*
D22*
X194600000Y-48700000D03*
X185900000Y-56100000D03*
X148000000Y-58200000D03*
D21*
X209050000Y-57200000D03*
D22*
X193700000Y-74100000D03*
X139700000Y-65050000D03*
X206600000Y-44400000D03*
X194600000Y-60700000D03*
X196900000Y-62700000D03*
X154600000Y-41300000D03*
X130500000Y-24800000D03*
X131300000Y-60200000D03*
X128200000Y-45400000D03*
X188600000Y-46700000D03*
X183800000Y-56100000D03*
X158400000Y-41200000D03*
X178600000Y-73500000D03*
X156600000Y-41300000D03*
D21*
X213700000Y-69200000D03*
D22*
X201100000Y-74500000D03*
X201100000Y-78500000D03*
X173400000Y-35300000D03*
X183750000Y-58250000D03*
X166800000Y-60700000D03*
X194600000Y-44700000D03*
X136600000Y-40400000D03*
X188000000Y-54399000D03*
X128700000Y-64200000D03*
X131600000Y-78600000D03*
X208600000Y-44400000D03*
X199000000Y-62700000D03*
X182500000Y-25700000D03*
X164500000Y-42300000D03*
X167800000Y-31000000D03*
X167700000Y-37400000D03*
X218600000Y-44400000D03*
X182100000Y-83200000D03*
D21*
X187700000Y-49200000D03*
D22*
X143600000Y-61450000D03*
D21*
X179600000Y-52100000D03*
D22*
X198600000Y-44400000D03*
X163500000Y-83300000D03*
X144500000Y-62450000D03*
X196600000Y-44400000D03*
X201100000Y-68500000D03*
X188000000Y-56100000D03*
X176000000Y-55900000D03*
D21*
X192100000Y-51900000D03*
D22*
X139725000Y-61475000D03*
X188000000Y-58300000D03*
D21*
X198400000Y-48100000D03*
D22*
X201100000Y-70500000D03*
X202600000Y-44400000D03*
X134200000Y-58500000D03*
X210600000Y-44400000D03*
D21*
X213700000Y-62300000D03*
D22*
X157500000Y-28200000D03*
X194600000Y-54700000D03*
X215000000Y-26000000D03*
X128500000Y-53800000D03*
X147100000Y-37600000D03*
X200600000Y-44400000D03*
X191500000Y-74100000D03*
X153200000Y-26400000D03*
X145300000Y-37600000D03*
X194600000Y-58700000D03*
X140700000Y-71100000D03*
X214600000Y-44400000D03*
X134200000Y-32400000D03*
X143300000Y-23800000D03*
D21*
X190300000Y-62900000D03*
D22*
X201100000Y-84500000D03*
X173300000Y-74200000D03*
D21*
X202900000Y-56600000D03*
D22*
X183900000Y-54400000D03*
X201100000Y-76500000D03*
X201100000Y-80500000D03*
D21*
X204400000Y-48300000D03*
X178700000Y-55900000D03*
D22*
X216600000Y-44400000D03*
X137000000Y-36800000D03*
X178300000Y-42300000D03*
X144200000Y-32800000D03*
X139300000Y-21000000D03*
X145900000Y-58200000D03*
X155500000Y-82300000D03*
X149700000Y-23900000D03*
X201100000Y-64500000D03*
X144100000Y-82300000D03*
D21*
X209800000Y-48300000D03*
X188500000Y-62900000D03*
D22*
X186000000Y-54399000D03*
X201100000Y-82500000D03*
X167070000Y-62200000D03*
X188700000Y-44500000D03*
X193000000Y-29700000D03*
X194600000Y-52700000D03*
X136300000Y-23100000D03*
X160600000Y-73300000D03*
X194600000Y-62700000D03*
X194600000Y-50700000D03*
X146970000Y-58200000D03*
X138800000Y-32400000D03*
X133900000Y-24800000D03*
X201100000Y-72500000D03*
X134500000Y-46000000D03*
X204500000Y-25900000D03*
X205700000Y-30500000D03*
X201100000Y-62700000D03*
X158400000Y-28200000D03*
X183700000Y-28800000D03*
D21*
X178400000Y-59600000D03*
D22*
X212600000Y-44400000D03*
X194600000Y-46700000D03*
D21*
X174000000Y-52400000D03*
D22*
X204600000Y-44400000D03*
%TO.N,+5V*%
X136900000Y-47500000D03*
X140300000Y-32400000D03*
X140300000Y-34300000D03*
X140300000Y-33000000D03*
X140300000Y-33700000D03*
%TO.N,/MCU/RS485-EN*%
X170200000Y-43900000D03*
X185800000Y-64700000D03*
%TO.N,/MCU/12V-EN*%
X166100000Y-44900000D03*
X137200000Y-21800000D03*
D21*
%TO.N,Net-(U3-VDDRF1V55)*%
X180200000Y-57600000D03*
X186100000Y-50700000D03*
D22*
%TO.N,Net-(BT1-+)*%
X148400000Y-42000000D03*
X148500000Y-33700000D03*
X148500000Y-32900000D03*
X149300000Y-33700000D03*
X149000000Y-42000000D03*
X149000000Y-41400000D03*
X148400000Y-41000000D03*
X149300000Y-32900000D03*
X148400000Y-41500000D03*
%TO.N,Net-(D7-K)*%
X150500000Y-58250000D03*
X154850000Y-58300000D03*
%TO.N,NRST*%
X165500000Y-64900000D03*
X184700000Y-65600000D03*
D21*
%TO.N,/LoRa RF/RF-Switch*%
X210900000Y-56100000D03*
X181400000Y-53200000D03*
%TO.N,/MCU/USB_MCU-*%
X142573386Y-58125000D03*
X143600000Y-58760000D03*
%TO.N,Net-(U2-RXD)*%
X186400000Y-60800000D03*
D22*
X159700000Y-66400000D03*
D21*
%TO.N,Net-(U2-TXD)*%
X187300000Y-60800000D03*
D22*
X160600000Y-67100000D03*
%TO.N,/MCU/ADC-CH2*%
X184100000Y-50600000D03*
X191800000Y-35000000D03*
%TO.N,SWCLK*%
X171700000Y-55300000D03*
D21*
X181475000Y-56000000D03*
D22*
%TO.N,Net-(U3-PH3)*%
X190700000Y-56400000D03*
X191500000Y-68500000D03*
%TO.N,/MCU/UART-TX*%
X184600000Y-64100000D03*
X172900000Y-43900000D03*
%TO.N,/MCU/UART-RX*%
X175300000Y-44100000D03*
X185500000Y-63300000D03*
%TD*%
%TA.AperFunction,Conductor*%
%TO.N,GND*%
G36*
X219942539Y-17920185D02*
G01*
X219988294Y-17972989D01*
X219999500Y-18024500D01*
X219999500Y-86076000D01*
X219979815Y-86143039D01*
X219927011Y-86188794D01*
X219875500Y-86200000D01*
X126924000Y-86200000D01*
X126856961Y-86180315D01*
X126811206Y-86127511D01*
X126800000Y-86076000D01*
X126800000Y-81588549D01*
X129999500Y-81588549D01*
X129999500Y-81811450D01*
X129999501Y-81811466D01*
X130028594Y-82032452D01*
X130028595Y-82032457D01*
X130028596Y-82032463D01*
X130086290Y-82247780D01*
X130086293Y-82247790D01*
X130171593Y-82453722D01*
X130171595Y-82453726D01*
X130283052Y-82646774D01*
X130283057Y-82646780D01*
X130283058Y-82646782D01*
X130418751Y-82823622D01*
X130418757Y-82823629D01*
X130576370Y-82981242D01*
X130576376Y-82981247D01*
X130753226Y-83116948D01*
X130946274Y-83228405D01*
X131152219Y-83313710D01*
X131367537Y-83371404D01*
X131588543Y-83400500D01*
X131588550Y-83400500D01*
X131811450Y-83400500D01*
X131811457Y-83400500D01*
X132032463Y-83371404D01*
X132247781Y-83313710D01*
X132453726Y-83228405D01*
X132646774Y-83116948D01*
X132823624Y-82981247D01*
X132981247Y-82823624D01*
X133116948Y-82646774D01*
X133228405Y-82453726D01*
X133313710Y-82247781D01*
X133371404Y-82032463D01*
X133400500Y-81811457D01*
X133400500Y-81588543D01*
X133371404Y-81367537D01*
X133313710Y-81152219D01*
X133228405Y-80946274D01*
X133133558Y-80781995D01*
X166819500Y-80781995D01*
X166819500Y-81018004D01*
X166819501Y-81018020D01*
X166850306Y-81252010D01*
X166911394Y-81479993D01*
X167001714Y-81698045D01*
X167001719Y-81698056D01*
X167067188Y-81811450D01*
X167119727Y-81902450D01*
X167119729Y-81902453D01*
X167119730Y-81902454D01*
X167263406Y-82089697D01*
X167263412Y-82089704D01*
X167430295Y-82256587D01*
X167430302Y-82256593D01*
X167446909Y-82269336D01*
X167617550Y-82400273D01*
X167738688Y-82470212D01*
X167821943Y-82518280D01*
X167821948Y-82518282D01*
X167821951Y-82518284D01*
X168040007Y-82608606D01*
X168267986Y-82669693D01*
X168501989Y-82700500D01*
X168501996Y-82700500D01*
X168738004Y-82700500D01*
X168738011Y-82700500D01*
X168972014Y-82669693D01*
X169199993Y-82608606D01*
X169418049Y-82518284D01*
X169622450Y-82400273D01*
X169809699Y-82256592D01*
X169976592Y-82089699D01*
X170120273Y-81902450D01*
X170238284Y-81698049D01*
X170328606Y-81479993D01*
X170389693Y-81252014D01*
X170420500Y-81018011D01*
X170420500Y-80781989D01*
X170389693Y-80547986D01*
X170328606Y-80320007D01*
X170238284Y-80101951D01*
X170238282Y-80101948D01*
X170238280Y-80101943D01*
X170179134Y-79999500D01*
X170120273Y-79897550D01*
X170045414Y-79799992D01*
X170045407Y-79799983D01*
X171899500Y-79799983D01*
X171899500Y-82000001D01*
X171899501Y-82000018D01*
X171910000Y-82102796D01*
X171910001Y-82102799D01*
X171936940Y-82184093D01*
X171965186Y-82269334D01*
X172057288Y-82418656D01*
X172181344Y-82542712D01*
X172330666Y-82634814D01*
X172497203Y-82689999D01*
X172599991Y-82700500D01*
X174800008Y-82700499D01*
X174902797Y-82689999D01*
X175069334Y-82634814D01*
X175218656Y-82542712D01*
X175342712Y-82418656D01*
X175434814Y-82269334D01*
X175489999Y-82102797D01*
X175500500Y-82000009D01*
X175500499Y-80709495D01*
X185404500Y-80709495D01*
X185404500Y-80945504D01*
X185404501Y-80945520D01*
X185435306Y-81179510D01*
X185496394Y-81407493D01*
X185586714Y-81625545D01*
X185586719Y-81625556D01*
X185628578Y-81698056D01*
X185704727Y-81829950D01*
X185704729Y-81829953D01*
X185704730Y-81829954D01*
X185848406Y-82017197D01*
X185848412Y-82017204D01*
X186015295Y-82184087D01*
X186015302Y-82184093D01*
X186031909Y-82196836D01*
X186202550Y-82327773D01*
X186328117Y-82400269D01*
X186406943Y-82445780D01*
X186406948Y-82445782D01*
X186406951Y-82445784D01*
X186625007Y-82536106D01*
X186852986Y-82597193D01*
X187086989Y-82628000D01*
X187086996Y-82628000D01*
X187323004Y-82628000D01*
X187323011Y-82628000D01*
X187557014Y-82597193D01*
X187784993Y-82536106D01*
X188003049Y-82445784D01*
X188207450Y-82327773D01*
X188394699Y-82184092D01*
X188561592Y-82017199D01*
X188705273Y-81829950D01*
X188823284Y-81625549D01*
X188913606Y-81407493D01*
X188974693Y-81179514D01*
X189005500Y-80945511D01*
X189005500Y-80709489D01*
X188974693Y-80475486D01*
X188913606Y-80247507D01*
X188823284Y-80029451D01*
X188823282Y-80029448D01*
X188823280Y-80029443D01*
X188747131Y-79897550D01*
X188705273Y-79825050D01*
X188686050Y-79799998D01*
X188685913Y-79799819D01*
X188685912Y-79799818D01*
X188630408Y-79727483D01*
X190484500Y-79727483D01*
X190484500Y-81927501D01*
X190484501Y-81927518D01*
X190495000Y-82030296D01*
X190495001Y-82030299D01*
X190545962Y-82184087D01*
X190550186Y-82196834D01*
X190642288Y-82346156D01*
X190766344Y-82470212D01*
X190915666Y-82562314D01*
X191082203Y-82617499D01*
X191184991Y-82628000D01*
X193385008Y-82627999D01*
X193487797Y-82617499D01*
X193654334Y-82562314D01*
X193803656Y-82470212D01*
X193927712Y-82346156D01*
X194019814Y-82196834D01*
X194074999Y-82030297D01*
X194085500Y-81927509D01*
X194085499Y-79727492D01*
X194074999Y-79624703D01*
X194019814Y-79458166D01*
X193927712Y-79308844D01*
X193803656Y-79184788D01*
X193665383Y-79099501D01*
X193654336Y-79092687D01*
X193654331Y-79092685D01*
X193652862Y-79092198D01*
X193487797Y-79037501D01*
X193487795Y-79037500D01*
X193385010Y-79027000D01*
X191184998Y-79027000D01*
X191184981Y-79027001D01*
X191082203Y-79037500D01*
X191082200Y-79037501D01*
X190915668Y-79092685D01*
X190915663Y-79092687D01*
X190766342Y-79184789D01*
X190642289Y-79308842D01*
X190550187Y-79458163D01*
X190550185Y-79458168D01*
X190545962Y-79470912D01*
X190495001Y-79624703D01*
X190495001Y-79624704D01*
X190495000Y-79624704D01*
X190484500Y-79727483D01*
X188630408Y-79727483D01*
X188561593Y-79637802D01*
X188561587Y-79637795D01*
X188394704Y-79470912D01*
X188394697Y-79470906D01*
X188207454Y-79327230D01*
X188207453Y-79327229D01*
X188207450Y-79327227D01*
X188086314Y-79257289D01*
X188003056Y-79209219D01*
X188003045Y-79209214D01*
X187784993Y-79118894D01*
X187557010Y-79057806D01*
X187323020Y-79027001D01*
X187323017Y-79027000D01*
X187323011Y-79027000D01*
X187086989Y-79027000D01*
X187086983Y-79027000D01*
X187086979Y-79027001D01*
X186852989Y-79057806D01*
X186625006Y-79118894D01*
X186406954Y-79209214D01*
X186406943Y-79209219D01*
X186202545Y-79327230D01*
X186015302Y-79470906D01*
X186015295Y-79470912D01*
X185848412Y-79637795D01*
X185848406Y-79637802D01*
X185704730Y-79825045D01*
X185586719Y-80029443D01*
X185586714Y-80029454D01*
X185496394Y-80247506D01*
X185435306Y-80475489D01*
X185404501Y-80709479D01*
X185404500Y-80709495D01*
X175500499Y-80709495D01*
X175500499Y-79799992D01*
X175489999Y-79697203D01*
X175434814Y-79530666D01*
X175342712Y-79381344D01*
X175218656Y-79257288D01*
X175069334Y-79165186D01*
X174902797Y-79110001D01*
X174902795Y-79110000D01*
X174800010Y-79099500D01*
X172599998Y-79099500D01*
X172599981Y-79099501D01*
X172497203Y-79110000D01*
X172497200Y-79110001D01*
X172330668Y-79165185D01*
X172330663Y-79165187D01*
X172181342Y-79257289D01*
X172057289Y-79381342D01*
X171965187Y-79530663D01*
X171965185Y-79530668D01*
X171960962Y-79543412D01*
X171910001Y-79697203D01*
X171910001Y-79697204D01*
X171910000Y-79697204D01*
X171899500Y-79799983D01*
X170045407Y-79799983D01*
X169976593Y-79710302D01*
X169976587Y-79710295D01*
X169809704Y-79543412D01*
X169809697Y-79543406D01*
X169622454Y-79399730D01*
X169622453Y-79399729D01*
X169622450Y-79399727D01*
X169496882Y-79327230D01*
X169418056Y-79281719D01*
X169418045Y-79281714D01*
X169199993Y-79191394D01*
X168972010Y-79130306D01*
X168738020Y-79099501D01*
X168738017Y-79099500D01*
X168738011Y-79099500D01*
X168501989Y-79099500D01*
X168501983Y-79099500D01*
X168501979Y-79099501D01*
X168267989Y-79130306D01*
X168040006Y-79191394D01*
X167821954Y-79281714D01*
X167821943Y-79281719D01*
X167617545Y-79399730D01*
X167430302Y-79543406D01*
X167430295Y-79543412D01*
X167263412Y-79710295D01*
X167263406Y-79710302D01*
X167119730Y-79897545D01*
X167001719Y-80101943D01*
X167001714Y-80101954D01*
X166911394Y-80320006D01*
X166850306Y-80547989D01*
X166819501Y-80781979D01*
X166819500Y-80781995D01*
X133133558Y-80781995D01*
X133116948Y-80753226D01*
X132981247Y-80576376D01*
X132981242Y-80576370D01*
X132823629Y-80418757D01*
X132823622Y-80418751D01*
X132646782Y-80283058D01*
X132646780Y-80283057D01*
X132646774Y-80283052D01*
X132453726Y-80171595D01*
X132453722Y-80171593D01*
X132247790Y-80086293D01*
X132247783Y-80086291D01*
X132247781Y-80086290D01*
X132032463Y-80028596D01*
X132032457Y-80028595D01*
X132032452Y-80028594D01*
X131811466Y-79999501D01*
X131811463Y-79999500D01*
X131811457Y-79999500D01*
X131588543Y-79999500D01*
X131588537Y-79999500D01*
X131588533Y-79999501D01*
X131367547Y-80028594D01*
X131367540Y-80028595D01*
X131367537Y-80028596D01*
X131152219Y-80086290D01*
X131152209Y-80086293D01*
X130946277Y-80171593D01*
X130946273Y-80171595D01*
X130753226Y-80283052D01*
X130753217Y-80283058D01*
X130576377Y-80418751D01*
X130576370Y-80418757D01*
X130418757Y-80576370D01*
X130418751Y-80576377D01*
X130283058Y-80753217D01*
X130283052Y-80753226D01*
X130171595Y-80946273D01*
X130171593Y-80946277D01*
X130086293Y-81152209D01*
X130086290Y-81152219D01*
X130028597Y-81367534D01*
X130028594Y-81367547D01*
X129999501Y-81588533D01*
X129999500Y-81588549D01*
X126800000Y-81588549D01*
X126800000Y-77202135D01*
X209949500Y-77202135D01*
X209949500Y-80797870D01*
X209949501Y-80797876D01*
X209955908Y-80857483D01*
X210006202Y-80992328D01*
X210006206Y-80992335D01*
X210092452Y-81107544D01*
X210092455Y-81107547D01*
X210207664Y-81193793D01*
X210207671Y-81193797D01*
X210342517Y-81244091D01*
X210342516Y-81244091D01*
X210349444Y-81244835D01*
X210402127Y-81250500D01*
X213997872Y-81250499D01*
X214057483Y-81244091D01*
X214192331Y-81193796D01*
X214307546Y-81107546D01*
X214393796Y-80992331D01*
X214444091Y-80857483D01*
X214450500Y-80797873D01*
X214450499Y-77202128D01*
X214444091Y-77142517D01*
X214393796Y-77007669D01*
X214393795Y-77007668D01*
X214393793Y-77007664D01*
X214307547Y-76892455D01*
X214307544Y-76892452D01*
X214192335Y-76806206D01*
X214192328Y-76806202D01*
X214057482Y-76755908D01*
X214057483Y-76755908D01*
X213997883Y-76749501D01*
X213997881Y-76749500D01*
X213997873Y-76749500D01*
X213997864Y-76749500D01*
X210402129Y-76749500D01*
X210402123Y-76749501D01*
X210342516Y-76755908D01*
X210207671Y-76806202D01*
X210207664Y-76806206D01*
X210092455Y-76892452D01*
X210092452Y-76892455D01*
X210006206Y-77007664D01*
X210006202Y-77007671D01*
X209955908Y-77142517D01*
X209949501Y-77202116D01*
X209949501Y-77202123D01*
X209949500Y-77202135D01*
X126800000Y-77202135D01*
X126800000Y-67771153D01*
X152699500Y-67771153D01*
X152699500Y-67928846D01*
X152730261Y-68083489D01*
X152730264Y-68083501D01*
X152790602Y-68229172D01*
X152790609Y-68229185D01*
X152878210Y-68360288D01*
X152878213Y-68360292D01*
X152989707Y-68471786D01*
X152989711Y-68471789D01*
X153120814Y-68559390D01*
X153120827Y-68559397D01*
X153266498Y-68619735D01*
X153266503Y-68619737D01*
X153421153Y-68650499D01*
X153421156Y-68650500D01*
X153421158Y-68650500D01*
X153578844Y-68650500D01*
X153578845Y-68650499D01*
X153733497Y-68619737D01*
X153879179Y-68559394D01*
X154010289Y-68471789D01*
X154060925Y-68421153D01*
X190699500Y-68421153D01*
X190699500Y-68578846D01*
X190730261Y-68733489D01*
X190730264Y-68733501D01*
X190790602Y-68879172D01*
X190790609Y-68879185D01*
X190878210Y-69010288D01*
X190878213Y-69010292D01*
X190989707Y-69121786D01*
X190989711Y-69121789D01*
X191120814Y-69209390D01*
X191120827Y-69209397D01*
X191266498Y-69269735D01*
X191266503Y-69269737D01*
X191421153Y-69300499D01*
X191421156Y-69300500D01*
X191421158Y-69300500D01*
X191578844Y-69300500D01*
X191578845Y-69300499D01*
X191733497Y-69269737D01*
X191879179Y-69209394D01*
X192010289Y-69121789D01*
X192121789Y-69010289D01*
X192209394Y-68879179D01*
X192212615Y-68871404D01*
X192236512Y-68813709D01*
X192269737Y-68733497D01*
X192300500Y-68578842D01*
X192300500Y-68421158D01*
X192300500Y-68421155D01*
X192300499Y-68421153D01*
X192269738Y-68266510D01*
X192269737Y-68266503D01*
X192269735Y-68266498D01*
X192209397Y-68120827D01*
X192209390Y-68120814D01*
X192121789Y-67989711D01*
X192121786Y-67989707D01*
X192010292Y-67878213D01*
X192010288Y-67878210D01*
X191879185Y-67790609D01*
X191879172Y-67790602D01*
X191733501Y-67730264D01*
X191733489Y-67730261D01*
X191578845Y-67699500D01*
X191578842Y-67699500D01*
X191421158Y-67699500D01*
X191421155Y-67699500D01*
X191266510Y-67730261D01*
X191266498Y-67730264D01*
X191120827Y-67790602D01*
X191120814Y-67790609D01*
X190989711Y-67878210D01*
X190989707Y-67878213D01*
X190878213Y-67989707D01*
X190878210Y-67989711D01*
X190790609Y-68120814D01*
X190790602Y-68120827D01*
X190730264Y-68266498D01*
X190730261Y-68266510D01*
X190699500Y-68421153D01*
X154060925Y-68421153D01*
X154121789Y-68360289D01*
X154146285Y-68323629D01*
X154209390Y-68229185D01*
X154209390Y-68229184D01*
X154209394Y-68229179D01*
X154269737Y-68083497D01*
X154300500Y-67928842D01*
X154300500Y-67771158D01*
X154300500Y-67771155D01*
X154300499Y-67771153D01*
X154269738Y-67616510D01*
X154269737Y-67616503D01*
X154234927Y-67532463D01*
X154209397Y-67470827D01*
X154209390Y-67470814D01*
X154121789Y-67339711D01*
X154121786Y-67339707D01*
X154010292Y-67228213D01*
X154010288Y-67228210D01*
X153879185Y-67140609D01*
X153879172Y-67140602D01*
X153733501Y-67080264D01*
X153733489Y-67080261D01*
X153578845Y-67049500D01*
X153578842Y-67049500D01*
X153421158Y-67049500D01*
X153421155Y-67049500D01*
X153266510Y-67080261D01*
X153266498Y-67080264D01*
X153120827Y-67140602D01*
X153120814Y-67140609D01*
X152989711Y-67228210D01*
X152989707Y-67228213D01*
X152878213Y-67339707D01*
X152878210Y-67339711D01*
X152790609Y-67470814D01*
X152790602Y-67470827D01*
X152730264Y-67616498D01*
X152730261Y-67616510D01*
X152699500Y-67771153D01*
X126800000Y-67771153D01*
X126800000Y-66321153D01*
X158899500Y-66321153D01*
X158899500Y-66478846D01*
X158930261Y-66633489D01*
X158930264Y-66633501D01*
X158990602Y-66779172D01*
X158990609Y-66779185D01*
X159078210Y-66910288D01*
X159078213Y-66910292D01*
X159189707Y-67021786D01*
X159189711Y-67021789D01*
X159320814Y-67109390D01*
X159320827Y-67109397D01*
X159396181Y-67140609D01*
X159466503Y-67169737D01*
X159597138Y-67195722D01*
X159621153Y-67200499D01*
X159621156Y-67200500D01*
X159702044Y-67200500D01*
X159769083Y-67220185D01*
X159814838Y-67272989D01*
X159823661Y-67300309D01*
X159830261Y-67333489D01*
X159830264Y-67333501D01*
X159890602Y-67479172D01*
X159890609Y-67479185D01*
X159978210Y-67610288D01*
X159978213Y-67610292D01*
X160089707Y-67721786D01*
X160089711Y-67721789D01*
X160220814Y-67809390D01*
X160220827Y-67809397D01*
X160366498Y-67869735D01*
X160366503Y-67869737D01*
X160521153Y-67900499D01*
X160521156Y-67900500D01*
X160521158Y-67900500D01*
X160678844Y-67900500D01*
X160678845Y-67900499D01*
X160833497Y-67869737D01*
X160979179Y-67809394D01*
X161110289Y-67721789D01*
X161221789Y-67610289D01*
X161309394Y-67479179D01*
X161312854Y-67470827D01*
X161367163Y-67339711D01*
X161369737Y-67333497D01*
X161400500Y-67178842D01*
X161400500Y-67088549D01*
X194999500Y-67088549D01*
X194999500Y-67311450D01*
X194999501Y-67311466D01*
X195028594Y-67532452D01*
X195028595Y-67532457D01*
X195028596Y-67532463D01*
X195086290Y-67747780D01*
X195086293Y-67747790D01*
X195161289Y-67928846D01*
X195171595Y-67953726D01*
X195283052Y-68146774D01*
X195283057Y-68146780D01*
X195283058Y-68146782D01*
X195418751Y-68323622D01*
X195418757Y-68323629D01*
X195576370Y-68481242D01*
X195576377Y-68481248D01*
X195678220Y-68559394D01*
X195753226Y-68616948D01*
X195946274Y-68728405D01*
X196152219Y-68813710D01*
X196367537Y-68871404D01*
X196588543Y-68900500D01*
X196588550Y-68900500D01*
X196811450Y-68900500D01*
X196811457Y-68900500D01*
X197032463Y-68871404D01*
X197247781Y-68813710D01*
X197453726Y-68728405D01*
X197646774Y-68616948D01*
X197823624Y-68481247D01*
X197981247Y-68323624D01*
X198116948Y-68146774D01*
X198228405Y-67953726D01*
X198313710Y-67747781D01*
X198371404Y-67532463D01*
X198400500Y-67311457D01*
X198400500Y-67088543D01*
X198371404Y-66867537D01*
X198313710Y-66652219D01*
X198228405Y-66446274D01*
X198116948Y-66253226D01*
X198050409Y-66166510D01*
X197981248Y-66076377D01*
X197981242Y-66076370D01*
X197823629Y-65918757D01*
X197823622Y-65918751D01*
X197646782Y-65783058D01*
X197646780Y-65783057D01*
X197646774Y-65783052D01*
X197453726Y-65671595D01*
X197453722Y-65671593D01*
X197247790Y-65586293D01*
X197247783Y-65586291D01*
X197247781Y-65586290D01*
X197032463Y-65528596D01*
X197032457Y-65528595D01*
X197032452Y-65528594D01*
X196811466Y-65499501D01*
X196811463Y-65499500D01*
X196811457Y-65499500D01*
X196588543Y-65499500D01*
X196588537Y-65499500D01*
X196588533Y-65499501D01*
X196367547Y-65528594D01*
X196367540Y-65528595D01*
X196367537Y-65528596D01*
X196152219Y-65586290D01*
X196152209Y-65586293D01*
X195946277Y-65671593D01*
X195946273Y-65671595D01*
X195753226Y-65783052D01*
X195753217Y-65783058D01*
X195576377Y-65918751D01*
X195576370Y-65918757D01*
X195418757Y-66076370D01*
X195418751Y-66076377D01*
X195283058Y-66253217D01*
X195283052Y-66253226D01*
X195171595Y-66446273D01*
X195171593Y-66446277D01*
X195086293Y-66652209D01*
X195086290Y-66652219D01*
X195028875Y-66866498D01*
X195028597Y-66867534D01*
X195028594Y-66867547D01*
X194999501Y-67088533D01*
X194999500Y-67088549D01*
X161400500Y-67088549D01*
X161400500Y-67021158D01*
X161400500Y-67021155D01*
X161400499Y-67021153D01*
X161378447Y-66910292D01*
X161369737Y-66866503D01*
X161333569Y-66779185D01*
X161309397Y-66720827D01*
X161309390Y-66720814D01*
X161221789Y-66589711D01*
X161221786Y-66589707D01*
X161110292Y-66478213D01*
X161110288Y-66478210D01*
X160979185Y-66390609D01*
X160979172Y-66390602D01*
X160833501Y-66330264D01*
X160833489Y-66330261D01*
X160678845Y-66299500D01*
X160678842Y-66299500D01*
X160597956Y-66299500D01*
X160530917Y-66279815D01*
X160485162Y-66227011D01*
X160476339Y-66199691D01*
X160469739Y-66166510D01*
X160469736Y-66166501D01*
X160409397Y-66020827D01*
X160409390Y-66020814D01*
X160321789Y-65889711D01*
X160321786Y-65889707D01*
X160210292Y-65778213D01*
X160210288Y-65778210D01*
X160079185Y-65690609D01*
X160079172Y-65690602D01*
X159933501Y-65630264D01*
X159933489Y-65630261D01*
X159778845Y-65599500D01*
X159778842Y-65599500D01*
X159621158Y-65599500D01*
X159621155Y-65599500D01*
X159466510Y-65630261D01*
X159466498Y-65630264D01*
X159320827Y-65690602D01*
X159320814Y-65690609D01*
X159189711Y-65778210D01*
X159189707Y-65778213D01*
X159078213Y-65889707D01*
X159078210Y-65889711D01*
X158990609Y-66020814D01*
X158990602Y-66020827D01*
X158930264Y-66166498D01*
X158930261Y-66166510D01*
X158899500Y-66321153D01*
X126800000Y-66321153D01*
X126800000Y-65071153D01*
X147099500Y-65071153D01*
X147099500Y-65228846D01*
X147130261Y-65383489D01*
X147130264Y-65383501D01*
X147190602Y-65529172D01*
X147190609Y-65529185D01*
X147278210Y-65660288D01*
X147278213Y-65660292D01*
X147389707Y-65771786D01*
X147389711Y-65771789D01*
X147520814Y-65859390D01*
X147520827Y-65859397D01*
X147664127Y-65918753D01*
X147666503Y-65919737D01*
X147821153Y-65950499D01*
X147821156Y-65950500D01*
X147821158Y-65950500D01*
X147978844Y-65950500D01*
X147978845Y-65950499D01*
X148133497Y-65919737D01*
X148279179Y-65859394D01*
X148410289Y-65771789D01*
X148521789Y-65660289D01*
X148609394Y-65529179D01*
X148609636Y-65528596D01*
X148669735Y-65383501D01*
X148669737Y-65383497D01*
X148700500Y-65228842D01*
X148700500Y-65071158D01*
X148700500Y-65071155D01*
X148700499Y-65071153D01*
X148682137Y-64978842D01*
X148669737Y-64916503D01*
X148630242Y-64821153D01*
X164699500Y-64821153D01*
X164699500Y-64978846D01*
X164730261Y-65133489D01*
X164730264Y-65133501D01*
X164790602Y-65279172D01*
X164790609Y-65279185D01*
X164878210Y-65410288D01*
X164878213Y-65410292D01*
X164989707Y-65521786D01*
X164989711Y-65521789D01*
X165120814Y-65609390D01*
X165120827Y-65609397D01*
X165266498Y-65669735D01*
X165266503Y-65669737D01*
X165421153Y-65700499D01*
X165421156Y-65700500D01*
X165421158Y-65700500D01*
X165578844Y-65700500D01*
X165578845Y-65700499D01*
X165733497Y-65669737D01*
X165879179Y-65609394D01*
X166010289Y-65521789D01*
X166121789Y-65410289D01*
X166209394Y-65279179D01*
X166269737Y-65133497D01*
X166300500Y-64978842D01*
X166300500Y-64821158D01*
X166300500Y-64821155D01*
X166300499Y-64821153D01*
X166292474Y-64780810D01*
X166269737Y-64666503D01*
X166269735Y-64666498D01*
X166209397Y-64520827D01*
X166209390Y-64520814D01*
X166121789Y-64389711D01*
X166121786Y-64389707D01*
X166010292Y-64278213D01*
X166010288Y-64278210D01*
X165879185Y-64190609D01*
X165879172Y-64190602D01*
X165733501Y-64130264D01*
X165733489Y-64130261D01*
X165578845Y-64099500D01*
X165578842Y-64099500D01*
X165421158Y-64099500D01*
X165421155Y-64099500D01*
X165266510Y-64130261D01*
X165266498Y-64130264D01*
X165120827Y-64190602D01*
X165120814Y-64190609D01*
X164989711Y-64278210D01*
X164989707Y-64278213D01*
X164878213Y-64389707D01*
X164878210Y-64389711D01*
X164790609Y-64520814D01*
X164790602Y-64520827D01*
X164730264Y-64666498D01*
X164730261Y-64666510D01*
X164699500Y-64821153D01*
X148630242Y-64821153D01*
X148612718Y-64778846D01*
X148609397Y-64770827D01*
X148609390Y-64770814D01*
X148521789Y-64639711D01*
X148521786Y-64639707D01*
X148410292Y-64528213D01*
X148410288Y-64528210D01*
X148279185Y-64440609D01*
X148279172Y-64440602D01*
X148133501Y-64380264D01*
X148133489Y-64380261D01*
X147978845Y-64349500D01*
X147978842Y-64349500D01*
X147821158Y-64349500D01*
X147821155Y-64349500D01*
X147666510Y-64380261D01*
X147666498Y-64380264D01*
X147520827Y-64440602D01*
X147520814Y-64440609D01*
X147389711Y-64528210D01*
X147389707Y-64528213D01*
X147278213Y-64639707D01*
X147278210Y-64639711D01*
X147190609Y-64770814D01*
X147190602Y-64770827D01*
X147130264Y-64916498D01*
X147130261Y-64916510D01*
X147099500Y-65071153D01*
X126800000Y-65071153D01*
X126800000Y-64021153D01*
X183799500Y-64021153D01*
X183799500Y-64178846D01*
X183830261Y-64333489D01*
X183830264Y-64333501D01*
X183890602Y-64479172D01*
X183890609Y-64479185D01*
X183978210Y-64610288D01*
X183978213Y-64610292D01*
X184089710Y-64721789D01*
X184178042Y-64780810D01*
X184222847Y-64834422D01*
X184231554Y-64903747D01*
X184201400Y-64966774D01*
X184193983Y-64973868D01*
X184194018Y-64973903D01*
X184078213Y-65089707D01*
X184078210Y-65089711D01*
X183990609Y-65220814D01*
X183990602Y-65220827D01*
X183930264Y-65366498D01*
X183930261Y-65366510D01*
X183899500Y-65521153D01*
X183899500Y-65678846D01*
X183930261Y-65833489D01*
X183930264Y-65833501D01*
X183990602Y-65979172D01*
X183990609Y-65979185D01*
X184078210Y-66110288D01*
X184078213Y-66110292D01*
X184189707Y-66221786D01*
X184189711Y-66221789D01*
X184320814Y-66309390D01*
X184320827Y-66309397D01*
X184466498Y-66369735D01*
X184466503Y-66369737D01*
X184621153Y-66400499D01*
X184621156Y-66400500D01*
X184621158Y-66400500D01*
X184778844Y-66400500D01*
X184778845Y-66400499D01*
X184933497Y-66369737D01*
X185079179Y-66309394D01*
X185210289Y-66221789D01*
X185321789Y-66110289D01*
X185409394Y-65979179D01*
X185469737Y-65833497D01*
X185500500Y-65678842D01*
X185500500Y-65607702D01*
X185520185Y-65540663D01*
X185572989Y-65494908D01*
X185642147Y-65484964D01*
X185648667Y-65486080D01*
X185705435Y-65497372D01*
X185721157Y-65500500D01*
X185721158Y-65500500D01*
X185878844Y-65500500D01*
X185878845Y-65500499D01*
X186033497Y-65469737D01*
X186179179Y-65409394D01*
X186310289Y-65321789D01*
X186421789Y-65210289D01*
X186509394Y-65079179D01*
X186512719Y-65071153D01*
X186550954Y-64978844D01*
X186569737Y-64933497D01*
X186600500Y-64778842D01*
X186600500Y-64621158D01*
X186600500Y-64621155D01*
X186600499Y-64621153D01*
X186582012Y-64528213D01*
X186569737Y-64466503D01*
X186569735Y-64466498D01*
X186509397Y-64320827D01*
X186509390Y-64320814D01*
X186421789Y-64189711D01*
X186421786Y-64189707D01*
X186310292Y-64078213D01*
X186310288Y-64078210D01*
X186179185Y-63990609D01*
X186173809Y-63987736D01*
X186174393Y-63986643D01*
X186125047Y-63946870D01*
X186102988Y-63880574D01*
X186120273Y-63812876D01*
X186123797Y-63807282D01*
X186209394Y-63679179D01*
X186269737Y-63533497D01*
X186300500Y-63378842D01*
X186300500Y-63221158D01*
X186300500Y-63221155D01*
X186300499Y-63221153D01*
X186269738Y-63066510D01*
X186269738Y-63066508D01*
X186269737Y-63066503D01*
X186214898Y-62934108D01*
X186209397Y-62920827D01*
X186209390Y-62920814D01*
X186121789Y-62789711D01*
X186121786Y-62789707D01*
X186010292Y-62678213D01*
X186010288Y-62678210D01*
X185879185Y-62590609D01*
X185879172Y-62590602D01*
X185733501Y-62530264D01*
X185733489Y-62530261D01*
X185578845Y-62499500D01*
X185578842Y-62499500D01*
X185421158Y-62499500D01*
X185421155Y-62499500D01*
X185266510Y-62530261D01*
X185266498Y-62530264D01*
X185120827Y-62590602D01*
X185120814Y-62590609D01*
X184989711Y-62678210D01*
X184989707Y-62678213D01*
X184878213Y-62789707D01*
X184878210Y-62789711D01*
X184790609Y-62920814D01*
X184790602Y-62920827D01*
X184730264Y-63066498D01*
X184730261Y-63066508D01*
X184703769Y-63199692D01*
X184671384Y-63261603D01*
X184610668Y-63296177D01*
X184582152Y-63299500D01*
X184521155Y-63299500D01*
X184366510Y-63330261D01*
X184366498Y-63330264D01*
X184220827Y-63390602D01*
X184220814Y-63390609D01*
X184089711Y-63478210D01*
X184089707Y-63478213D01*
X183978213Y-63589707D01*
X183978210Y-63589711D01*
X183890609Y-63720814D01*
X183890602Y-63720827D01*
X183830264Y-63866498D01*
X183830261Y-63866510D01*
X183799500Y-64021153D01*
X126800000Y-64021153D01*
X126800000Y-60071153D01*
X140899500Y-60071153D01*
X140899500Y-60228846D01*
X140930261Y-60383489D01*
X140930264Y-60383501D01*
X140990602Y-60529172D01*
X140990609Y-60529185D01*
X141078210Y-60660288D01*
X141078213Y-60660292D01*
X141189707Y-60771786D01*
X141189711Y-60771789D01*
X141320814Y-60859390D01*
X141320827Y-60859397D01*
X141466498Y-60919735D01*
X141466503Y-60919737D01*
X141621153Y-60950499D01*
X141621156Y-60950500D01*
X141621158Y-60950500D01*
X141778844Y-60950500D01*
X141778845Y-60950499D01*
X141933497Y-60919737D01*
X142079179Y-60859394D01*
X142210289Y-60771789D01*
X142321789Y-60660289D01*
X142409394Y-60529179D01*
X142469737Y-60383497D01*
X142500500Y-60228842D01*
X142500500Y-60071158D01*
X142500500Y-60071155D01*
X142500499Y-60071153D01*
X142495660Y-60046828D01*
X142469737Y-59916503D01*
X142454138Y-59878844D01*
X142409397Y-59770827D01*
X142409390Y-59770814D01*
X142321789Y-59639711D01*
X142321786Y-59639707D01*
X142210292Y-59528213D01*
X142210288Y-59528210D01*
X142079185Y-59440609D01*
X142079172Y-59440602D01*
X141933501Y-59380264D01*
X141933489Y-59380261D01*
X141778845Y-59349500D01*
X141778842Y-59349500D01*
X141621158Y-59349500D01*
X141621155Y-59349500D01*
X141466510Y-59380261D01*
X141466498Y-59380264D01*
X141320827Y-59440602D01*
X141320814Y-59440609D01*
X141189711Y-59528210D01*
X141189707Y-59528213D01*
X141078213Y-59639707D01*
X141078210Y-59639711D01*
X140990609Y-59770814D01*
X140990602Y-59770827D01*
X140930264Y-59916498D01*
X140930261Y-59916510D01*
X140899500Y-60071153D01*
X126800000Y-60071153D01*
X126800000Y-58198920D01*
X141822885Y-58198920D01*
X141851726Y-58343907D01*
X141851729Y-58343917D01*
X141908298Y-58480488D01*
X141908305Y-58480501D01*
X141990434Y-58603415D01*
X141990437Y-58603419D01*
X142094966Y-58707948D01*
X142094970Y-58707951D01*
X142217884Y-58790080D01*
X142217897Y-58790087D01*
X142354468Y-58846656D01*
X142354473Y-58846658D01*
X142354477Y-58846658D01*
X142354478Y-58846659D01*
X142499465Y-58875500D01*
X142499468Y-58875500D01*
X142647305Y-58875500D01*
X142728142Y-58859420D01*
X142797733Y-58865647D01*
X142852911Y-58908509D01*
X142873950Y-58956841D01*
X142878339Y-58978903D01*
X142878343Y-58978917D01*
X142934912Y-59115488D01*
X142934919Y-59115501D01*
X143017048Y-59238415D01*
X143017051Y-59238419D01*
X143113032Y-59334400D01*
X143146517Y-59395723D01*
X143141533Y-59465415D01*
X143099661Y-59521348D01*
X143094243Y-59525182D01*
X143089713Y-59528208D01*
X143089707Y-59528213D01*
X142978213Y-59639707D01*
X142978210Y-59639711D01*
X142890609Y-59770814D01*
X142890602Y-59770827D01*
X142830264Y-59916498D01*
X142830261Y-59916510D01*
X142799500Y-60071153D01*
X142799500Y-60228846D01*
X142830261Y-60383489D01*
X142830264Y-60383501D01*
X142890602Y-60529172D01*
X142890609Y-60529185D01*
X142978210Y-60660288D01*
X142978213Y-60660292D01*
X143089707Y-60771786D01*
X143089711Y-60771789D01*
X143220814Y-60859390D01*
X143220827Y-60859397D01*
X143366498Y-60919735D01*
X143366503Y-60919737D01*
X143521153Y-60950499D01*
X143521156Y-60950500D01*
X143521158Y-60950500D01*
X143678844Y-60950500D01*
X143678845Y-60950499D01*
X143833497Y-60919737D01*
X143979179Y-60859394D01*
X144110289Y-60771789D01*
X144221789Y-60660289D01*
X144309394Y-60529179D01*
X144354139Y-60421153D01*
X163499500Y-60421153D01*
X163499500Y-60578846D01*
X163530261Y-60733489D01*
X163530264Y-60733501D01*
X163590602Y-60879172D01*
X163590609Y-60879185D01*
X163678210Y-61010288D01*
X163678213Y-61010292D01*
X163789707Y-61121786D01*
X163789711Y-61121789D01*
X163920814Y-61209390D01*
X163920827Y-61209397D01*
X164066498Y-61269735D01*
X164066503Y-61269737D01*
X164221153Y-61300499D01*
X164221156Y-61300500D01*
X164221158Y-61300500D01*
X164378844Y-61300500D01*
X164378845Y-61300499D01*
X164533497Y-61269737D01*
X164679179Y-61209394D01*
X164810289Y-61121789D01*
X164921789Y-61010289D01*
X165009394Y-60879179D01*
X165011572Y-60873920D01*
X185649499Y-60873920D01*
X185678340Y-61018907D01*
X185678343Y-61018917D01*
X185734912Y-61155488D01*
X185734919Y-61155501D01*
X185817048Y-61278415D01*
X185817051Y-61278419D01*
X185921580Y-61382948D01*
X185921584Y-61382951D01*
X186044498Y-61465080D01*
X186044511Y-61465087D01*
X186181082Y-61521656D01*
X186181087Y-61521658D01*
X186181091Y-61521658D01*
X186181092Y-61521659D01*
X186326079Y-61550500D01*
X186326082Y-61550500D01*
X186473920Y-61550500D01*
X186571462Y-61531096D01*
X186618913Y-61521658D01*
X186755495Y-61465084D01*
X186781110Y-61447967D01*
X186847784Y-61427090D01*
X186915165Y-61445573D01*
X186918838Y-61447933D01*
X186944505Y-61465084D01*
X186944510Y-61465086D01*
X187074469Y-61518917D01*
X187081087Y-61521658D01*
X187081091Y-61521658D01*
X187081092Y-61521659D01*
X187226079Y-61550500D01*
X187226082Y-61550500D01*
X187373920Y-61550500D01*
X187471462Y-61531096D01*
X187518913Y-61521658D01*
X187626762Y-61476985D01*
X187696227Y-61469517D01*
X187758706Y-61500791D01*
X187788772Y-61544094D01*
X187834914Y-61655492D01*
X187834919Y-61655501D01*
X187917048Y-61778415D01*
X187917051Y-61778419D01*
X188021580Y-61882948D01*
X188021584Y-61882951D01*
X188144498Y-61965080D01*
X188144511Y-61965087D01*
X188281082Y-62021656D01*
X188281087Y-62021658D01*
X188281091Y-62021658D01*
X188281092Y-62021659D01*
X188426079Y-62050500D01*
X188426082Y-62050500D01*
X188573920Y-62050500D01*
X188671462Y-62031096D01*
X188718913Y-62021658D01*
X188855495Y-61965084D01*
X188978416Y-61882951D01*
X189082951Y-61778416D01*
X189165084Y-61655495D01*
X189221658Y-61518913D01*
X189228383Y-61485107D01*
X189260768Y-61423196D01*
X189321484Y-61388622D01*
X189391253Y-61392361D01*
X189447925Y-61433228D01*
X189471617Y-61485107D01*
X189478340Y-61518905D01*
X189478343Y-61518917D01*
X189534912Y-61655488D01*
X189534919Y-61655501D01*
X189617048Y-61778415D01*
X189617051Y-61778419D01*
X189721580Y-61882948D01*
X189721584Y-61882951D01*
X189844498Y-61965080D01*
X189844511Y-61965087D01*
X189981082Y-62021656D01*
X189981087Y-62021658D01*
X189981091Y-62021658D01*
X189981092Y-62021659D01*
X190126079Y-62050500D01*
X190126082Y-62050500D01*
X190273920Y-62050500D01*
X190371462Y-62031096D01*
X190418913Y-62021658D01*
X190555495Y-61965084D01*
X190678416Y-61882951D01*
X190782951Y-61778416D01*
X190865084Y-61655495D01*
X190921658Y-61518913D01*
X190945522Y-61398945D01*
X190950500Y-61373920D01*
X190950500Y-61226079D01*
X190921659Y-61081092D01*
X190921658Y-61081091D01*
X190921658Y-61081087D01*
X190921656Y-61081082D01*
X190865087Y-60944511D01*
X190865080Y-60944498D01*
X190782951Y-60821584D01*
X190782948Y-60821580D01*
X190678419Y-60717051D01*
X190678415Y-60717048D01*
X190555501Y-60634919D01*
X190555488Y-60634912D01*
X190418917Y-60578343D01*
X190418907Y-60578340D01*
X190273920Y-60549500D01*
X190273918Y-60549500D01*
X190126082Y-60549500D01*
X190126080Y-60549500D01*
X189981092Y-60578340D01*
X189981082Y-60578343D01*
X189844511Y-60634912D01*
X189844498Y-60634919D01*
X189721584Y-60717048D01*
X189721580Y-60717051D01*
X189617051Y-60821580D01*
X189617048Y-60821584D01*
X189534919Y-60944498D01*
X189534912Y-60944511D01*
X189478343Y-61081082D01*
X189478340Y-61081092D01*
X189471617Y-61114893D01*
X189439232Y-61176804D01*
X189378516Y-61211378D01*
X189308746Y-61207637D01*
X189252075Y-61166771D01*
X189228383Y-61114893D01*
X189221659Y-61081092D01*
X189221658Y-61081091D01*
X189221658Y-61081087D01*
X189221656Y-61081082D01*
X189165087Y-60944511D01*
X189165080Y-60944498D01*
X189082951Y-60821584D01*
X189082948Y-60821580D01*
X188978419Y-60717051D01*
X188978415Y-60717048D01*
X188855501Y-60634919D01*
X188855488Y-60634912D01*
X188718917Y-60578343D01*
X188718907Y-60578340D01*
X188573920Y-60549500D01*
X188573918Y-60549500D01*
X188426082Y-60549500D01*
X188426080Y-60549500D01*
X188281092Y-60578340D01*
X188281082Y-60578343D01*
X188173240Y-60623013D01*
X188103771Y-60630482D01*
X188041292Y-60599207D01*
X188011227Y-60555904D01*
X187965087Y-60444511D01*
X187965080Y-60444498D01*
X187882951Y-60321584D01*
X187882948Y-60321580D01*
X187778419Y-60217051D01*
X187778415Y-60217048D01*
X187655501Y-60134919D01*
X187655488Y-60134912D01*
X187518917Y-60078343D01*
X187518907Y-60078340D01*
X187373920Y-60049500D01*
X187373918Y-60049500D01*
X187226082Y-60049500D01*
X187226080Y-60049500D01*
X187081092Y-60078340D01*
X187081082Y-60078343D01*
X186944506Y-60134914D01*
X186944504Y-60134915D01*
X186918889Y-60152031D01*
X186852211Y-60172908D01*
X186784831Y-60154422D01*
X186781111Y-60152031D01*
X186755495Y-60134915D01*
X186755493Y-60134914D01*
X186618917Y-60078343D01*
X186618907Y-60078340D01*
X186473920Y-60049500D01*
X186473918Y-60049500D01*
X186326082Y-60049500D01*
X186326080Y-60049500D01*
X186181092Y-60078340D01*
X186181082Y-60078343D01*
X186044511Y-60134912D01*
X186044498Y-60134919D01*
X185921584Y-60217048D01*
X185921580Y-60217051D01*
X185817051Y-60321580D01*
X185817048Y-60321584D01*
X185734919Y-60444498D01*
X185734912Y-60444511D01*
X185678343Y-60581082D01*
X185678340Y-60581092D01*
X185649500Y-60726079D01*
X185649500Y-60726082D01*
X185649500Y-60873918D01*
X185649500Y-60873920D01*
X185649499Y-60873920D01*
X165011572Y-60873920D01*
X165069737Y-60733497D01*
X165074443Y-60709836D01*
X165077236Y-60695799D01*
X165077236Y-60695798D01*
X165100500Y-60578844D01*
X165100500Y-60421155D01*
X165100499Y-60421153D01*
X165069737Y-60266503D01*
X165054138Y-60228844D01*
X165009397Y-60120827D01*
X165009390Y-60120814D01*
X164921789Y-59989711D01*
X164921786Y-59989707D01*
X164810292Y-59878213D01*
X164810288Y-59878210D01*
X164679185Y-59790609D01*
X164679172Y-59790602D01*
X164533501Y-59730264D01*
X164533491Y-59730261D01*
X164462051Y-59716051D01*
X164462050Y-59716050D01*
X164378845Y-59699500D01*
X164378842Y-59699500D01*
X164221158Y-59699500D01*
X164221155Y-59699500D01*
X164066510Y-59730261D01*
X164066498Y-59730264D01*
X163920827Y-59790602D01*
X163920814Y-59790609D01*
X163789711Y-59878210D01*
X163789707Y-59878213D01*
X163678213Y-59989707D01*
X163678210Y-59989711D01*
X163590609Y-60120814D01*
X163590602Y-60120827D01*
X163530264Y-60266498D01*
X163530261Y-60266510D01*
X163499500Y-60421153D01*
X144354139Y-60421153D01*
X144369737Y-60383497D01*
X144400500Y-60228842D01*
X144400500Y-60071158D01*
X144400500Y-60071155D01*
X144400499Y-60071153D01*
X144395660Y-60046828D01*
X144369737Y-59916503D01*
X144354138Y-59878844D01*
X144309397Y-59770827D01*
X144309390Y-59770814D01*
X144221789Y-59639711D01*
X144221786Y-59639707D01*
X144184640Y-59602561D01*
X167544200Y-59602561D01*
X167544200Y-59759439D01*
X167584803Y-59910970D01*
X167663241Y-60046830D01*
X167774170Y-60157759D01*
X167910030Y-60236197D01*
X168061561Y-60276800D01*
X168061564Y-60276800D01*
X168218436Y-60276800D01*
X168218439Y-60276800D01*
X168369970Y-60236197D01*
X168505830Y-60157759D01*
X168616759Y-60046830D01*
X168695197Y-59910970D01*
X168735800Y-59759439D01*
X168735800Y-59721153D01*
X192399500Y-59721153D01*
X192399500Y-59878846D01*
X192430261Y-60033489D01*
X192430264Y-60033501D01*
X192490602Y-60179172D01*
X192490609Y-60179185D01*
X192578210Y-60310288D01*
X192578213Y-60310292D01*
X192689707Y-60421786D01*
X192689711Y-60421789D01*
X192820814Y-60509390D01*
X192820827Y-60509397D01*
X192917646Y-60549500D01*
X192966503Y-60569737D01*
X193114658Y-60599207D01*
X193121153Y-60600499D01*
X193121156Y-60600500D01*
X193121158Y-60600500D01*
X193278844Y-60600500D01*
X193278845Y-60600499D01*
X193433497Y-60569737D01*
X193579179Y-60509394D01*
X193710289Y-60421789D01*
X193821789Y-60310289D01*
X193909394Y-60179179D01*
X193969737Y-60033497D01*
X194000500Y-59878842D01*
X194000500Y-59721158D01*
X194000500Y-59721155D01*
X194000499Y-59721153D01*
X193969738Y-59566510D01*
X193969737Y-59566503D01*
X193952623Y-59525186D01*
X193909397Y-59420827D01*
X193909390Y-59420814D01*
X193821789Y-59289711D01*
X193821786Y-59289707D01*
X193710292Y-59178213D01*
X193710288Y-59178210D01*
X193579185Y-59090609D01*
X193579172Y-59090602D01*
X193433501Y-59030264D01*
X193433489Y-59030261D01*
X193278845Y-58999500D01*
X193278842Y-58999500D01*
X193121158Y-58999500D01*
X193121155Y-58999500D01*
X192966510Y-59030261D01*
X192966498Y-59030264D01*
X192820827Y-59090602D01*
X192820814Y-59090609D01*
X192689711Y-59178210D01*
X192689707Y-59178213D01*
X192578213Y-59289707D01*
X192578210Y-59289711D01*
X192490609Y-59420814D01*
X192490602Y-59420827D01*
X192430264Y-59566498D01*
X192430261Y-59566510D01*
X192399500Y-59721153D01*
X168735800Y-59721153D01*
X168735800Y-59602561D01*
X168695197Y-59451030D01*
X168616759Y-59315170D01*
X168505830Y-59204241D01*
X168369970Y-59125803D01*
X168369971Y-59125803D01*
X168331474Y-59115488D01*
X168218439Y-59085200D01*
X168061561Y-59085200D01*
X167948526Y-59115488D01*
X167910029Y-59125803D01*
X167774171Y-59204240D01*
X167774168Y-59204242D01*
X167663242Y-59315168D01*
X167663240Y-59315171D01*
X167584803Y-59451029D01*
X167579298Y-59471575D01*
X167544200Y-59602561D01*
X144184640Y-59602561D01*
X144110292Y-59528213D01*
X144110252Y-59528186D01*
X144105760Y-59525184D01*
X144060954Y-59471575D01*
X144052244Y-59402251D01*
X144082396Y-59339222D01*
X144086948Y-59334418D01*
X144182951Y-59238416D01*
X144265084Y-59115495D01*
X144321658Y-58978913D01*
X144342967Y-58871789D01*
X144350500Y-58833920D01*
X144350500Y-58686079D01*
X144321659Y-58541092D01*
X144321658Y-58541091D01*
X144321658Y-58541087D01*
X144297805Y-58483501D01*
X144265087Y-58404511D01*
X144265080Y-58404498D01*
X144182951Y-58281584D01*
X144182948Y-58281580D01*
X144078419Y-58177051D01*
X144078415Y-58177048D01*
X144069593Y-58171153D01*
X149699500Y-58171153D01*
X149699500Y-58328846D01*
X149730261Y-58483489D01*
X149730264Y-58483501D01*
X149790602Y-58629172D01*
X149790609Y-58629185D01*
X149878210Y-58760288D01*
X149878213Y-58760292D01*
X149989707Y-58871786D01*
X149989711Y-58871789D01*
X150120814Y-58959390D01*
X150120827Y-58959397D01*
X150266498Y-59019735D01*
X150266503Y-59019737D01*
X150421153Y-59050499D01*
X150421156Y-59050500D01*
X150421158Y-59050500D01*
X150578844Y-59050500D01*
X150578845Y-59050499D01*
X150733497Y-59019737D01*
X150879179Y-58959394D01*
X151010289Y-58871789D01*
X151121789Y-58760289D01*
X151209394Y-58629179D01*
X151269737Y-58483497D01*
X151300500Y-58328842D01*
X151300500Y-58221153D01*
X154049500Y-58221153D01*
X154049500Y-58378846D01*
X154080261Y-58533489D01*
X154080264Y-58533501D01*
X154140602Y-58679172D01*
X154140609Y-58679185D01*
X154228210Y-58810288D01*
X154228213Y-58810292D01*
X154339707Y-58921786D01*
X154339711Y-58921789D01*
X154470814Y-59009390D01*
X154470827Y-59009397D01*
X154570060Y-59050500D01*
X154616503Y-59069737D01*
X154771153Y-59100499D01*
X154771156Y-59100500D01*
X154771158Y-59100500D01*
X154928844Y-59100500D01*
X154928845Y-59100499D01*
X155083497Y-59069737D01*
X155229179Y-59009394D01*
X155360289Y-58921789D01*
X155471789Y-58810289D01*
X155559394Y-58679179D01*
X155597757Y-58586561D01*
X162464200Y-58586561D01*
X162464200Y-58743439D01*
X162504803Y-58894970D01*
X162583241Y-59030830D01*
X162694170Y-59141759D01*
X162830030Y-59220197D01*
X162981561Y-59260800D01*
X162981564Y-59260800D01*
X163138436Y-59260800D01*
X163138439Y-59260800D01*
X163289970Y-59220197D01*
X163425830Y-59141759D01*
X163536759Y-59030830D01*
X163615197Y-58894970D01*
X163655800Y-58743439D01*
X163655800Y-58586561D01*
X163615197Y-58435030D01*
X163536759Y-58299170D01*
X163425830Y-58188241D01*
X163289970Y-58109803D01*
X163289971Y-58109803D01*
X163252087Y-58099652D01*
X163138439Y-58069200D01*
X162981561Y-58069200D01*
X162867912Y-58099652D01*
X162830029Y-58109803D01*
X162694171Y-58188240D01*
X162694168Y-58188242D01*
X162583242Y-58299168D01*
X162583240Y-58299171D01*
X162504803Y-58435029D01*
X162504803Y-58435030D01*
X162464200Y-58586561D01*
X155597757Y-58586561D01*
X155619737Y-58533497D01*
X155650500Y-58378842D01*
X155650500Y-58221158D01*
X155650500Y-58221155D01*
X155650499Y-58221153D01*
X155647126Y-58204196D01*
X155619737Y-58066503D01*
X155617886Y-58062035D01*
X155559397Y-57920827D01*
X155559390Y-57920814D01*
X155471789Y-57789711D01*
X155471786Y-57789707D01*
X155360292Y-57678213D01*
X155360288Y-57678210D01*
X155341320Y-57665536D01*
X155229185Y-57590609D01*
X155229172Y-57590602D01*
X155180788Y-57570561D01*
X167544200Y-57570561D01*
X167544200Y-57727439D01*
X167584803Y-57878970D01*
X167663241Y-58014830D01*
X167774170Y-58125759D01*
X167910030Y-58204197D01*
X168061561Y-58244800D01*
X168061564Y-58244800D01*
X168218436Y-58244800D01*
X168218439Y-58244800D01*
X168369970Y-58204197D01*
X168422412Y-58173920D01*
X177649499Y-58173920D01*
X177678340Y-58318907D01*
X177678343Y-58318917D01*
X177734912Y-58455488D01*
X177734919Y-58455501D01*
X177817048Y-58578415D01*
X177817051Y-58578419D01*
X177921580Y-58682948D01*
X177921584Y-58682951D01*
X178044498Y-58765080D01*
X178044511Y-58765087D01*
X178153647Y-58810292D01*
X178181087Y-58821658D01*
X178181091Y-58821658D01*
X178181092Y-58821659D01*
X178326079Y-58850500D01*
X178326082Y-58850500D01*
X178473920Y-58850500D01*
X178612347Y-58822964D01*
X178618913Y-58821658D01*
X178755495Y-58765084D01*
X178878416Y-58682951D01*
X178982951Y-58578416D01*
X179065084Y-58455495D01*
X179121658Y-58318913D01*
X179147651Y-58188240D01*
X179150500Y-58173920D01*
X179150500Y-58026079D01*
X179121659Y-57881092D01*
X179121658Y-57881091D01*
X179121658Y-57881087D01*
X179117403Y-57870814D01*
X179065087Y-57744511D01*
X179065080Y-57744498D01*
X179017921Y-57673920D01*
X179449499Y-57673920D01*
X179478340Y-57818907D01*
X179478343Y-57818917D01*
X179534912Y-57955488D01*
X179534919Y-57955501D01*
X179617048Y-58078415D01*
X179617051Y-58078419D01*
X179721580Y-58182948D01*
X179721584Y-58182951D01*
X179844498Y-58265080D01*
X179844511Y-58265087D01*
X179981082Y-58321656D01*
X179981087Y-58321658D01*
X179981091Y-58321658D01*
X179981092Y-58321659D01*
X180126079Y-58350500D01*
X180126082Y-58350500D01*
X180273920Y-58350500D01*
X180382797Y-58328842D01*
X180418913Y-58321658D01*
X180555495Y-58265084D01*
X180678416Y-58182951D01*
X180782951Y-58078416D01*
X180865084Y-57955495D01*
X180921658Y-57818913D01*
X180931486Y-57769505D01*
X180950500Y-57673920D01*
X180950500Y-57526079D01*
X180921659Y-57381092D01*
X180921658Y-57381091D01*
X180921658Y-57381087D01*
X180881099Y-57283168D01*
X180865087Y-57244511D01*
X180865080Y-57244498D01*
X180782951Y-57121584D01*
X180782948Y-57121580D01*
X180678419Y-57017051D01*
X180678415Y-57017048D01*
X180555501Y-56934919D01*
X180555488Y-56934912D01*
X180413286Y-56876011D01*
X180413986Y-56874320D01*
X180362727Y-56840717D01*
X180334280Y-56776901D01*
X180344851Y-56707835D01*
X180391083Y-56655449D01*
X180432981Y-56638751D01*
X180518913Y-56621658D01*
X180655495Y-56565084D01*
X180764638Y-56492156D01*
X180831315Y-56471279D01*
X180898695Y-56489763D01*
X180921210Y-56507578D01*
X180996580Y-56582948D01*
X180996584Y-56582951D01*
X181119498Y-56665080D01*
X181119511Y-56665087D01*
X181222715Y-56707835D01*
X181256087Y-56721658D01*
X181256091Y-56721658D01*
X181256092Y-56721659D01*
X181401079Y-56750500D01*
X181401082Y-56750500D01*
X181548920Y-56750500D01*
X181686784Y-56723076D01*
X181693913Y-56721658D01*
X181830495Y-56665084D01*
X181953416Y-56582951D01*
X182057951Y-56478416D01*
X182140084Y-56355495D01*
X182154309Y-56321153D01*
X189899500Y-56321153D01*
X189899500Y-56478846D01*
X189930261Y-56633489D01*
X189930264Y-56633501D01*
X189990602Y-56779172D01*
X189990609Y-56779185D01*
X190078210Y-56910288D01*
X190078213Y-56910292D01*
X190189707Y-57021786D01*
X190189711Y-57021789D01*
X190320814Y-57109390D01*
X190320827Y-57109397D01*
X190466498Y-57169735D01*
X190466503Y-57169737D01*
X190621153Y-57200499D01*
X190621156Y-57200500D01*
X190621158Y-57200500D01*
X190778844Y-57200500D01*
X190778845Y-57200499D01*
X190933497Y-57169737D01*
X191079179Y-57109394D01*
X191210289Y-57021789D01*
X191321789Y-56910289D01*
X191409394Y-56779179D01*
X191469737Y-56633497D01*
X191500500Y-56478842D01*
X191500500Y-56321158D01*
X191500500Y-56321155D01*
X191500499Y-56321153D01*
X191471212Y-56173920D01*
X210149499Y-56173920D01*
X210178340Y-56318907D01*
X210178343Y-56318917D01*
X210234912Y-56455488D01*
X210234919Y-56455501D01*
X210317048Y-56578415D01*
X210317051Y-56578419D01*
X210421580Y-56682948D01*
X210421584Y-56682951D01*
X210544498Y-56765080D01*
X210544511Y-56765087D01*
X210609831Y-56792143D01*
X210681087Y-56821658D01*
X210681091Y-56821658D01*
X210681092Y-56821659D01*
X210826079Y-56850500D01*
X210826082Y-56850500D01*
X210973920Y-56850500D01*
X211071462Y-56831096D01*
X211118913Y-56821658D01*
X211255495Y-56765084D01*
X211378416Y-56682951D01*
X211482951Y-56578416D01*
X211565084Y-56455495D01*
X211621658Y-56318913D01*
X211650500Y-56173918D01*
X211650500Y-56026082D01*
X211650500Y-56026079D01*
X211621659Y-55881092D01*
X211621658Y-55881091D01*
X211621658Y-55881087D01*
X211580235Y-55781082D01*
X211565087Y-55744511D01*
X211565080Y-55744498D01*
X211482951Y-55621584D01*
X211482948Y-55621580D01*
X211378419Y-55517051D01*
X211378415Y-55517048D01*
X211255501Y-55434919D01*
X211255488Y-55434912D01*
X211118917Y-55378343D01*
X211118907Y-55378340D01*
X210973920Y-55349500D01*
X210973918Y-55349500D01*
X210826082Y-55349500D01*
X210826080Y-55349500D01*
X210681092Y-55378340D01*
X210681082Y-55378343D01*
X210544511Y-55434912D01*
X210544498Y-55434919D01*
X210421584Y-55517048D01*
X210421580Y-55517051D01*
X210317051Y-55621580D01*
X210317048Y-55621584D01*
X210234919Y-55744498D01*
X210234912Y-55744511D01*
X210178343Y-55881082D01*
X210178340Y-55881092D01*
X210149500Y-56026079D01*
X210149500Y-56026082D01*
X210149500Y-56173918D01*
X210149500Y-56173920D01*
X210149499Y-56173920D01*
X191471212Y-56173920D01*
X191469738Y-56166510D01*
X191469737Y-56166503D01*
X191409394Y-56020821D01*
X191409392Y-56020818D01*
X191409390Y-56020814D01*
X191321789Y-55889711D01*
X191321786Y-55889707D01*
X191210292Y-55778213D01*
X191210288Y-55778210D01*
X191079185Y-55690609D01*
X191079172Y-55690602D01*
X190933501Y-55630264D01*
X190933489Y-55630261D01*
X190778845Y-55599500D01*
X190778842Y-55599500D01*
X190621158Y-55599500D01*
X190621155Y-55599500D01*
X190466510Y-55630261D01*
X190466498Y-55630264D01*
X190320827Y-55690602D01*
X190320814Y-55690609D01*
X190189711Y-55778210D01*
X190189707Y-55778213D01*
X190078213Y-55889707D01*
X190078210Y-55889711D01*
X189990609Y-56020814D01*
X189990602Y-56020827D01*
X189930264Y-56166498D01*
X189930261Y-56166510D01*
X189899500Y-56321153D01*
X182154309Y-56321153D01*
X182196658Y-56218913D01*
X182216551Y-56118907D01*
X182225500Y-56073920D01*
X182225500Y-55926079D01*
X182196659Y-55781092D01*
X182196658Y-55781091D01*
X182196658Y-55781087D01*
X182181505Y-55744505D01*
X182140087Y-55644511D01*
X182140080Y-55644498D01*
X182057951Y-55521584D01*
X182057948Y-55521580D01*
X181953419Y-55417051D01*
X181953415Y-55417048D01*
X181830501Y-55334919D01*
X181830488Y-55334912D01*
X181693917Y-55278343D01*
X181693907Y-55278340D01*
X181548920Y-55249500D01*
X181548918Y-55249500D01*
X181401082Y-55249500D01*
X181401080Y-55249500D01*
X181256092Y-55278340D01*
X181256082Y-55278343D01*
X181119511Y-55334912D01*
X181119500Y-55334918D01*
X181010360Y-55407843D01*
X180943683Y-55428720D01*
X180876302Y-55410235D01*
X180853789Y-55392421D01*
X180778419Y-55317051D01*
X180778415Y-55317048D01*
X180655501Y-55234919D01*
X180655488Y-55234912D01*
X180518917Y-55178343D01*
X180518907Y-55178340D01*
X180373920Y-55149500D01*
X180373918Y-55149500D01*
X180226082Y-55149500D01*
X180226080Y-55149500D01*
X180081092Y-55178340D01*
X180081082Y-55178343D01*
X179944511Y-55234912D01*
X179944498Y-55234919D01*
X179821584Y-55317048D01*
X179821580Y-55317051D01*
X179717051Y-55421580D01*
X179717048Y-55421584D01*
X179634919Y-55544498D01*
X179634912Y-55544511D01*
X179578343Y-55681082D01*
X179578340Y-55681092D01*
X179549500Y-55826079D01*
X179549500Y-55826082D01*
X179549500Y-55973918D01*
X179549500Y-55973920D01*
X179549499Y-55973920D01*
X179578340Y-56118907D01*
X179578343Y-56118917D01*
X179634912Y-56255488D01*
X179634919Y-56255501D01*
X179717048Y-56378415D01*
X179717051Y-56378419D01*
X179821580Y-56482948D01*
X179821584Y-56482951D01*
X179944498Y-56565080D01*
X179944511Y-56565087D01*
X180086714Y-56623989D01*
X180086011Y-56625683D01*
X180137257Y-56659265D01*
X180165716Y-56723076D01*
X180155158Y-56792143D01*
X180108935Y-56844538D01*
X180067018Y-56861248D01*
X179981092Y-56878340D01*
X179981082Y-56878343D01*
X179844511Y-56934912D01*
X179844498Y-56934919D01*
X179721584Y-57017048D01*
X179721580Y-57017051D01*
X179617051Y-57121580D01*
X179617048Y-57121584D01*
X179534919Y-57244498D01*
X179534912Y-57244511D01*
X179478343Y-57381082D01*
X179478340Y-57381092D01*
X179449500Y-57526079D01*
X179449500Y-57526082D01*
X179449500Y-57673918D01*
X179449500Y-57673920D01*
X179449499Y-57673920D01*
X179017921Y-57673920D01*
X178982951Y-57621584D01*
X178982948Y-57621580D01*
X178878419Y-57517051D01*
X178878415Y-57517048D01*
X178755501Y-57434919D01*
X178755488Y-57434912D01*
X178618917Y-57378343D01*
X178618907Y-57378340D01*
X178473920Y-57349500D01*
X178473918Y-57349500D01*
X178326082Y-57349500D01*
X178326080Y-57349500D01*
X178181092Y-57378340D01*
X178181082Y-57378343D01*
X178044511Y-57434912D01*
X178044498Y-57434919D01*
X177921584Y-57517048D01*
X177921580Y-57517051D01*
X177817051Y-57621580D01*
X177817048Y-57621584D01*
X177734919Y-57744498D01*
X177734912Y-57744511D01*
X177678343Y-57881082D01*
X177678340Y-57881092D01*
X177649500Y-58026079D01*
X177649500Y-58026082D01*
X177649500Y-58173918D01*
X177649500Y-58173920D01*
X177649499Y-58173920D01*
X168422412Y-58173920D01*
X168505830Y-58125759D01*
X168616759Y-58014830D01*
X168695197Y-57878970D01*
X168735800Y-57727439D01*
X168735800Y-57570561D01*
X168695197Y-57419030D01*
X168616759Y-57283170D01*
X168505830Y-57172241D01*
X168369970Y-57093803D01*
X168369971Y-57093803D01*
X168332087Y-57083652D01*
X168218439Y-57053200D01*
X168061561Y-57053200D01*
X167947912Y-57083652D01*
X167910029Y-57093803D01*
X167774171Y-57172240D01*
X167774168Y-57172242D01*
X167663242Y-57283168D01*
X167663240Y-57283171D01*
X167584803Y-57419029D01*
X167573847Y-57459919D01*
X167544200Y-57570561D01*
X155180788Y-57570561D01*
X155083501Y-57530264D01*
X155083489Y-57530261D01*
X154928845Y-57499500D01*
X154928842Y-57499500D01*
X154771158Y-57499500D01*
X154771155Y-57499500D01*
X154616510Y-57530261D01*
X154616498Y-57530264D01*
X154470827Y-57590602D01*
X154470814Y-57590609D01*
X154339711Y-57678210D01*
X154339707Y-57678213D01*
X154228213Y-57789707D01*
X154228210Y-57789711D01*
X154140609Y-57920814D01*
X154140602Y-57920827D01*
X154080264Y-58066498D01*
X154080261Y-58066510D01*
X154049500Y-58221153D01*
X151300500Y-58221153D01*
X151300500Y-58171158D01*
X151300500Y-58171155D01*
X151300499Y-58171153D01*
X151269737Y-58016503D01*
X151269735Y-58016498D01*
X151209397Y-57870827D01*
X151209390Y-57870814D01*
X151121789Y-57739711D01*
X151121786Y-57739707D01*
X151010292Y-57628213D01*
X151010288Y-57628210D01*
X150879185Y-57540609D01*
X150879172Y-57540602D01*
X150733501Y-57480264D01*
X150733489Y-57480261D01*
X150578845Y-57449500D01*
X150578842Y-57449500D01*
X150421158Y-57449500D01*
X150421155Y-57449500D01*
X150266510Y-57480261D01*
X150266498Y-57480264D01*
X150120827Y-57540602D01*
X150120814Y-57540609D01*
X149989711Y-57628210D01*
X149989707Y-57628213D01*
X149878213Y-57739707D01*
X149878210Y-57739711D01*
X149790609Y-57870814D01*
X149790602Y-57870827D01*
X149730264Y-58016498D01*
X149730261Y-58016510D01*
X149699500Y-58171153D01*
X144069593Y-58171153D01*
X143955501Y-58094919D01*
X143955488Y-58094912D01*
X143818917Y-58038343D01*
X143818907Y-58038340D01*
X143673920Y-58009500D01*
X143673918Y-58009500D01*
X143526082Y-58009500D01*
X143526077Y-58009500D01*
X143445242Y-58025579D01*
X143375650Y-58019352D01*
X143320473Y-57976488D01*
X143299434Y-57928154D01*
X143295045Y-57906092D01*
X143295044Y-57906091D01*
X143295044Y-57906087D01*
X143280439Y-57870827D01*
X143238473Y-57769511D01*
X143238466Y-57769498D01*
X143156337Y-57646584D01*
X143156334Y-57646580D01*
X143051805Y-57542051D01*
X143051801Y-57542048D01*
X142928887Y-57459919D01*
X142928874Y-57459912D01*
X142792303Y-57403343D01*
X142792293Y-57403340D01*
X142647306Y-57374500D01*
X142647304Y-57374500D01*
X142499468Y-57374500D01*
X142499466Y-57374500D01*
X142354478Y-57403340D01*
X142354468Y-57403343D01*
X142217897Y-57459912D01*
X142217884Y-57459919D01*
X142094970Y-57542048D01*
X142094966Y-57542051D01*
X141990437Y-57646580D01*
X141990434Y-57646584D01*
X141908305Y-57769498D01*
X141908298Y-57769511D01*
X141851729Y-57906082D01*
X141851726Y-57906092D01*
X141822886Y-58051079D01*
X141822886Y-58051082D01*
X141822886Y-58198918D01*
X141822886Y-58198920D01*
X141822885Y-58198920D01*
X126800000Y-58198920D01*
X126800000Y-55221153D01*
X170899500Y-55221153D01*
X170899500Y-55378846D01*
X170930261Y-55533489D01*
X170930264Y-55533501D01*
X170990602Y-55679172D01*
X170990609Y-55679185D01*
X171078210Y-55810288D01*
X171078213Y-55810292D01*
X171189707Y-55921786D01*
X171189711Y-55921789D01*
X171320814Y-56009390D01*
X171320827Y-56009397D01*
X171466498Y-56069735D01*
X171466503Y-56069737D01*
X171621153Y-56100499D01*
X171621156Y-56100500D01*
X171621158Y-56100500D01*
X171778844Y-56100500D01*
X171778845Y-56100499D01*
X171933497Y-56069737D01*
X172051599Y-56020818D01*
X172079172Y-56009397D01*
X172079172Y-56009396D01*
X172079179Y-56009394D01*
X172210289Y-55921789D01*
X172321789Y-55810289D01*
X172409394Y-55679179D01*
X172469737Y-55533497D01*
X172500500Y-55378842D01*
X172500500Y-55221158D01*
X172500500Y-55221155D01*
X172500499Y-55221153D01*
X172469737Y-55066503D01*
X172469735Y-55066498D01*
X172409397Y-54920827D01*
X172409390Y-54920814D01*
X172321789Y-54789711D01*
X172321786Y-54789707D01*
X172210292Y-54678213D01*
X172210288Y-54678210D01*
X172079185Y-54590609D01*
X172079172Y-54590602D01*
X171933501Y-54530264D01*
X171933489Y-54530261D01*
X171778845Y-54499500D01*
X171778842Y-54499500D01*
X171621158Y-54499500D01*
X171621155Y-54499500D01*
X171466510Y-54530261D01*
X171466498Y-54530264D01*
X171320827Y-54590602D01*
X171320814Y-54590609D01*
X171189711Y-54678210D01*
X171189707Y-54678213D01*
X171078213Y-54789707D01*
X171078210Y-54789711D01*
X170990609Y-54920814D01*
X170990602Y-54920827D01*
X170930264Y-55066498D01*
X170930261Y-55066510D01*
X170899500Y-55221153D01*
X126800000Y-55221153D01*
X126800000Y-52573920D01*
X175049499Y-52573920D01*
X175078340Y-52718907D01*
X175078343Y-52718917D01*
X175134912Y-52855488D01*
X175134919Y-52855501D01*
X175217048Y-52978415D01*
X175217051Y-52978419D01*
X175321580Y-53082948D01*
X175321584Y-53082951D01*
X175444498Y-53165080D01*
X175444511Y-53165087D01*
X175581082Y-53221656D01*
X175581087Y-53221658D01*
X175581091Y-53221658D01*
X175581092Y-53221659D01*
X175726079Y-53250500D01*
X175726082Y-53250500D01*
X175873920Y-53250500D01*
X175971462Y-53231096D01*
X176018913Y-53221658D01*
X176155495Y-53165084D01*
X176278416Y-53082951D01*
X176382951Y-52978416D01*
X176465084Y-52855495D01*
X176521658Y-52718913D01*
X176535267Y-52650500D01*
X176550500Y-52573920D01*
X176550500Y-52426079D01*
X176521659Y-52281092D01*
X176521658Y-52281091D01*
X176521658Y-52281087D01*
X176511060Y-52255501D01*
X176477268Y-52173920D01*
X180449499Y-52173920D01*
X180478340Y-52318907D01*
X180478343Y-52318917D01*
X180534912Y-52455488D01*
X180534919Y-52455501D01*
X180617048Y-52578415D01*
X180617051Y-52578419D01*
X180722326Y-52683694D01*
X180755811Y-52745017D01*
X180750827Y-52814709D01*
X180737754Y-52840255D01*
X180734918Y-52844499D01*
X180734914Y-52844506D01*
X180678343Y-52981082D01*
X180678340Y-52981092D01*
X180649500Y-53126079D01*
X180649500Y-53126082D01*
X180649500Y-53273918D01*
X180649500Y-53273920D01*
X180649499Y-53273920D01*
X180678340Y-53418907D01*
X180678343Y-53418917D01*
X180734912Y-53555488D01*
X180734919Y-53555501D01*
X180817048Y-53678415D01*
X180817051Y-53678419D01*
X180921580Y-53782948D01*
X180921584Y-53782951D01*
X181044498Y-53865080D01*
X181044511Y-53865087D01*
X181181082Y-53921656D01*
X181181087Y-53921658D01*
X181181091Y-53921658D01*
X181181092Y-53921659D01*
X181326079Y-53950500D01*
X181326082Y-53950500D01*
X181473920Y-53950500D01*
X181571462Y-53931096D01*
X181618913Y-53921658D01*
X181755495Y-53865084D01*
X181878416Y-53782951D01*
X181982951Y-53678416D01*
X182065084Y-53555495D01*
X182121658Y-53418913D01*
X182150500Y-53273918D01*
X182150500Y-53126082D01*
X182150500Y-53126079D01*
X182121659Y-52981092D01*
X182121658Y-52981091D01*
X182121658Y-52981087D01*
X182069639Y-52855501D01*
X182065087Y-52844511D01*
X182065080Y-52844498D01*
X181982951Y-52721584D01*
X181982948Y-52721580D01*
X181877672Y-52616304D01*
X181844187Y-52554981D01*
X181849171Y-52485289D01*
X181862252Y-52459732D01*
X181865084Y-52455495D01*
X181921658Y-52318913D01*
X181950500Y-52173918D01*
X181950500Y-52026082D01*
X181950500Y-52026079D01*
X181940124Y-51973920D01*
X189749499Y-51973920D01*
X189778340Y-52118907D01*
X189778343Y-52118917D01*
X189834912Y-52255488D01*
X189834919Y-52255501D01*
X189917048Y-52378415D01*
X189917051Y-52378419D01*
X190021580Y-52482948D01*
X190021584Y-52482951D01*
X190144498Y-52565080D01*
X190144511Y-52565087D01*
X190268161Y-52616304D01*
X190281087Y-52621658D01*
X190281091Y-52621658D01*
X190281092Y-52621659D01*
X190426079Y-52650500D01*
X190426082Y-52650500D01*
X190573920Y-52650500D01*
X190671462Y-52631096D01*
X190718913Y-52621658D01*
X190855495Y-52565084D01*
X190978416Y-52482951D01*
X191082951Y-52378416D01*
X191165084Y-52255495D01*
X191221658Y-52118913D01*
X191240124Y-52026079D01*
X191250500Y-51973920D01*
X191250500Y-51826079D01*
X191221659Y-51681092D01*
X191221658Y-51681091D01*
X191221658Y-51681087D01*
X191197011Y-51621584D01*
X191165087Y-51544511D01*
X191165080Y-51544498D01*
X191082951Y-51421584D01*
X191082948Y-51421580D01*
X190978419Y-51317051D01*
X190978415Y-51317048D01*
X190855501Y-51234919D01*
X190855488Y-51234912D01*
X190718917Y-51178343D01*
X190718907Y-51178340D01*
X190573920Y-51149500D01*
X190573918Y-51149500D01*
X190426082Y-51149500D01*
X190426080Y-51149500D01*
X190281092Y-51178340D01*
X190281082Y-51178343D01*
X190144511Y-51234912D01*
X190144498Y-51234919D01*
X190021584Y-51317048D01*
X190021580Y-51317051D01*
X189917051Y-51421580D01*
X189917048Y-51421584D01*
X189834919Y-51544498D01*
X189834912Y-51544511D01*
X189778343Y-51681082D01*
X189778340Y-51681092D01*
X189749500Y-51826079D01*
X189749500Y-51826082D01*
X189749500Y-51973918D01*
X189749500Y-51973920D01*
X189749499Y-51973920D01*
X181940124Y-51973920D01*
X181921659Y-51881092D01*
X181921656Y-51881081D01*
X181916007Y-51867444D01*
X181916006Y-51867442D01*
X181865087Y-51744511D01*
X181865080Y-51744498D01*
X181782951Y-51621584D01*
X181782948Y-51621580D01*
X181678419Y-51517051D01*
X181678415Y-51517048D01*
X181555501Y-51434919D01*
X181555488Y-51434912D01*
X181418917Y-51378343D01*
X181418907Y-51378340D01*
X181273920Y-51349500D01*
X181273918Y-51349500D01*
X181126082Y-51349500D01*
X181126080Y-51349500D01*
X180981092Y-51378340D01*
X180981082Y-51378343D01*
X180844511Y-51434912D01*
X180844498Y-51434919D01*
X180721584Y-51517048D01*
X180721580Y-51517051D01*
X180617051Y-51621580D01*
X180617048Y-51621584D01*
X180534919Y-51744498D01*
X180534912Y-51744511D01*
X180478343Y-51881082D01*
X180478340Y-51881092D01*
X180449500Y-52026079D01*
X180449500Y-52026082D01*
X180449500Y-52173918D01*
X180449500Y-52173920D01*
X180449499Y-52173920D01*
X176477268Y-52173920D01*
X176465087Y-52144511D01*
X176465080Y-52144498D01*
X176427918Y-52088881D01*
X176382951Y-52021584D01*
X176382948Y-52021580D01*
X176278419Y-51917051D01*
X176278415Y-51917048D01*
X176155501Y-51834919D01*
X176155488Y-51834912D01*
X176018917Y-51778343D01*
X176018907Y-51778340D01*
X175873920Y-51749500D01*
X175873918Y-51749500D01*
X175726082Y-51749500D01*
X175726080Y-51749500D01*
X175581092Y-51778340D01*
X175581082Y-51778343D01*
X175444511Y-51834912D01*
X175444498Y-51834919D01*
X175321584Y-51917048D01*
X175321580Y-51917051D01*
X175217051Y-52021580D01*
X175217048Y-52021584D01*
X175134919Y-52144498D01*
X175134912Y-52144511D01*
X175078343Y-52281082D01*
X175078340Y-52281092D01*
X175049500Y-52426079D01*
X175049500Y-52426082D01*
X175049500Y-52573918D01*
X175049500Y-52573920D01*
X175049499Y-52573920D01*
X126800000Y-52573920D01*
X126800000Y-50521153D01*
X183299500Y-50521153D01*
X183299500Y-50678846D01*
X183330261Y-50833489D01*
X183330264Y-50833501D01*
X183390602Y-50979172D01*
X183390609Y-50979185D01*
X183478210Y-51110288D01*
X183478213Y-51110292D01*
X183589707Y-51221786D01*
X183589711Y-51221789D01*
X183720814Y-51309390D01*
X183720827Y-51309397D01*
X183855277Y-51365087D01*
X183866503Y-51369737D01*
X184021153Y-51400499D01*
X184021156Y-51400500D01*
X184021158Y-51400500D01*
X184178844Y-51400500D01*
X184178845Y-51400499D01*
X184333497Y-51369737D01*
X184460698Y-51317049D01*
X184479172Y-51309397D01*
X184479172Y-51309396D01*
X184479179Y-51309394D01*
X184610289Y-51221789D01*
X184721789Y-51110289D01*
X184809394Y-50979179D01*
X184869737Y-50833497D01*
X184881588Y-50773920D01*
X185349499Y-50773920D01*
X185378340Y-50918907D01*
X185378343Y-50918917D01*
X185434912Y-51055488D01*
X185434919Y-51055501D01*
X185517048Y-51178415D01*
X185517051Y-51178419D01*
X185621580Y-51282948D01*
X185621584Y-51282951D01*
X185744498Y-51365080D01*
X185744511Y-51365087D01*
X185880899Y-51421580D01*
X185881087Y-51421658D01*
X185881091Y-51421658D01*
X185881092Y-51421659D01*
X186026079Y-51450500D01*
X186026082Y-51450500D01*
X186173920Y-51450500D01*
X186271462Y-51431096D01*
X186318913Y-51421658D01*
X186444262Y-51369737D01*
X186455488Y-51365087D01*
X186455488Y-51365086D01*
X186455495Y-51365084D01*
X186578416Y-51282951D01*
X186682951Y-51178416D01*
X186765084Y-51055495D01*
X186785439Y-51006354D01*
X186829279Y-50951950D01*
X186895573Y-50929885D01*
X186963273Y-50947164D01*
X187010884Y-50998301D01*
X187014561Y-51006354D01*
X187034912Y-51055488D01*
X187034919Y-51055501D01*
X187117048Y-51178415D01*
X187117051Y-51178419D01*
X187221580Y-51282948D01*
X187221584Y-51282951D01*
X187344498Y-51365080D01*
X187344511Y-51365087D01*
X187480899Y-51421580D01*
X187481087Y-51421658D01*
X187481091Y-51421658D01*
X187481092Y-51421659D01*
X187626079Y-51450500D01*
X187626082Y-51450500D01*
X187773920Y-51450500D01*
X187871462Y-51431096D01*
X187918913Y-51421658D01*
X188044262Y-51369737D01*
X188055488Y-51365087D01*
X188055488Y-51365086D01*
X188055495Y-51365084D01*
X188178416Y-51282951D01*
X188282951Y-51178416D01*
X188365084Y-51055495D01*
X188421658Y-50918913D01*
X188450500Y-50773918D01*
X188450500Y-50626082D01*
X188450500Y-50626079D01*
X188421659Y-50481092D01*
X188421658Y-50481091D01*
X188421658Y-50481087D01*
X188374194Y-50366498D01*
X188365087Y-50344511D01*
X188365080Y-50344498D01*
X188282951Y-50221584D01*
X188282948Y-50221580D01*
X188178419Y-50117051D01*
X188178415Y-50117048D01*
X188055501Y-50034919D01*
X188055488Y-50034912D01*
X187918917Y-49978343D01*
X187918907Y-49978340D01*
X187773920Y-49949500D01*
X187773918Y-49949500D01*
X187626082Y-49949500D01*
X187626080Y-49949500D01*
X187481092Y-49978340D01*
X187481082Y-49978343D01*
X187344511Y-50034912D01*
X187344498Y-50034919D01*
X187221584Y-50117048D01*
X187221580Y-50117051D01*
X187117051Y-50221580D01*
X187117048Y-50221584D01*
X187034919Y-50344498D01*
X187034914Y-50344507D01*
X187014561Y-50393646D01*
X186970720Y-50448049D01*
X186904426Y-50470114D01*
X186836727Y-50452835D01*
X186789116Y-50401698D01*
X186785439Y-50393646D01*
X186765085Y-50344507D01*
X186765080Y-50344498D01*
X186682951Y-50221584D01*
X186682948Y-50221580D01*
X186578419Y-50117051D01*
X186578415Y-50117048D01*
X186455501Y-50034919D01*
X186455488Y-50034912D01*
X186318917Y-49978343D01*
X186318907Y-49978340D01*
X186173920Y-49949500D01*
X186173918Y-49949500D01*
X186026082Y-49949500D01*
X186026080Y-49949500D01*
X185881092Y-49978340D01*
X185881082Y-49978343D01*
X185744511Y-50034912D01*
X185744498Y-50034919D01*
X185621584Y-50117048D01*
X185621580Y-50117051D01*
X185517051Y-50221580D01*
X185517048Y-50221584D01*
X185434919Y-50344498D01*
X185434912Y-50344511D01*
X185378343Y-50481082D01*
X185378340Y-50481092D01*
X185349500Y-50626079D01*
X185349500Y-50626082D01*
X185349500Y-50773918D01*
X185349500Y-50773920D01*
X185349499Y-50773920D01*
X184881588Y-50773920D01*
X184900500Y-50678842D01*
X184900500Y-50521158D01*
X184900500Y-50521155D01*
X184900499Y-50521153D01*
X184890347Y-50470114D01*
X184869737Y-50366503D01*
X184860622Y-50344498D01*
X184809397Y-50220827D01*
X184809390Y-50220814D01*
X184721789Y-50089711D01*
X184721786Y-50089707D01*
X184610292Y-49978213D01*
X184610288Y-49978210D01*
X184479185Y-49890609D01*
X184479172Y-49890602D01*
X184333501Y-49830264D01*
X184333489Y-49830261D01*
X184178845Y-49799500D01*
X184178842Y-49799500D01*
X184021158Y-49799500D01*
X184021155Y-49799500D01*
X183866510Y-49830261D01*
X183866498Y-49830264D01*
X183720827Y-49890602D01*
X183720814Y-49890609D01*
X183589711Y-49978210D01*
X183589707Y-49978213D01*
X183478213Y-50089707D01*
X183478210Y-50089711D01*
X183390609Y-50220814D01*
X183390602Y-50220827D01*
X183330264Y-50366498D01*
X183330261Y-50366510D01*
X183299500Y-50521153D01*
X126800000Y-50521153D01*
X126800000Y-47877973D01*
X128749500Y-47877973D01*
X128749500Y-48122026D01*
X128787678Y-48363072D01*
X128863097Y-48595187D01*
X128973896Y-48812642D01*
X129117339Y-49010076D01*
X129117343Y-49010081D01*
X129289918Y-49182656D01*
X129289923Y-49182660D01*
X129462136Y-49307779D01*
X129487361Y-49326106D01*
X129704815Y-49436904D01*
X129936924Y-49512321D01*
X130177973Y-49550500D01*
X130177974Y-49550500D01*
X130422026Y-49550500D01*
X130422027Y-49550500D01*
X130663076Y-49512321D01*
X130895185Y-49436904D01*
X131112639Y-49326106D01*
X131310083Y-49182655D01*
X131482655Y-49010083D01*
X131626106Y-48812639D01*
X131736904Y-48595185D01*
X131812321Y-48363076D01*
X131850500Y-48122027D01*
X131850500Y-47877973D01*
X131812321Y-47636924D01*
X131742213Y-47421153D01*
X136099500Y-47421153D01*
X136099500Y-47578846D01*
X136130261Y-47733489D01*
X136130264Y-47733501D01*
X136190602Y-47879172D01*
X136190609Y-47879185D01*
X136278210Y-48010288D01*
X136278213Y-48010292D01*
X136389707Y-48121786D01*
X136389711Y-48121789D01*
X136520814Y-48209390D01*
X136520827Y-48209397D01*
X136666498Y-48269735D01*
X136666503Y-48269737D01*
X136821153Y-48300499D01*
X136821156Y-48300500D01*
X136821158Y-48300500D01*
X136978844Y-48300500D01*
X136978845Y-48300499D01*
X137133497Y-48269737D01*
X137279179Y-48209394D01*
X137410289Y-48121789D01*
X137521789Y-48010289D01*
X137609394Y-47879179D01*
X137669737Y-47733497D01*
X137700500Y-47578842D01*
X137700500Y-47421158D01*
X137700500Y-47421155D01*
X137700499Y-47421153D01*
X137669738Y-47266510D01*
X137669737Y-47266503D01*
X137636954Y-47187357D01*
X137609397Y-47120827D01*
X137609390Y-47120814D01*
X137521789Y-46989711D01*
X137521786Y-46989707D01*
X137410292Y-46878213D01*
X137410288Y-46878210D01*
X137279185Y-46790609D01*
X137279172Y-46790602D01*
X137133501Y-46730264D01*
X137133489Y-46730261D01*
X136978845Y-46699500D01*
X136978842Y-46699500D01*
X136821158Y-46699500D01*
X136821155Y-46699500D01*
X136666510Y-46730261D01*
X136666498Y-46730264D01*
X136520827Y-46790602D01*
X136520814Y-46790609D01*
X136389711Y-46878210D01*
X136389707Y-46878213D01*
X136278213Y-46989707D01*
X136278210Y-46989711D01*
X136190609Y-47120814D01*
X136190602Y-47120827D01*
X136130264Y-47266498D01*
X136130261Y-47266510D01*
X136099500Y-47421153D01*
X131742213Y-47421153D01*
X131736904Y-47404815D01*
X131736902Y-47404812D01*
X131736902Y-47404810D01*
X131666434Y-47266510D01*
X131626106Y-47187361D01*
X131607779Y-47162136D01*
X131482660Y-46989923D01*
X131482656Y-46989918D01*
X131310081Y-46817343D01*
X131310076Y-46817339D01*
X131112642Y-46673896D01*
X131112641Y-46673895D01*
X131112639Y-46673894D01*
X130895185Y-46563096D01*
X130663076Y-46487679D01*
X130663074Y-46487678D01*
X130663072Y-46487678D01*
X130494769Y-46461021D01*
X130422027Y-46449500D01*
X130177973Y-46449500D01*
X130122093Y-46458350D01*
X129936927Y-46487678D01*
X129704812Y-46563097D01*
X129487357Y-46673896D01*
X129289923Y-46817339D01*
X129289918Y-46817343D01*
X129117343Y-46989918D01*
X129117339Y-46989923D01*
X128973896Y-47187357D01*
X128863097Y-47404812D01*
X128787678Y-47636927D01*
X128749500Y-47877973D01*
X126800000Y-47877973D01*
X126800000Y-43821153D01*
X160499500Y-43821153D01*
X160499500Y-43978846D01*
X160530261Y-44133489D01*
X160530264Y-44133501D01*
X160579574Y-44252548D01*
X160587043Y-44322018D01*
X160579574Y-44347452D01*
X160530264Y-44466498D01*
X160530261Y-44466510D01*
X160499500Y-44621153D01*
X160499500Y-44778846D01*
X160530261Y-44933489D01*
X160530264Y-44933501D01*
X160590602Y-45079172D01*
X160590609Y-45079185D01*
X160678210Y-45210288D01*
X160678213Y-45210292D01*
X160789707Y-45321786D01*
X160789711Y-45321789D01*
X160920814Y-45409390D01*
X160920827Y-45409397D01*
X161029420Y-45454377D01*
X161066503Y-45469737D01*
X161221153Y-45500499D01*
X161221156Y-45500500D01*
X161221158Y-45500500D01*
X161378844Y-45500500D01*
X161378845Y-45500499D01*
X161533497Y-45469737D01*
X161552547Y-45461845D01*
X161622016Y-45454377D01*
X161647452Y-45461845D01*
X161666503Y-45469737D01*
X161821153Y-45500499D01*
X161821156Y-45500500D01*
X161821158Y-45500500D01*
X161978844Y-45500500D01*
X161978845Y-45500499D01*
X162133497Y-45469737D01*
X162279179Y-45409394D01*
X162410289Y-45321789D01*
X162521789Y-45210289D01*
X162609394Y-45079179D01*
X162669737Y-44933497D01*
X162692083Y-44821158D01*
X162692084Y-44821153D01*
X165299500Y-44821153D01*
X165299500Y-44978846D01*
X165330261Y-45133489D01*
X165330264Y-45133501D01*
X165390602Y-45279172D01*
X165390609Y-45279185D01*
X165478210Y-45410288D01*
X165478213Y-45410292D01*
X165589707Y-45521786D01*
X165589711Y-45521789D01*
X165720814Y-45609390D01*
X165720827Y-45609397D01*
X165866498Y-45669735D01*
X165866503Y-45669737D01*
X166021153Y-45700499D01*
X166021156Y-45700500D01*
X166021158Y-45700500D01*
X166178844Y-45700500D01*
X166178845Y-45700499D01*
X166333497Y-45669737D01*
X166479179Y-45609394D01*
X166610289Y-45521789D01*
X166721789Y-45410289D01*
X166809394Y-45279179D01*
X166869737Y-45133497D01*
X166900500Y-44978842D01*
X166900500Y-44821158D01*
X166900500Y-44821155D01*
X166900499Y-44821153D01*
X166894476Y-44790874D01*
X166869737Y-44666503D01*
X166850955Y-44621158D01*
X166809397Y-44520827D01*
X166809390Y-44520814D01*
X166721789Y-44389711D01*
X166721786Y-44389707D01*
X166610292Y-44278213D01*
X166610288Y-44278210D01*
X166479185Y-44190609D01*
X166479172Y-44190602D01*
X166333501Y-44130264D01*
X166333489Y-44130261D01*
X166178845Y-44099500D01*
X166178842Y-44099500D01*
X166021158Y-44099500D01*
X166021155Y-44099500D01*
X165866510Y-44130261D01*
X165866498Y-44130264D01*
X165720827Y-44190602D01*
X165720814Y-44190609D01*
X165589711Y-44278210D01*
X165589707Y-44278213D01*
X165478213Y-44389707D01*
X165478210Y-44389711D01*
X165390609Y-44520814D01*
X165390602Y-44520827D01*
X165330264Y-44666498D01*
X165330261Y-44666510D01*
X165299500Y-44821153D01*
X162692084Y-44821153D01*
X162698107Y-44790875D01*
X162698107Y-44790874D01*
X162700500Y-44778844D01*
X162700500Y-44621155D01*
X162700499Y-44621153D01*
X162680734Y-44521789D01*
X162669737Y-44466503D01*
X162620425Y-44347452D01*
X162612956Y-44277983D01*
X162620425Y-44252548D01*
X162646082Y-44190606D01*
X162669737Y-44133497D01*
X162700500Y-43978842D01*
X162700500Y-43821158D01*
X162700500Y-43821155D01*
X162700499Y-43821153D01*
X169399500Y-43821153D01*
X169399500Y-43978846D01*
X169430261Y-44133489D01*
X169430264Y-44133501D01*
X169490602Y-44279172D01*
X169490609Y-44279185D01*
X169578210Y-44410288D01*
X169578213Y-44410292D01*
X169689707Y-44521786D01*
X169689711Y-44521789D01*
X169820814Y-44609390D01*
X169820827Y-44609397D01*
X169958683Y-44666498D01*
X169966503Y-44669737D01*
X170121153Y-44700499D01*
X170121156Y-44700500D01*
X170121158Y-44700500D01*
X170278844Y-44700500D01*
X170278845Y-44700499D01*
X170433497Y-44669737D01*
X170579179Y-44609394D01*
X170710289Y-44521789D01*
X170821789Y-44410289D01*
X170909394Y-44279179D01*
X170969737Y-44133497D01*
X171000500Y-43978842D01*
X171000500Y-43821158D01*
X171000500Y-43821155D01*
X171000499Y-43821153D01*
X172099500Y-43821153D01*
X172099500Y-43978846D01*
X172130261Y-44133489D01*
X172130264Y-44133501D01*
X172190602Y-44279172D01*
X172190609Y-44279185D01*
X172278210Y-44410288D01*
X172278213Y-44410292D01*
X172389707Y-44521786D01*
X172389711Y-44521789D01*
X172520814Y-44609390D01*
X172520827Y-44609397D01*
X172658683Y-44666498D01*
X172666503Y-44669737D01*
X172821153Y-44700499D01*
X172821156Y-44700500D01*
X172821158Y-44700500D01*
X172978844Y-44700500D01*
X172978845Y-44700499D01*
X173133497Y-44669737D01*
X173279179Y-44609394D01*
X173410289Y-44521789D01*
X173521789Y-44410289D01*
X173609394Y-44279179D01*
X173669737Y-44133497D01*
X173692083Y-44021158D01*
X173692084Y-44021153D01*
X174499500Y-44021153D01*
X174499500Y-44178846D01*
X174530261Y-44333489D01*
X174530264Y-44333501D01*
X174590602Y-44479172D01*
X174590609Y-44479185D01*
X174678210Y-44610288D01*
X174678213Y-44610292D01*
X174789707Y-44721786D01*
X174789711Y-44721789D01*
X174920814Y-44809390D01*
X174920827Y-44809397D01*
X175066498Y-44869735D01*
X175066503Y-44869737D01*
X175221153Y-44900499D01*
X175221156Y-44900500D01*
X175221158Y-44900500D01*
X175378844Y-44900500D01*
X175378845Y-44900499D01*
X175533497Y-44869737D01*
X175679179Y-44809394D01*
X175810289Y-44721789D01*
X175921789Y-44610289D01*
X176009394Y-44479179D01*
X176069737Y-44333497D01*
X176100500Y-44178842D01*
X176100500Y-44021158D01*
X176100500Y-44021155D01*
X176100499Y-44021153D01*
X176094476Y-43990874D01*
X176069737Y-43866503D01*
X176050955Y-43821158D01*
X176009397Y-43720827D01*
X176009390Y-43720814D01*
X175921789Y-43589711D01*
X175921786Y-43589707D01*
X175810292Y-43478213D01*
X175810288Y-43478210D01*
X175679185Y-43390609D01*
X175679172Y-43390602D01*
X175533501Y-43330264D01*
X175533489Y-43330261D01*
X175378845Y-43299500D01*
X175378842Y-43299500D01*
X175221158Y-43299500D01*
X175221155Y-43299500D01*
X175066510Y-43330261D01*
X175066498Y-43330264D01*
X174920827Y-43390602D01*
X174920814Y-43390609D01*
X174789711Y-43478210D01*
X174789707Y-43478213D01*
X174678213Y-43589707D01*
X174678210Y-43589711D01*
X174590609Y-43720814D01*
X174590602Y-43720827D01*
X174530264Y-43866498D01*
X174530261Y-43866510D01*
X174499500Y-44021153D01*
X173692084Y-44021153D01*
X173698107Y-43990875D01*
X173698107Y-43990874D01*
X173700500Y-43978844D01*
X173700500Y-43821155D01*
X173700499Y-43821153D01*
X173680543Y-43720827D01*
X173669737Y-43666503D01*
X173637929Y-43589711D01*
X173609397Y-43520827D01*
X173609390Y-43520814D01*
X173521789Y-43389711D01*
X173521786Y-43389707D01*
X173410292Y-43278213D01*
X173410288Y-43278210D01*
X173279185Y-43190609D01*
X173279172Y-43190602D01*
X173133501Y-43130264D01*
X173133489Y-43130261D01*
X172978845Y-43099500D01*
X172978842Y-43099500D01*
X172821158Y-43099500D01*
X172821155Y-43099500D01*
X172666510Y-43130261D01*
X172666498Y-43130264D01*
X172520827Y-43190602D01*
X172520814Y-43190609D01*
X172389711Y-43278210D01*
X172389707Y-43278213D01*
X172278213Y-43389707D01*
X172278210Y-43389711D01*
X172190609Y-43520814D01*
X172190602Y-43520827D01*
X172130264Y-43666498D01*
X172130261Y-43666510D01*
X172099500Y-43821153D01*
X171000499Y-43821153D01*
X170980543Y-43720827D01*
X170969737Y-43666503D01*
X170937929Y-43589711D01*
X170909397Y-43520827D01*
X170909390Y-43520814D01*
X170821789Y-43389711D01*
X170821786Y-43389707D01*
X170710292Y-43278213D01*
X170710288Y-43278210D01*
X170579185Y-43190609D01*
X170579172Y-43190602D01*
X170433501Y-43130264D01*
X170433489Y-43130261D01*
X170278845Y-43099500D01*
X170278842Y-43099500D01*
X170121158Y-43099500D01*
X170121155Y-43099500D01*
X169966510Y-43130261D01*
X169966498Y-43130264D01*
X169820827Y-43190602D01*
X169820814Y-43190609D01*
X169689711Y-43278210D01*
X169689707Y-43278213D01*
X169578213Y-43389707D01*
X169578210Y-43389711D01*
X169490609Y-43520814D01*
X169490602Y-43520827D01*
X169430264Y-43666498D01*
X169430261Y-43666510D01*
X169399500Y-43821153D01*
X162700499Y-43821153D01*
X162680543Y-43720827D01*
X162669737Y-43666503D01*
X162637929Y-43589711D01*
X162609397Y-43520827D01*
X162609390Y-43520814D01*
X162521789Y-43389711D01*
X162521786Y-43389707D01*
X162410292Y-43278213D01*
X162410288Y-43278210D01*
X162279185Y-43190609D01*
X162279172Y-43190602D01*
X162133501Y-43130264D01*
X162133489Y-43130261D01*
X161978845Y-43099500D01*
X161978842Y-43099500D01*
X161821158Y-43099500D01*
X161821155Y-43099500D01*
X161666511Y-43130260D01*
X161666506Y-43130262D01*
X161666504Y-43130262D01*
X161666503Y-43130263D01*
X161647449Y-43138155D01*
X161577982Y-43145623D01*
X161552553Y-43138156D01*
X161533497Y-43130263D01*
X161533493Y-43130262D01*
X161533488Y-43130260D01*
X161378845Y-43099500D01*
X161378842Y-43099500D01*
X161221158Y-43099500D01*
X161221155Y-43099500D01*
X161066510Y-43130261D01*
X161066498Y-43130264D01*
X160920827Y-43190602D01*
X160920814Y-43190609D01*
X160789711Y-43278210D01*
X160789707Y-43278213D01*
X160678213Y-43389707D01*
X160678210Y-43389711D01*
X160590609Y-43520814D01*
X160590602Y-43520827D01*
X160530264Y-43666498D01*
X160530261Y-43666510D01*
X160499500Y-43821153D01*
X126800000Y-43821153D01*
X126800000Y-40921153D01*
X147599500Y-40921153D01*
X147599500Y-41078846D01*
X147628733Y-41225809D01*
X147628733Y-41274191D01*
X147599500Y-41421153D01*
X147599500Y-41578846D01*
X147628733Y-41725809D01*
X147628733Y-41774191D01*
X147599500Y-41921153D01*
X147599500Y-42078846D01*
X147630261Y-42233489D01*
X147630264Y-42233501D01*
X147690602Y-42379172D01*
X147690609Y-42379185D01*
X147778210Y-42510288D01*
X147778213Y-42510292D01*
X147889707Y-42621786D01*
X147889711Y-42621789D01*
X148020814Y-42709390D01*
X148020827Y-42709397D01*
X148129420Y-42754377D01*
X148166503Y-42769737D01*
X148321153Y-42800499D01*
X148321156Y-42800500D01*
X148321158Y-42800500D01*
X148478844Y-42800500D01*
X148478845Y-42800499D01*
X148633497Y-42769737D01*
X148652547Y-42761845D01*
X148722016Y-42754377D01*
X148747452Y-42761845D01*
X148766503Y-42769737D01*
X148921153Y-42800499D01*
X148921156Y-42800500D01*
X148921158Y-42800500D01*
X149078844Y-42800500D01*
X149078845Y-42800499D01*
X149233497Y-42769737D01*
X149379179Y-42709394D01*
X149432270Y-42673920D01*
X189149499Y-42673920D01*
X189178340Y-42818907D01*
X189178343Y-42818917D01*
X189234912Y-42955488D01*
X189234919Y-42955501D01*
X189317048Y-43078415D01*
X189317051Y-43078419D01*
X189421580Y-43182948D01*
X189421584Y-43182951D01*
X189544498Y-43265080D01*
X189544511Y-43265087D01*
X189681082Y-43321656D01*
X189681087Y-43321658D01*
X189681091Y-43321658D01*
X189681092Y-43321659D01*
X189826079Y-43350500D01*
X189826082Y-43350500D01*
X189973920Y-43350500D01*
X190075664Y-43330261D01*
X190118913Y-43321658D01*
X190255495Y-43265084D01*
X190378416Y-43182951D01*
X190482951Y-43078416D01*
X190565084Y-42955495D01*
X190621658Y-42818913D01*
X190650500Y-42673918D01*
X190650500Y-42526082D01*
X190650500Y-42526079D01*
X190621659Y-42381092D01*
X190621658Y-42381091D01*
X190621658Y-42381087D01*
X190620865Y-42379172D01*
X190565087Y-42244511D01*
X190565080Y-42244498D01*
X190482951Y-42121584D01*
X190482948Y-42121580D01*
X190378419Y-42017051D01*
X190378415Y-42017048D01*
X190255501Y-41934919D01*
X190255488Y-41934912D01*
X190118917Y-41878343D01*
X190118907Y-41878340D01*
X189973920Y-41849500D01*
X189973918Y-41849500D01*
X189826082Y-41849500D01*
X189826080Y-41849500D01*
X189681092Y-41878340D01*
X189681082Y-41878343D01*
X189544511Y-41934912D01*
X189544498Y-41934919D01*
X189421584Y-42017048D01*
X189421580Y-42017051D01*
X189317051Y-42121580D01*
X189317048Y-42121584D01*
X189234919Y-42244498D01*
X189234912Y-42244511D01*
X189178343Y-42381082D01*
X189178340Y-42381092D01*
X189149500Y-42526079D01*
X189149500Y-42526082D01*
X189149500Y-42673918D01*
X189149500Y-42673920D01*
X189149499Y-42673920D01*
X149432270Y-42673920D01*
X149510289Y-42621789D01*
X149621789Y-42510289D01*
X149709394Y-42379179D01*
X149769737Y-42233497D01*
X149800500Y-42078842D01*
X149800500Y-41921158D01*
X149800500Y-41921155D01*
X149800499Y-41921153D01*
X149769737Y-41766503D01*
X149761845Y-41747452D01*
X149754377Y-41677984D01*
X149761846Y-41652547D01*
X149769737Y-41633497D01*
X149800500Y-41478842D01*
X149800500Y-41321158D01*
X149800500Y-41321155D01*
X149800499Y-41321153D01*
X149769737Y-41166503D01*
X149733427Y-41078842D01*
X149709397Y-41020827D01*
X149709390Y-41020814D01*
X149621789Y-40889711D01*
X149621786Y-40889707D01*
X149510292Y-40778213D01*
X149510288Y-40778210D01*
X149379185Y-40690609D01*
X149379172Y-40690602D01*
X149233501Y-40630264D01*
X149233491Y-40630261D01*
X149148022Y-40613260D01*
X149086111Y-40580875D01*
X149069112Y-40560534D01*
X149021789Y-40489711D01*
X149021786Y-40489707D01*
X148910292Y-40378213D01*
X148910288Y-40378210D01*
X148779185Y-40290609D01*
X148779172Y-40290602D01*
X148633501Y-40230264D01*
X148633489Y-40230261D01*
X148478845Y-40199500D01*
X148478842Y-40199500D01*
X148321158Y-40199500D01*
X148321155Y-40199500D01*
X148166510Y-40230261D01*
X148166498Y-40230264D01*
X148020827Y-40290602D01*
X148020814Y-40290609D01*
X147889711Y-40378210D01*
X147889707Y-40378213D01*
X147778213Y-40489707D01*
X147778210Y-40489711D01*
X147690609Y-40620814D01*
X147690602Y-40620827D01*
X147630264Y-40766498D01*
X147630261Y-40766510D01*
X147599500Y-40921153D01*
X126800000Y-40921153D01*
X126800000Y-35499983D01*
X129099500Y-35499983D01*
X129099500Y-36900001D01*
X129099501Y-36900018D01*
X129110000Y-37002796D01*
X129110001Y-37002799D01*
X129131109Y-37066498D01*
X129165186Y-37169334D01*
X129257288Y-37318656D01*
X129381344Y-37442712D01*
X129530666Y-37534814D01*
X129697203Y-37589999D01*
X129799991Y-37600500D01*
X133000008Y-37600499D01*
X133102797Y-37589999D01*
X133269334Y-37534814D01*
X133418656Y-37442712D01*
X133542712Y-37318656D01*
X133602852Y-37221153D01*
X168899500Y-37221153D01*
X168899500Y-37378846D01*
X168930261Y-37533489D01*
X168930264Y-37533501D01*
X168990602Y-37679172D01*
X168990609Y-37679185D01*
X169078210Y-37810288D01*
X169078213Y-37810292D01*
X169189707Y-37921786D01*
X169189711Y-37921789D01*
X169320814Y-38009390D01*
X169320827Y-38009397D01*
X169466498Y-38069735D01*
X169466503Y-38069737D01*
X169621153Y-38100499D01*
X169621156Y-38100500D01*
X169621158Y-38100500D01*
X169778844Y-38100500D01*
X169778845Y-38100499D01*
X169933497Y-38069737D01*
X170079179Y-38009394D01*
X170210289Y-37921789D01*
X170321789Y-37810289D01*
X170409394Y-37679179D01*
X170469737Y-37533497D01*
X170500500Y-37378842D01*
X170500500Y-37221158D01*
X170500500Y-37221155D01*
X170500499Y-37221153D01*
X181899500Y-37221153D01*
X181899500Y-37378846D01*
X181930261Y-37533489D01*
X181930264Y-37533501D01*
X181990602Y-37679172D01*
X181990609Y-37679185D01*
X182078210Y-37810288D01*
X182078213Y-37810292D01*
X182189707Y-37921786D01*
X182189711Y-37921789D01*
X182320814Y-38009390D01*
X182320827Y-38009397D01*
X182466498Y-38069735D01*
X182466503Y-38069737D01*
X182621153Y-38100499D01*
X182621156Y-38100500D01*
X182621158Y-38100500D01*
X182778844Y-38100500D01*
X182778845Y-38100499D01*
X182933497Y-38069737D01*
X183079179Y-38009394D01*
X183210289Y-37921789D01*
X183321789Y-37810289D01*
X183409394Y-37679179D01*
X183469737Y-37533497D01*
X183500500Y-37378842D01*
X183500500Y-37221158D01*
X183500500Y-37221155D01*
X183500499Y-37221153D01*
X183469738Y-37066510D01*
X183469737Y-37066503D01*
X183443350Y-37002799D01*
X183409397Y-36920827D01*
X183409390Y-36920814D01*
X183321789Y-36789711D01*
X183321786Y-36789707D01*
X183210292Y-36678213D01*
X183210288Y-36678210D01*
X183079185Y-36590609D01*
X183079172Y-36590602D01*
X182933501Y-36530264D01*
X182933489Y-36530261D01*
X182778845Y-36499500D01*
X182778842Y-36499500D01*
X182621158Y-36499500D01*
X182621155Y-36499500D01*
X182466510Y-36530261D01*
X182466498Y-36530264D01*
X182320827Y-36590602D01*
X182320814Y-36590609D01*
X182189711Y-36678210D01*
X182189707Y-36678213D01*
X182078213Y-36789707D01*
X182078210Y-36789711D01*
X181990609Y-36920814D01*
X181990602Y-36920827D01*
X181930264Y-37066498D01*
X181930261Y-37066510D01*
X181899500Y-37221153D01*
X170500499Y-37221153D01*
X170469738Y-37066510D01*
X170469737Y-37066503D01*
X170443350Y-37002799D01*
X170409397Y-36920827D01*
X170409390Y-36920814D01*
X170321789Y-36789711D01*
X170321786Y-36789707D01*
X170210292Y-36678213D01*
X170210288Y-36678210D01*
X170079185Y-36590609D01*
X170079172Y-36590602D01*
X169933501Y-36530264D01*
X169933489Y-36530261D01*
X169778845Y-36499500D01*
X169778842Y-36499500D01*
X169621158Y-36499500D01*
X169621155Y-36499500D01*
X169466510Y-36530261D01*
X169466498Y-36530264D01*
X169320827Y-36590602D01*
X169320814Y-36590609D01*
X169189711Y-36678210D01*
X169189707Y-36678213D01*
X169078213Y-36789707D01*
X169078210Y-36789711D01*
X168990609Y-36920814D01*
X168990602Y-36920827D01*
X168930264Y-37066498D01*
X168930261Y-37066510D01*
X168899500Y-37221153D01*
X133602852Y-37221153D01*
X133634814Y-37169334D01*
X133689999Y-37002797D01*
X133700500Y-36900009D01*
X133700499Y-36121153D01*
X176799500Y-36121153D01*
X176799500Y-36278846D01*
X176830261Y-36433489D01*
X176830264Y-36433501D01*
X176890602Y-36579172D01*
X176890609Y-36579185D01*
X176978210Y-36710288D01*
X176978213Y-36710292D01*
X177089707Y-36821786D01*
X177089711Y-36821789D01*
X177220814Y-36909390D01*
X177220827Y-36909397D01*
X177366498Y-36969735D01*
X177366503Y-36969737D01*
X177521153Y-37000499D01*
X177521156Y-37000500D01*
X177521158Y-37000500D01*
X177678844Y-37000500D01*
X177678845Y-37000499D01*
X177833497Y-36969737D01*
X177951592Y-36920821D01*
X177979172Y-36909397D01*
X177979172Y-36909396D01*
X177979179Y-36909394D01*
X178081111Y-36841284D01*
X178147786Y-36820408D01*
X178215166Y-36838892D01*
X178218847Y-36841257D01*
X178320821Y-36909394D01*
X178320823Y-36909395D01*
X178320827Y-36909397D01*
X178466498Y-36969735D01*
X178466503Y-36969737D01*
X178621153Y-37000499D01*
X178621156Y-37000500D01*
X178621158Y-37000500D01*
X178778844Y-37000500D01*
X178778845Y-37000499D01*
X178933497Y-36969737D01*
X179051592Y-36920821D01*
X179079172Y-36909397D01*
X179079172Y-36909396D01*
X179079179Y-36909394D01*
X179210289Y-36821789D01*
X179321789Y-36710289D01*
X179409394Y-36579179D01*
X179469737Y-36433497D01*
X179500500Y-36278842D01*
X179500500Y-36121158D01*
X179500500Y-36121155D01*
X179500499Y-36121153D01*
X179469738Y-35966510D01*
X179469737Y-35966503D01*
X179469735Y-35966498D01*
X179409397Y-35820827D01*
X179409390Y-35820814D01*
X179321789Y-35689711D01*
X179321786Y-35689707D01*
X179210292Y-35578213D01*
X179210288Y-35578210D01*
X179079185Y-35490609D01*
X179079172Y-35490602D01*
X178933501Y-35430264D01*
X178933489Y-35430261D01*
X178778845Y-35399500D01*
X178778842Y-35399500D01*
X178724500Y-35399500D01*
X178657461Y-35379815D01*
X178611706Y-35327011D01*
X178600500Y-35275500D01*
X178600500Y-35221155D01*
X178600499Y-35221153D01*
X178572689Y-35081344D01*
X178569737Y-35066503D01*
X178546080Y-35009390D01*
X178509397Y-34920827D01*
X178509390Y-34920814D01*
X178421789Y-34789711D01*
X178421786Y-34789707D01*
X178310292Y-34678213D01*
X178310288Y-34678210D01*
X178179185Y-34590609D01*
X178179172Y-34590602D01*
X178033501Y-34530264D01*
X178033489Y-34530261D01*
X177878845Y-34499500D01*
X177878842Y-34499500D01*
X177721158Y-34499500D01*
X177721155Y-34499500D01*
X177566510Y-34530261D01*
X177566498Y-34530264D01*
X177420827Y-34590602D01*
X177420814Y-34590609D01*
X177289711Y-34678210D01*
X177289707Y-34678213D01*
X177178213Y-34789707D01*
X177178210Y-34789711D01*
X177090609Y-34920814D01*
X177090602Y-34920827D01*
X177030264Y-35066498D01*
X177030261Y-35066510D01*
X176999500Y-35221153D01*
X176999500Y-35378846D01*
X177030261Y-35533489D01*
X177032031Y-35539324D01*
X177030066Y-35539920D01*
X177036532Y-35600073D01*
X177005257Y-35662552D01*
X177002187Y-35665733D01*
X176978213Y-35689708D01*
X176978208Y-35689714D01*
X176890609Y-35820814D01*
X176890602Y-35820827D01*
X176830264Y-35966498D01*
X176830261Y-35966510D01*
X176799500Y-36121153D01*
X133700499Y-36121153D01*
X133700499Y-35499992D01*
X133689999Y-35397203D01*
X133634814Y-35230666D01*
X133542712Y-35081344D01*
X133418656Y-34957288D01*
X133269334Y-34865186D01*
X133102797Y-34810001D01*
X133102795Y-34810000D01*
X133000010Y-34799500D01*
X129799998Y-34799500D01*
X129799981Y-34799501D01*
X129697203Y-34810000D01*
X129697200Y-34810001D01*
X129530668Y-34865185D01*
X129530663Y-34865187D01*
X129381342Y-34957289D01*
X129257289Y-35081342D01*
X129165187Y-35230663D01*
X129165185Y-35230668D01*
X129150329Y-35275500D01*
X129110001Y-35397203D01*
X129110001Y-35397204D01*
X129110000Y-35397204D01*
X129099500Y-35499983D01*
X126800000Y-35499983D01*
X126800000Y-32321153D01*
X139499500Y-32321153D01*
X139499500Y-32478846D01*
X139530260Y-32633488D01*
X139530262Y-32633493D01*
X139530263Y-32633497D01*
X139538155Y-32652550D01*
X139545623Y-32722018D01*
X139538156Y-32747446D01*
X139530263Y-32766503D01*
X139530262Y-32766506D01*
X139530260Y-32766511D01*
X139499500Y-32921153D01*
X139499500Y-33078846D01*
X139530260Y-33233488D01*
X139530262Y-33233493D01*
X139530263Y-33233497D01*
X139549185Y-33279179D01*
X139558865Y-33302549D01*
X139566333Y-33372018D01*
X139558865Y-33397447D01*
X139530263Y-33466503D01*
X139530262Y-33466506D01*
X139530260Y-33466511D01*
X139499500Y-33621153D01*
X139499500Y-33778846D01*
X139530260Y-33933488D01*
X139530262Y-33933493D01*
X139530263Y-33933497D01*
X139538155Y-33952550D01*
X139545623Y-34022018D01*
X139538156Y-34047446D01*
X139530263Y-34066503D01*
X139530262Y-34066506D01*
X139530260Y-34066511D01*
X139499500Y-34221153D01*
X139499500Y-34378846D01*
X139530261Y-34533489D01*
X139530264Y-34533501D01*
X139590602Y-34679172D01*
X139590609Y-34679185D01*
X139678210Y-34810288D01*
X139678213Y-34810292D01*
X139789707Y-34921786D01*
X139789711Y-34921789D01*
X139920814Y-35009390D01*
X139920827Y-35009397D01*
X140058683Y-35066498D01*
X140066503Y-35069737D01*
X140221153Y-35100499D01*
X140221156Y-35100500D01*
X140221158Y-35100500D01*
X140378844Y-35100500D01*
X140378845Y-35100499D01*
X140533497Y-35069737D01*
X140679179Y-35009394D01*
X140810289Y-34921789D01*
X140921789Y-34810289D01*
X141009394Y-34679179D01*
X141069737Y-34533497D01*
X141100500Y-34378842D01*
X141100500Y-34221158D01*
X141100500Y-34221155D01*
X141100499Y-34221153D01*
X141085585Y-34146175D01*
X141069737Y-34066503D01*
X141061845Y-34047452D01*
X141054377Y-33977984D01*
X141061846Y-33952547D01*
X141069737Y-33933497D01*
X141100500Y-33778842D01*
X141100500Y-33621158D01*
X141100500Y-33621155D01*
X141100499Y-33621153D01*
X141082419Y-33530261D01*
X141069737Y-33466503D01*
X141041134Y-33397450D01*
X141033666Y-33327984D01*
X141041133Y-33302552D01*
X141069737Y-33233497D01*
X141100500Y-33078842D01*
X141100500Y-32921158D01*
X141100500Y-32921155D01*
X141084863Y-32842548D01*
X141080607Y-32821153D01*
X147699500Y-32821153D01*
X147699500Y-32978846D01*
X147730261Y-33133489D01*
X147730264Y-33133501D01*
X147779574Y-33252548D01*
X147787043Y-33322018D01*
X147779574Y-33347452D01*
X147730264Y-33466498D01*
X147730261Y-33466510D01*
X147699500Y-33621153D01*
X147699500Y-33778846D01*
X147730261Y-33933489D01*
X147730264Y-33933501D01*
X147790602Y-34079172D01*
X147790609Y-34079185D01*
X147878210Y-34210288D01*
X147878213Y-34210292D01*
X147989707Y-34321786D01*
X147989711Y-34321789D01*
X148120814Y-34409390D01*
X148120827Y-34409397D01*
X148266498Y-34469735D01*
X148266503Y-34469737D01*
X148416131Y-34499500D01*
X148421153Y-34500499D01*
X148421156Y-34500500D01*
X148421158Y-34500500D01*
X148578844Y-34500500D01*
X148578845Y-34500499D01*
X148733497Y-34469737D01*
X148852548Y-34420425D01*
X148922017Y-34412956D01*
X148947453Y-34420425D01*
X149066503Y-34469737D01*
X149216131Y-34499500D01*
X149221153Y-34500499D01*
X149221156Y-34500500D01*
X149221158Y-34500500D01*
X149378844Y-34500500D01*
X149378845Y-34500499D01*
X149533497Y-34469737D01*
X149679179Y-34409394D01*
X149810289Y-34321789D01*
X149910925Y-34221153D01*
X181899500Y-34221153D01*
X181899500Y-34378846D01*
X181930261Y-34533489D01*
X181930264Y-34533501D01*
X181990602Y-34679172D01*
X181990609Y-34679185D01*
X182078210Y-34810288D01*
X182078213Y-34810292D01*
X182189707Y-34921786D01*
X182189711Y-34921789D01*
X182320814Y-35009390D01*
X182320827Y-35009397D01*
X182458683Y-35066498D01*
X182466503Y-35069737D01*
X182621153Y-35100499D01*
X182621156Y-35100500D01*
X182621158Y-35100500D01*
X182778844Y-35100500D01*
X182778845Y-35100499D01*
X182933497Y-35069737D01*
X183079179Y-35009394D01*
X183210289Y-34921789D01*
X183210925Y-34921153D01*
X190999500Y-34921153D01*
X190999500Y-35078846D01*
X191030261Y-35233489D01*
X191030264Y-35233501D01*
X191090602Y-35379172D01*
X191090609Y-35379185D01*
X191178210Y-35510288D01*
X191178213Y-35510292D01*
X191289707Y-35621786D01*
X191289711Y-35621789D01*
X191420814Y-35709390D01*
X191420827Y-35709397D01*
X191566498Y-35769735D01*
X191566503Y-35769737D01*
X191721153Y-35800499D01*
X191721156Y-35800500D01*
X191721158Y-35800500D01*
X191878844Y-35800500D01*
X191878845Y-35800499D01*
X192033497Y-35769737D01*
X192179179Y-35709394D01*
X192310289Y-35621789D01*
X192421789Y-35510289D01*
X192509394Y-35379179D01*
X192569737Y-35233497D01*
X192600500Y-35078842D01*
X192600500Y-34921158D01*
X192600500Y-34921155D01*
X192600499Y-34921153D01*
X192600432Y-34920814D01*
X192569737Y-34766503D01*
X192533569Y-34679185D01*
X192509397Y-34620827D01*
X192509390Y-34620814D01*
X192421789Y-34489711D01*
X192421786Y-34489707D01*
X192310292Y-34378213D01*
X192310288Y-34378210D01*
X192179185Y-34290609D01*
X192179172Y-34290602D01*
X192033501Y-34230264D01*
X192033489Y-34230261D01*
X191878845Y-34199500D01*
X191878842Y-34199500D01*
X191721158Y-34199500D01*
X191721155Y-34199500D01*
X191566510Y-34230261D01*
X191566498Y-34230264D01*
X191420827Y-34290602D01*
X191420814Y-34290609D01*
X191289711Y-34378210D01*
X191289707Y-34378213D01*
X191178213Y-34489707D01*
X191178210Y-34489711D01*
X191090609Y-34620814D01*
X191090602Y-34620827D01*
X191030264Y-34766498D01*
X191030261Y-34766510D01*
X190999500Y-34921153D01*
X183210925Y-34921153D01*
X183211264Y-34920814D01*
X183304694Y-34827385D01*
X183321786Y-34810292D01*
X183321789Y-34810289D01*
X183409394Y-34679179D01*
X183469737Y-34533497D01*
X183500500Y-34378842D01*
X183500500Y-34221158D01*
X183500500Y-34221155D01*
X183500499Y-34221153D01*
X183485585Y-34146175D01*
X183469737Y-34066503D01*
X183461846Y-34047453D01*
X183409397Y-33920827D01*
X183409390Y-33920814D01*
X183321789Y-33789711D01*
X183321786Y-33789707D01*
X183210292Y-33678213D01*
X183210288Y-33678210D01*
X183079185Y-33590609D01*
X183079172Y-33590602D01*
X182933501Y-33530264D01*
X182933489Y-33530261D01*
X182778845Y-33499500D01*
X182778842Y-33499500D01*
X182621158Y-33499500D01*
X182621155Y-33499500D01*
X182466510Y-33530261D01*
X182466498Y-33530264D01*
X182320827Y-33590602D01*
X182320814Y-33590609D01*
X182189711Y-33678210D01*
X182189707Y-33678213D01*
X182078213Y-33789707D01*
X182078210Y-33789711D01*
X181990609Y-33920814D01*
X181990602Y-33920827D01*
X181930264Y-34066498D01*
X181930261Y-34066510D01*
X181899500Y-34221153D01*
X149910925Y-34221153D01*
X149921789Y-34210289D01*
X150009394Y-34079179D01*
X150069737Y-33933497D01*
X150100500Y-33778842D01*
X150100500Y-33621158D01*
X150100500Y-33621155D01*
X150100499Y-33621153D01*
X150082419Y-33530261D01*
X150069737Y-33466503D01*
X150020425Y-33347452D01*
X150012956Y-33277983D01*
X150020425Y-33252548D01*
X150069735Y-33133501D01*
X150069737Y-33133497D01*
X150100500Y-32978842D01*
X150100500Y-32821158D01*
X150100500Y-32821155D01*
X150100499Y-32821153D01*
X150089628Y-32766503D01*
X150069737Y-32666503D01*
X150056062Y-32633488D01*
X150009397Y-32520827D01*
X150009390Y-32520814D01*
X149921789Y-32389711D01*
X149921786Y-32389707D01*
X149810292Y-32278213D01*
X149810288Y-32278210D01*
X149679185Y-32190609D01*
X149679172Y-32190602D01*
X149533501Y-32130264D01*
X149533489Y-32130261D01*
X149378845Y-32099500D01*
X149378842Y-32099500D01*
X149221158Y-32099500D01*
X149221155Y-32099500D01*
X149066510Y-32130261D01*
X149066498Y-32130264D01*
X148947452Y-32179574D01*
X148877982Y-32187043D01*
X148852548Y-32179574D01*
X148733501Y-32130264D01*
X148733489Y-32130261D01*
X148578845Y-32099500D01*
X148578842Y-32099500D01*
X148421158Y-32099500D01*
X148421155Y-32099500D01*
X148266510Y-32130261D01*
X148266498Y-32130264D01*
X148120827Y-32190602D01*
X148120814Y-32190609D01*
X147989711Y-32278210D01*
X147989707Y-32278213D01*
X147878213Y-32389707D01*
X147878210Y-32389711D01*
X147790609Y-32520814D01*
X147790602Y-32520827D01*
X147730264Y-32666498D01*
X147730261Y-32666510D01*
X147699500Y-32821153D01*
X141080607Y-32821153D01*
X141069737Y-32766503D01*
X141058461Y-32739280D01*
X141056271Y-32730715D01*
X141057204Y-32704282D01*
X141054377Y-32677984D01*
X141058646Y-32663442D01*
X141058737Y-32660889D01*
X141059880Y-32659240D01*
X141061846Y-32652547D01*
X141069737Y-32633497D01*
X141100500Y-32478842D01*
X141100500Y-32321158D01*
X141100500Y-32321155D01*
X141100499Y-32321153D01*
X141091957Y-32278210D01*
X141069737Y-32166503D01*
X141069735Y-32166498D01*
X141009397Y-32020827D01*
X141009390Y-32020814D01*
X140921789Y-31889711D01*
X140921786Y-31889707D01*
X140810292Y-31778213D01*
X140810288Y-31778210D01*
X140679185Y-31690609D01*
X140679172Y-31690602D01*
X140533501Y-31630264D01*
X140533489Y-31630261D01*
X140378845Y-31599500D01*
X140378842Y-31599500D01*
X140221158Y-31599500D01*
X140221155Y-31599500D01*
X140066510Y-31630261D01*
X140066498Y-31630264D01*
X139920827Y-31690602D01*
X139920814Y-31690609D01*
X139789711Y-31778210D01*
X139789707Y-31778213D01*
X139678213Y-31889707D01*
X139678210Y-31889711D01*
X139590609Y-32020814D01*
X139590602Y-32020827D01*
X139530264Y-32166498D01*
X139530261Y-32166510D01*
X139499500Y-32321153D01*
X126800000Y-32321153D01*
X126800000Y-21488549D01*
X128899500Y-21488549D01*
X128899500Y-21711450D01*
X128899501Y-21711466D01*
X128928594Y-21932452D01*
X128928595Y-21932457D01*
X128928596Y-21932463D01*
X128986290Y-22147780D01*
X128986293Y-22147790D01*
X129053604Y-22310292D01*
X129071595Y-22353726D01*
X129183052Y-22546774D01*
X129183057Y-22546780D01*
X129183058Y-22546782D01*
X129318751Y-22723622D01*
X129318757Y-22723629D01*
X129476370Y-22881242D01*
X129476377Y-22881248D01*
X129602294Y-22977867D01*
X129653226Y-23016948D01*
X129846274Y-23128405D01*
X130052219Y-23213710D01*
X130267537Y-23271404D01*
X130488543Y-23300500D01*
X130488550Y-23300500D01*
X130711450Y-23300500D01*
X130711457Y-23300500D01*
X130932463Y-23271404D01*
X131147781Y-23213710D01*
X131353726Y-23128405D01*
X131546774Y-23016948D01*
X131723624Y-22881247D01*
X131881247Y-22723624D01*
X132016948Y-22546774D01*
X132128405Y-22353726D01*
X132213710Y-22147781D01*
X132271404Y-21932463D01*
X132299223Y-21721153D01*
X136399500Y-21721153D01*
X136399500Y-21878846D01*
X136430261Y-22033489D01*
X136430264Y-22033501D01*
X136490602Y-22179172D01*
X136490609Y-22179185D01*
X136578210Y-22310288D01*
X136578213Y-22310292D01*
X136689707Y-22421786D01*
X136689711Y-22421789D01*
X136820814Y-22509390D01*
X136820827Y-22509397D01*
X136911084Y-22546782D01*
X136966503Y-22569737D01*
X137121153Y-22600499D01*
X137121156Y-22600500D01*
X137121158Y-22600500D01*
X137278844Y-22600500D01*
X137278845Y-22600499D01*
X137433497Y-22569737D01*
X137579179Y-22509394D01*
X137710289Y-22421789D01*
X137821789Y-22310289D01*
X137909394Y-22179179D01*
X137969737Y-22033497D01*
X138000500Y-21878842D01*
X138000500Y-21721158D01*
X138000500Y-21721155D01*
X138000499Y-21721153D01*
X137976346Y-21599730D01*
X137969737Y-21566503D01*
X137934619Y-21481719D01*
X137909397Y-21420827D01*
X137909390Y-21420814D01*
X137821789Y-21289711D01*
X137821786Y-21289707D01*
X137710292Y-21178213D01*
X137710288Y-21178210D01*
X137579185Y-21090609D01*
X137579172Y-21090602D01*
X137433501Y-21030264D01*
X137433489Y-21030261D01*
X137278845Y-20999500D01*
X137278842Y-20999500D01*
X137121158Y-20999500D01*
X137121155Y-20999500D01*
X136966510Y-21030261D01*
X136966498Y-21030264D01*
X136820827Y-21090602D01*
X136820814Y-21090609D01*
X136689711Y-21178210D01*
X136689707Y-21178213D01*
X136578213Y-21289707D01*
X136578210Y-21289711D01*
X136490609Y-21420814D01*
X136490602Y-21420827D01*
X136430264Y-21566498D01*
X136430261Y-21566510D01*
X136399500Y-21721153D01*
X132299223Y-21721153D01*
X132300500Y-21711457D01*
X132300500Y-21488543D01*
X132271404Y-21267537D01*
X132213710Y-21052219D01*
X132128405Y-20846274D01*
X132016948Y-20653226D01*
X131992338Y-20621153D01*
X154999500Y-20621153D01*
X154999500Y-20778846D01*
X155030261Y-20933489D01*
X155030264Y-20933501D01*
X155079574Y-21052548D01*
X155087043Y-21122018D01*
X155079574Y-21147452D01*
X155030264Y-21266498D01*
X155030261Y-21266510D01*
X154999500Y-21421153D01*
X154999500Y-21578846D01*
X155030261Y-21733489D01*
X155030264Y-21733501D01*
X155090602Y-21879172D01*
X155090609Y-21879185D01*
X155178210Y-22010288D01*
X155178213Y-22010292D01*
X155289707Y-22121786D01*
X155289711Y-22121789D01*
X155420814Y-22209390D01*
X155420827Y-22209397D01*
X155509865Y-22246277D01*
X155566503Y-22269737D01*
X155721153Y-22300499D01*
X155721156Y-22300500D01*
X155721158Y-22300500D01*
X155878844Y-22300500D01*
X155878845Y-22300499D01*
X156033497Y-22269737D01*
X156179179Y-22209394D01*
X156310289Y-22121789D01*
X156421789Y-22010289D01*
X156428675Y-21999983D01*
X165459500Y-21999983D01*
X165459500Y-24200001D01*
X165459501Y-24200018D01*
X165470000Y-24302796D01*
X165470001Y-24302799D01*
X165507827Y-24416948D01*
X165525186Y-24469334D01*
X165617288Y-24618656D01*
X165741344Y-24742712D01*
X165890666Y-24834814D01*
X166057203Y-24889999D01*
X166159991Y-24900500D01*
X168360008Y-24900499D01*
X168462797Y-24889999D01*
X168629334Y-24834814D01*
X168778656Y-24742712D01*
X168902712Y-24618656D01*
X168994814Y-24469334D01*
X169049999Y-24302797D01*
X169060500Y-24200009D01*
X169060499Y-22981995D01*
X170539500Y-22981995D01*
X170539500Y-23218004D01*
X170539501Y-23218020D01*
X170570306Y-23452010D01*
X170631394Y-23679993D01*
X170721714Y-23898045D01*
X170721719Y-23898056D01*
X170792677Y-24020957D01*
X170839727Y-24102450D01*
X170839729Y-24102453D01*
X170839730Y-24102454D01*
X170983406Y-24289697D01*
X170983412Y-24289704D01*
X171150295Y-24456587D01*
X171150302Y-24456593D01*
X171166909Y-24469336D01*
X171337550Y-24600273D01*
X171460754Y-24671405D01*
X171541943Y-24718280D01*
X171541948Y-24718282D01*
X171541951Y-24718284D01*
X171760007Y-24808606D01*
X171987986Y-24869693D01*
X172221989Y-24900500D01*
X172221996Y-24900500D01*
X172458004Y-24900500D01*
X172458011Y-24900500D01*
X172692014Y-24869693D01*
X172919993Y-24808606D01*
X173138049Y-24718284D01*
X173342450Y-24600273D01*
X173529699Y-24456592D01*
X173696592Y-24289699D01*
X173840273Y-24102450D01*
X173958284Y-23898049D01*
X174048606Y-23679993D01*
X174109693Y-23452014D01*
X174140500Y-23218011D01*
X174140500Y-22981995D01*
X175619500Y-22981995D01*
X175619500Y-23218004D01*
X175619501Y-23218020D01*
X175650306Y-23452010D01*
X175711394Y-23679993D01*
X175801714Y-23898045D01*
X175801719Y-23898056D01*
X175872677Y-24020957D01*
X175919727Y-24102450D01*
X175919729Y-24102453D01*
X175919730Y-24102454D01*
X176063406Y-24289697D01*
X176063412Y-24289704D01*
X176230295Y-24456587D01*
X176230302Y-24456593D01*
X176246909Y-24469336D01*
X176417550Y-24600273D01*
X176540754Y-24671405D01*
X176621943Y-24718280D01*
X176621948Y-24718282D01*
X176621951Y-24718284D01*
X176840007Y-24808606D01*
X177067986Y-24869693D01*
X177301989Y-24900500D01*
X177301996Y-24900500D01*
X177538004Y-24900500D01*
X177538011Y-24900500D01*
X177772014Y-24869693D01*
X177999993Y-24808606D01*
X178218049Y-24718284D01*
X178422450Y-24600273D01*
X178609699Y-24456592D01*
X178776592Y-24289699D01*
X178920273Y-24102450D01*
X179038284Y-23898049D01*
X179128606Y-23679993D01*
X179189693Y-23452014D01*
X179220500Y-23218011D01*
X179220500Y-22981989D01*
X179189693Y-22747986D01*
X179128606Y-22520007D01*
X179038284Y-22301951D01*
X179038282Y-22301948D01*
X179038280Y-22301943D01*
X178967405Y-22179185D01*
X178920273Y-22097550D01*
X178871127Y-22033501D01*
X178845408Y-21999983D01*
X192539500Y-21999983D01*
X192539500Y-24200001D01*
X192539501Y-24200018D01*
X192550000Y-24302796D01*
X192550001Y-24302799D01*
X192587827Y-24416948D01*
X192605186Y-24469334D01*
X192697288Y-24618656D01*
X192821344Y-24742712D01*
X192970666Y-24834814D01*
X193137203Y-24889999D01*
X193239991Y-24900500D01*
X195440008Y-24900499D01*
X195542797Y-24889999D01*
X195709334Y-24834814D01*
X195858656Y-24742712D01*
X195982712Y-24618656D01*
X196074814Y-24469334D01*
X196129999Y-24302797D01*
X196140500Y-24200009D01*
X196140499Y-22981995D01*
X197619500Y-22981995D01*
X197619500Y-23218004D01*
X197619501Y-23218020D01*
X197650306Y-23452010D01*
X197711394Y-23679993D01*
X197801714Y-23898045D01*
X197801719Y-23898056D01*
X197872677Y-24020957D01*
X197919727Y-24102450D01*
X197919729Y-24102453D01*
X197919730Y-24102454D01*
X198063406Y-24289697D01*
X198063412Y-24289704D01*
X198230295Y-24456587D01*
X198230302Y-24456593D01*
X198246909Y-24469336D01*
X198417550Y-24600273D01*
X198540754Y-24671405D01*
X198621943Y-24718280D01*
X198621948Y-24718282D01*
X198621951Y-24718284D01*
X198840007Y-24808606D01*
X199067986Y-24869693D01*
X199301989Y-24900500D01*
X199301996Y-24900500D01*
X199538004Y-24900500D01*
X199538011Y-24900500D01*
X199772014Y-24869693D01*
X199999993Y-24808606D01*
X200218049Y-24718284D01*
X200422450Y-24600273D01*
X200609699Y-24456592D01*
X200776592Y-24289699D01*
X200920273Y-24102450D01*
X201038284Y-23898049D01*
X201128606Y-23679993D01*
X201189693Y-23452014D01*
X201220500Y-23218011D01*
X201220500Y-22981989D01*
X201208198Y-22888549D01*
X213299500Y-22888549D01*
X213299500Y-23111450D01*
X213299501Y-23111466D01*
X213328594Y-23332452D01*
X213328595Y-23332457D01*
X213328596Y-23332463D01*
X213386290Y-23547780D01*
X213386293Y-23547790D01*
X213471593Y-23753722D01*
X213471595Y-23753726D01*
X213583052Y-23946774D01*
X213583057Y-23946780D01*
X213583058Y-23946782D01*
X213718751Y-24123622D01*
X213718757Y-24123629D01*
X213876370Y-24281242D01*
X213876377Y-24281248D01*
X213904463Y-24302799D01*
X214053226Y-24416948D01*
X214246274Y-24528405D01*
X214452219Y-24613710D01*
X214667537Y-24671404D01*
X214888543Y-24700500D01*
X214888550Y-24700500D01*
X215111450Y-24700500D01*
X215111457Y-24700500D01*
X215332463Y-24671404D01*
X215547781Y-24613710D01*
X215753726Y-24528405D01*
X215946774Y-24416948D01*
X216123624Y-24281247D01*
X216281247Y-24123624D01*
X216416948Y-23946774D01*
X216528405Y-23753726D01*
X216613710Y-23547781D01*
X216671404Y-23332463D01*
X216700500Y-23111457D01*
X216700500Y-22888543D01*
X216671404Y-22667537D01*
X216613710Y-22452219D01*
X216528405Y-22246274D01*
X216416948Y-22053226D01*
X216324284Y-21932463D01*
X216281248Y-21876377D01*
X216281242Y-21876370D01*
X216123629Y-21718757D01*
X216123622Y-21718751D01*
X215946782Y-21583058D01*
X215946780Y-21583057D01*
X215946774Y-21583052D01*
X215753726Y-21471595D01*
X215753722Y-21471593D01*
X215547790Y-21386293D01*
X215547783Y-21386291D01*
X215547781Y-21386290D01*
X215332463Y-21328596D01*
X215332457Y-21328595D01*
X215332452Y-21328594D01*
X215111466Y-21299501D01*
X215111463Y-21299500D01*
X215111457Y-21299500D01*
X214888543Y-21299500D01*
X214888537Y-21299500D01*
X214888533Y-21299501D01*
X214667547Y-21328594D01*
X214667540Y-21328595D01*
X214667537Y-21328596D01*
X214530981Y-21365186D01*
X214452219Y-21386290D01*
X214452209Y-21386293D01*
X214246277Y-21471593D01*
X214246273Y-21471595D01*
X214053226Y-21583052D01*
X214053217Y-21583058D01*
X213876377Y-21718751D01*
X213876370Y-21718757D01*
X213718757Y-21876370D01*
X213718751Y-21876377D01*
X213583058Y-22053217D01*
X213583052Y-22053226D01*
X213471595Y-22246273D01*
X213471593Y-22246277D01*
X213386293Y-22452209D01*
X213386290Y-22452219D01*
X213346559Y-22600500D01*
X213328597Y-22667534D01*
X213328594Y-22667547D01*
X213299501Y-22888533D01*
X213299500Y-22888549D01*
X201208198Y-22888549D01*
X201189693Y-22747986D01*
X201128606Y-22520007D01*
X201038284Y-22301951D01*
X201038282Y-22301948D01*
X201038280Y-22301943D01*
X200967405Y-22179185D01*
X200920273Y-22097550D01*
X200793599Y-21932465D01*
X200776593Y-21910302D01*
X200776587Y-21910295D01*
X200609704Y-21743412D01*
X200609697Y-21743406D01*
X200422454Y-21599730D01*
X200422453Y-21599729D01*
X200422450Y-21599727D01*
X200340957Y-21552677D01*
X200218056Y-21481719D01*
X200218045Y-21481714D01*
X199999993Y-21391394D01*
X199772010Y-21330306D01*
X199538020Y-21299501D01*
X199538017Y-21299500D01*
X199538011Y-21299500D01*
X199301989Y-21299500D01*
X199301983Y-21299500D01*
X199301979Y-21299501D01*
X199067989Y-21330306D01*
X198840006Y-21391394D01*
X198621954Y-21481714D01*
X198621943Y-21481719D01*
X198417545Y-21599730D01*
X198230302Y-21743406D01*
X198230295Y-21743412D01*
X198063412Y-21910295D01*
X198063406Y-21910302D01*
X197919730Y-22097545D01*
X197801719Y-22301943D01*
X197801714Y-22301954D01*
X197711394Y-22520006D01*
X197650306Y-22747989D01*
X197619501Y-22981979D01*
X197619500Y-22981995D01*
X196140499Y-22981995D01*
X196140499Y-21999992D01*
X196129999Y-21897203D01*
X196074814Y-21730666D01*
X195982712Y-21581344D01*
X195858656Y-21457288D01*
X195709334Y-21365186D01*
X195542797Y-21310001D01*
X195542795Y-21310000D01*
X195440010Y-21299500D01*
X193239998Y-21299500D01*
X193239981Y-21299501D01*
X193137203Y-21310000D01*
X193137200Y-21310001D01*
X192970668Y-21365185D01*
X192970663Y-21365187D01*
X192821342Y-21457289D01*
X192697289Y-21581342D01*
X192605187Y-21730663D01*
X192605185Y-21730668D01*
X192600962Y-21743412D01*
X192550001Y-21897203D01*
X192550001Y-21897204D01*
X192550000Y-21897204D01*
X192539500Y-21999983D01*
X178845408Y-21999983D01*
X178776593Y-21910302D01*
X178776587Y-21910295D01*
X178609704Y-21743412D01*
X178609697Y-21743406D01*
X178422454Y-21599730D01*
X178422453Y-21599729D01*
X178422450Y-21599727D01*
X178340957Y-21552677D01*
X178218056Y-21481719D01*
X178218045Y-21481714D01*
X177999993Y-21391394D01*
X177772010Y-21330306D01*
X177538020Y-21299501D01*
X177538017Y-21299500D01*
X177538011Y-21299500D01*
X177301989Y-21299500D01*
X177301983Y-21299500D01*
X177301979Y-21299501D01*
X177067989Y-21330306D01*
X176840006Y-21391394D01*
X176621954Y-21481714D01*
X176621943Y-21481719D01*
X176417545Y-21599730D01*
X176230302Y-21743406D01*
X176230295Y-21743412D01*
X176063412Y-21910295D01*
X176063406Y-21910302D01*
X175919730Y-22097545D01*
X175801719Y-22301943D01*
X175801714Y-22301954D01*
X175711394Y-22520006D01*
X175650306Y-22747989D01*
X175619501Y-22981979D01*
X175619500Y-22981995D01*
X174140500Y-22981995D01*
X174140500Y-22981989D01*
X174109693Y-22747986D01*
X174048606Y-22520007D01*
X173958284Y-22301951D01*
X173958282Y-22301948D01*
X173958280Y-22301943D01*
X173887405Y-22179185D01*
X173840273Y-22097550D01*
X173713599Y-21932465D01*
X173696593Y-21910302D01*
X173696587Y-21910295D01*
X173529704Y-21743412D01*
X173529697Y-21743406D01*
X173342454Y-21599730D01*
X173342453Y-21599729D01*
X173342450Y-21599727D01*
X173260957Y-21552677D01*
X173138056Y-21481719D01*
X173138045Y-21481714D01*
X172919993Y-21391394D01*
X172692010Y-21330306D01*
X172458020Y-21299501D01*
X172458017Y-21299500D01*
X172458011Y-21299500D01*
X172221989Y-21299500D01*
X172221983Y-21299500D01*
X172221979Y-21299501D01*
X171987989Y-21330306D01*
X171760006Y-21391394D01*
X171541954Y-21481714D01*
X171541943Y-21481719D01*
X171337545Y-21599730D01*
X171150302Y-21743406D01*
X171150295Y-21743412D01*
X170983412Y-21910295D01*
X170983406Y-21910302D01*
X170839730Y-22097545D01*
X170721719Y-22301943D01*
X170721714Y-22301954D01*
X170631394Y-22520006D01*
X170570306Y-22747989D01*
X170539501Y-22981979D01*
X170539500Y-22981995D01*
X169060499Y-22981995D01*
X169060499Y-21999992D01*
X169049999Y-21897203D01*
X168994814Y-21730666D01*
X168902712Y-21581344D01*
X168778656Y-21457288D01*
X168629334Y-21365186D01*
X168462797Y-21310001D01*
X168462795Y-21310000D01*
X168360010Y-21299500D01*
X166159998Y-21299500D01*
X166159981Y-21299501D01*
X166057203Y-21310000D01*
X166057200Y-21310001D01*
X165890668Y-21365185D01*
X165890663Y-21365187D01*
X165741342Y-21457289D01*
X165617289Y-21581342D01*
X165525187Y-21730663D01*
X165525185Y-21730668D01*
X165520962Y-21743412D01*
X165470001Y-21897203D01*
X165470001Y-21897204D01*
X165470000Y-21897204D01*
X165459500Y-21999983D01*
X156428675Y-21999983D01*
X156509394Y-21879179D01*
X156569737Y-21733497D01*
X156600500Y-21578842D01*
X156600500Y-21421158D01*
X156600500Y-21421155D01*
X156600499Y-21421153D01*
X156600432Y-21420814D01*
X156569737Y-21266503D01*
X156569735Y-21266498D01*
X156520425Y-21147452D01*
X156512956Y-21077983D01*
X156520425Y-21052548D01*
X156569735Y-20933501D01*
X156569737Y-20933497D01*
X156600500Y-20778842D01*
X156600500Y-20621158D01*
X156600500Y-20621155D01*
X156600499Y-20621153D01*
X156571701Y-20476376D01*
X156569737Y-20466503D01*
X156569735Y-20466498D01*
X156509397Y-20320827D01*
X156509390Y-20320814D01*
X156421789Y-20189711D01*
X156421786Y-20189707D01*
X156310292Y-20078213D01*
X156310288Y-20078210D01*
X156179185Y-19990609D01*
X156179172Y-19990602D01*
X156033501Y-19930264D01*
X156033489Y-19930261D01*
X155878845Y-19899500D01*
X155878842Y-19899500D01*
X155721158Y-19899500D01*
X155721155Y-19899500D01*
X155566510Y-19930261D01*
X155566498Y-19930264D01*
X155420827Y-19990602D01*
X155420814Y-19990609D01*
X155289711Y-20078210D01*
X155289707Y-20078213D01*
X155178213Y-20189707D01*
X155178210Y-20189711D01*
X155090609Y-20320814D01*
X155090602Y-20320827D01*
X155030264Y-20466498D01*
X155030261Y-20466510D01*
X154999500Y-20621153D01*
X131992338Y-20621153D01*
X131881247Y-20476376D01*
X131881242Y-20476370D01*
X131723629Y-20318757D01*
X131723622Y-20318751D01*
X131546782Y-20183058D01*
X131546780Y-20183057D01*
X131546774Y-20183052D01*
X131353726Y-20071595D01*
X131353722Y-20071593D01*
X131147790Y-19986293D01*
X131147783Y-19986291D01*
X131147781Y-19986290D01*
X130932463Y-19928596D01*
X130932457Y-19928595D01*
X130932452Y-19928594D01*
X130711466Y-19899501D01*
X130711463Y-19899500D01*
X130711457Y-19899500D01*
X130488543Y-19899500D01*
X130488537Y-19899500D01*
X130488533Y-19899501D01*
X130267547Y-19928594D01*
X130267540Y-19928595D01*
X130267537Y-19928596D01*
X130052219Y-19986290D01*
X130052209Y-19986293D01*
X129846277Y-20071593D01*
X129846273Y-20071595D01*
X129653226Y-20183052D01*
X129653217Y-20183058D01*
X129476377Y-20318751D01*
X129476370Y-20318757D01*
X129318757Y-20476370D01*
X129318751Y-20476377D01*
X129183058Y-20653217D01*
X129183052Y-20653226D01*
X129071595Y-20846273D01*
X129071593Y-20846277D01*
X128986293Y-21052209D01*
X128986290Y-21052219D01*
X128928875Y-21266498D01*
X128928597Y-21267534D01*
X128928594Y-21267547D01*
X128899501Y-21488533D01*
X128899500Y-21488549D01*
X126800000Y-21488549D01*
X126800000Y-18024500D01*
X126819685Y-17957461D01*
X126872489Y-17911706D01*
X126924000Y-17900500D01*
X219875500Y-17900500D01*
X219942539Y-17920185D01*
G37*
%TD.AperFunction*%
%TD*%
M02*
