%TF.GenerationSoftware,KiCad,Pcbnew,10.0.3*%
%TF.CreationDate,2026-08-23T14:38:44+02:00*%
%TF.ProjectId,demo LoRa_Node,64656d6f-204c-46f5-9261-5f4e6f64652e,B*%
%TF.SameCoordinates,Original*%
%TF.FileFunction,Copper,L4,Bot*%
%TF.FilePolarity,Positive*%
%FSLAX46Y46*%
G04 Gerber Fmt 4.6, Leading zero omitted, Abs format (unit mm)*
G04 Created by KiCad (PCBNEW 10.0.3) date 2026-08-23 14:38:44*
%MOMM*%
%LPD*%
G01*
G04 APERTURE LIST*
G04 Aperture macros list*
%AMRoundRect*
0 Rectangle with rounded corners*
0 $1 Rounding radius*
0 $2 $3 $4 $5 $6 $7 $8 $9 X,Y pos of 4 corners*
0 Add a 4 corners polygon primitive as box body*
4,1,4,$2,$3,$4,$5,$6,$7,$8,$9,$2,$3,0*
0 Add four circle primitives for the rounded corners*
1,1,$1+$1,$2,$3*
1,1,$1+$1,$4,$5*
1,1,$1+$1,$6,$7*
1,1,$1+$1,$8,$9*
0 Add four rect primitives between the rounded corners*
20,1,$1+$1,$2,$3,$4,$5,0*
20,1,$1+$1,$4,$5,$6,$7,0*
20,1,$1+$1,$6,$7,$8,$9,0*
20,1,$1+$1,$8,$9,$2,$3,0*%
G04 Aperture macros list end*
%TA.AperFunction,Conductor*%
%ADD10C,0.200000*%
%TD*%
%TA.AperFunction,ComponentPad*%
%ADD11O,1.600000X1.400000*%
%TD*%
%TA.AperFunction,ComponentPad*%
%ADD12RoundRect,0.250000X-1.050000X-1.050000X1.050000X-1.050000X1.050000X1.050000X-1.050000X1.050000X0*%
%TD*%
%TA.AperFunction,ComponentPad*%
%ADD13C,2.600000*%
%TD*%
%TA.AperFunction,ComponentPad*%
%ADD14RoundRect,0.250000X1.050000X1.050000X-1.050000X1.050000X-1.050000X-1.050000X1.050000X-1.050000X0*%
%TD*%
%TA.AperFunction,ComponentPad*%
%ADD15RoundRect,0.250000X1.550000X-0.650000X1.550000X0.650000X-1.550000X0.650000X-1.550000X-0.650000X0*%
%TD*%
%TA.AperFunction,ComponentPad*%
%ADD16O,3.600000X1.800000*%
%TD*%
%TA.AperFunction,HeatsinkPad*%
%ADD17C,0.500000*%
%TD*%
%TA.AperFunction,HeatsinkPad*%
%ADD18R,1.200000X2.000000*%
%TD*%
%TA.AperFunction,ComponentPad*%
%ADD19RoundRect,0.250001X-0.799999X0.799999X-0.799999X-0.799999X0.799999X-0.799999X0.799999X0.799999X0*%
%TD*%
%TA.AperFunction,ComponentPad*%
%ADD20C,2.100000*%
%TD*%
%TA.AperFunction,HeatsinkPad*%
%ADD21R,0.500000X2.400000*%
%TD*%
%TA.AperFunction,ComponentPad*%
%ADD22R,3.500000X3.500000*%
%TD*%
%TA.AperFunction,ComponentPad*%
%ADD23C,4.000000*%
%TD*%
%TA.AperFunction,ViaPad*%
%ADD24C,0.500000*%
%TD*%
%TA.AperFunction,ViaPad*%
%ADD25C,0.600000*%
%TD*%
%TA.AperFunction,Conductor*%
%ADD26C,0.250000*%
%TD*%
G04 APERTURE END LIST*
D10*
%TO.N,Net-(BT1-+)*%
X147983334Y-33140001D02*
X148000000Y-42400000D01*
X148600000Y-43000000D01*
X149759999Y-43000000D01*
X150200000Y-42449999D01*
X150200000Y-33172753D01*
X149780386Y-32600499D01*
X148442680Y-32578509D01*
X147983334Y-33140001D01*
%TA.AperFunction,Conductor*%
G36*
X149780386Y-32600499D02*
G01*
X150200000Y-33172753D01*
X150200000Y-42449999D01*
X149759999Y-43000000D01*
X148600000Y-43000000D01*
X148000000Y-42400000D01*
X147983334Y-33140001D01*
X148442680Y-32578509D01*
X149780386Y-32600499D01*
G37*
%TD.AperFunction*%
%TD*%
D11*
%TO.P,J7,SH,Shield_SH*%
%TO.N,GND*%
X127500000Y-55600000D03*
X127500000Y-62200000D03*
%TD*%
D12*
%TO.P,J1,1,Pin_1_1*%
%TO.N,Net-(D1-A1)*%
X167260000Y-23100000D03*
D13*
%TO.P,J1,2,Pin_2_2*%
%TO.N,/analog/RS485+*%
X172340000Y-23100000D03*
%TO.P,J1,3,Pin_3_3*%
%TO.N,/analog/RS485-*%
X177420000Y-23100000D03*
%TO.P,J1,4,Pin_4_4*%
%TO.N,GND*%
X182500000Y-23100000D03*
%TD*%
D14*
%TO.P,J3,1,Pin_1_1*%
%TO.N,Net-(D1-A1)*%
X173700000Y-80900000D03*
D13*
%TO.P,J3,2,Pin_2_2*%
%TO.N,Net-(D4-A2)*%
X168620000Y-80900000D03*
%TO.P,J3,3,Pin_3_3*%
%TO.N,GND*%
X163540000Y-80900000D03*
%TD*%
D15*
%TO.P,BT1,1,+_1*%
%TO.N,Net-(BT1-+)*%
X131400000Y-36200000D03*
D16*
%TO.P,BT1,2,-_2*%
%TO.N,GND*%
X131400000Y-32390000D03*
%TD*%
D12*
%TO.P,J2,1,Pin_1_1*%
%TO.N,Net-(D1-A1)*%
X194340000Y-23100000D03*
D13*
%TO.P,J2,2,Pin_2_2*%
%TO.N,Net-(D3-A2)*%
X199420000Y-23100000D03*
%TO.P,J2,3,Pin_3_3*%
%TO.N,GND*%
X204500000Y-23100000D03*
%TD*%
D17*
%TO.P,U8,11,GND_11*%
%TO.N,GND*%
X159350000Y-38650000D03*
X159350000Y-39400000D03*
X159350000Y-40150000D03*
D18*
X159700000Y-39400000D03*
D17*
X160050000Y-38650000D03*
X160050000Y-39400000D03*
X160050000Y-40150000D03*
%TD*%
D14*
%TO.P,J4,1,Pin_1_1*%
%TO.N,Net-(D1-A1)*%
X192285000Y-80827500D03*
D13*
%TO.P,J4,2,Pin_2_2*%
%TO.N,Net-(D5-A2)*%
X187205000Y-80827500D03*
%TO.P,J4,3,Pin_3_3*%
%TO.N,GND*%
X182125000Y-80827500D03*
%TD*%
D19*
%TO.P,J8,1,Pin_1_1*%
%TO.N,GND*%
X130300000Y-45460000D03*
D20*
%TO.P,J8,2,Pin_2_2*%
%TO.N,+5V*%
X130300000Y-48000000D03*
%TD*%
D17*
%TO.P,U7,11,PWR_PAD_11*%
%TO.N,GND*%
X142400000Y-34700000D03*
X142400000Y-35650000D03*
D21*
X142400000Y-35650000D03*
D17*
X142400000Y-36600000D03*
%TD*%
D22*
%TO.P,J6,1,In_1*%
%TO.N,Net-(J6-In)*%
X212200000Y-79000000D03*
D23*
%TO.P,J6,2,Ext_2*%
%TO.N,GND*%
X217225000Y-84025000D03*
X217225000Y-73975000D03*
X207175000Y-84025000D03*
X207175000Y-73975000D03*
%TD*%
D24*
%TO.N,+3V3*%
X189900000Y-42600000D03*
X181200000Y-52100000D03*
X190200000Y-61300000D03*
D25*
X161300000Y-44700000D03*
X177800000Y-35300000D03*
D24*
X188500000Y-61300000D03*
X180300000Y-55900000D03*
X187700000Y-50700000D03*
X175800000Y-52500000D03*
D25*
X164300000Y-60500000D03*
X153500000Y-67850000D03*
X141700000Y-60150000D03*
X161300000Y-43900000D03*
X147900000Y-65150000D03*
X193200000Y-59800000D03*
X161900000Y-44700000D03*
D24*
X190500000Y-51900000D03*
D25*
X143600000Y-60150000D03*
X161900000Y-43900000D03*
X177600000Y-36200000D03*
D24*
X178400000Y-58100000D03*
D25*
X169700000Y-37300000D03*
X178700000Y-36200000D03*
%TO.N,Net-(D1-A1)*%
X155800000Y-20700000D03*
X155800000Y-21500000D03*
%TO.N,/analog/RS485+*%
X182700000Y-37300000D03*
X182700000Y-34300000D03*
%TO.N,GND*%
X175900000Y-59600000D03*
X201100000Y-66500000D03*
X168500000Y-63400000D03*
X185900000Y-58300000D03*
D24*
X186100000Y-49200000D03*
X178800000Y-54200000D03*
D25*
X194600000Y-48700000D03*
X185900000Y-56100000D03*
X148000000Y-58200000D03*
D24*
X209050000Y-57200000D03*
D25*
X193700000Y-74100000D03*
X139700000Y-65050000D03*
X206600000Y-44400000D03*
X194600000Y-60700000D03*
X196900000Y-62700000D03*
X154600000Y-41300000D03*
X130500000Y-24800000D03*
X131300000Y-60200000D03*
X128200000Y-45400000D03*
X188600000Y-46700000D03*
X183800000Y-56100000D03*
X158400000Y-41200000D03*
X178600000Y-73500000D03*
X156600000Y-41300000D03*
D24*
X213700000Y-69200000D03*
D25*
X201100000Y-74500000D03*
X201100000Y-78500000D03*
X173400000Y-35300000D03*
X183750000Y-58250000D03*
X166800000Y-60700000D03*
X194600000Y-44700000D03*
X136600000Y-40400000D03*
X188000000Y-54399000D03*
X128700000Y-64200000D03*
X131600000Y-78600000D03*
X208600000Y-44400000D03*
X199000000Y-62700000D03*
X182500000Y-25700000D03*
X164500000Y-42300000D03*
X167800000Y-31000000D03*
X167700000Y-37400000D03*
X218600000Y-44400000D03*
X182100000Y-83200000D03*
D24*
X187700000Y-49200000D03*
D25*
X143600000Y-61450000D03*
D24*
X179600000Y-52100000D03*
D25*
X198600000Y-44400000D03*
X163500000Y-83300000D03*
X144500000Y-62450000D03*
X196600000Y-44400000D03*
X201100000Y-68500000D03*
X188000000Y-56100000D03*
X176000000Y-55900000D03*
D24*
X192100000Y-51900000D03*
D25*
X139725000Y-61475000D03*
X188000000Y-58300000D03*
D24*
X198400000Y-48100000D03*
D25*
X201100000Y-70500000D03*
X202600000Y-44400000D03*
X134200000Y-58500000D03*
X210600000Y-44400000D03*
D24*
X213700000Y-62300000D03*
D25*
X157500000Y-28200000D03*
X194600000Y-54700000D03*
X215000000Y-26000000D03*
X128500000Y-53800000D03*
X147100000Y-37600000D03*
X200600000Y-44400000D03*
X191500000Y-74100000D03*
X153200000Y-26400000D03*
X145300000Y-37600000D03*
X194600000Y-58700000D03*
X140700000Y-71100000D03*
X214600000Y-44400000D03*
X134200000Y-32400000D03*
X143300000Y-23800000D03*
D24*
X190300000Y-62900000D03*
D25*
X201100000Y-84500000D03*
X173300000Y-74200000D03*
D24*
X202900000Y-56600000D03*
D25*
X183900000Y-54400000D03*
X201100000Y-76500000D03*
X201100000Y-80500000D03*
D24*
X204400000Y-48300000D03*
X178700000Y-55900000D03*
D25*
X216600000Y-44400000D03*
X137000000Y-36800000D03*
X178300000Y-42300000D03*
X144200000Y-32800000D03*
X139300000Y-21000000D03*
X145900000Y-58200000D03*
X155500000Y-82300000D03*
X149700000Y-23900000D03*
X201100000Y-64500000D03*
X144100000Y-82300000D03*
D24*
X209800000Y-48300000D03*
X188500000Y-62900000D03*
D25*
X186000000Y-54399000D03*
X201100000Y-82500000D03*
X167070000Y-62200000D03*
X188700000Y-44500000D03*
X193000000Y-29700000D03*
X194600000Y-52700000D03*
X136300000Y-23100000D03*
X160600000Y-73300000D03*
X194600000Y-62700000D03*
X194600000Y-50700000D03*
X146970000Y-58200000D03*
X138800000Y-32400000D03*
X133900000Y-24800000D03*
X201100000Y-72500000D03*
X134500000Y-46000000D03*
X204500000Y-25900000D03*
X205700000Y-30500000D03*
X201100000Y-62700000D03*
X158400000Y-28200000D03*
X183700000Y-28800000D03*
D24*
X178400000Y-59600000D03*
D25*
X212600000Y-44400000D03*
X194600000Y-46700000D03*
D24*
X174000000Y-52400000D03*
D25*
X204600000Y-44400000D03*
%TO.N,+5V*%
X136900000Y-47500000D03*
X140300000Y-32400000D03*
X140300000Y-34300000D03*
X140300000Y-33000000D03*
X140300000Y-33700000D03*
%TO.N,/MCU/RS485-EN*%
X170200000Y-43900000D03*
X185800000Y-64700000D03*
%TO.N,/MCU/12V-EN*%
X166100000Y-44900000D03*
X137200000Y-21800000D03*
D24*
%TO.N,Net-(U3-VDDRF1V55)*%
X180200000Y-57600000D03*
X186100000Y-50700000D03*
D25*
%TO.N,Net-(BT1-+)*%
X148400000Y-42000000D03*
X148500000Y-33700000D03*
X148500000Y-32900000D03*
X149300000Y-33700000D03*
X149000000Y-42000000D03*
X149000000Y-41400000D03*
X148400000Y-41000000D03*
X149300000Y-32900000D03*
X148400000Y-41500000D03*
%TO.N,Net-(D7-K)*%
X150500000Y-58250000D03*
X154850000Y-58300000D03*
%TO.N,NRST*%
X165500000Y-64900000D03*
X184700000Y-65600000D03*
D24*
%TO.N,/LoRa RF/RF-Switch*%
X210900000Y-56100000D03*
X181400000Y-53200000D03*
%TO.N,/MCU/USB_MCU-*%
X142573386Y-58125000D03*
X143600000Y-58760000D03*
%TO.N,Net-(U2-RXD)*%
X186400000Y-60800000D03*
D25*
X159700000Y-66400000D03*
D24*
%TO.N,Net-(U2-TXD)*%
X187300000Y-60800000D03*
D25*
X160600000Y-67100000D03*
%TO.N,/MCU/ADC-CH2*%
X184100000Y-50600000D03*
X191800000Y-35000000D03*
%TO.N,SWCLK*%
X171700000Y-55300000D03*
D24*
X181475000Y-56000000D03*
D25*
%TO.N,Net-(U3-PH3)*%
X190700000Y-56400000D03*
X191500000Y-68500000D03*
%TO.N,/MCU/UART-TX*%
X184600000Y-64100000D03*
X172900000Y-43900000D03*
%TO.N,/MCU/UART-RX*%
X175300000Y-44100000D03*
X185500000Y-63300000D03*
%TD*%
%TO.N,SWCLK*%
D26*
X181475000Y-56000000D02*
X181475000Y-55975000D01*
X181475000Y-55975000D02*
X181300000Y-55800000D01*
X181300000Y-55800000D02*
X181100000Y-55800000D01*
X181100000Y-55800000D02*
X180600000Y-55300000D01*
X180600000Y-55300000D02*
X171700000Y-55300000D01*
%TO.N,/analog/RS485+*%
X182700000Y-34300000D02*
X182700000Y-37300000D01*
%TO.N,/MCU/RS485-EN*%
X171800000Y-64700000D02*
X169200000Y-62100000D01*
X185800000Y-64700000D02*
X171800000Y-64700000D01*
X169200000Y-62100000D02*
X169200000Y-47800000D01*
X170200000Y-46800000D02*
X170200000Y-43900000D01*
X169200000Y-47800000D02*
X170200000Y-46800000D01*
%TO.N,/MCU/12V-EN*%
X139000000Y-18300000D02*
X137200000Y-20100000D01*
X160200000Y-18300000D02*
X139000000Y-18300000D01*
X137200000Y-20100000D02*
X137200000Y-21800000D01*
X166100000Y-44900000D02*
X166100000Y-33500000D01*
X161500000Y-28900000D02*
X161500000Y-19600000D01*
X166100000Y-33500000D02*
X161500000Y-28900000D01*
X161500000Y-19600000D02*
X160200000Y-18300000D01*
%TO.N,Net-(D7-K)*%
X150500000Y-58250000D02*
X154800000Y-58250000D01*
X154800000Y-58250000D02*
X154850000Y-58300000D01*
%TO.N,NRST*%
X166200000Y-65600000D02*
X165500000Y-64900000D01*
X184700000Y-65600000D02*
X166200000Y-65600000D01*
%TO.N,/LoRa RF/RF-Switch*%
X210900000Y-55700000D02*
X210200000Y-55000000D01*
X192000000Y-54000000D02*
X191500000Y-53500000D01*
X191500000Y-53500000D02*
X181700000Y-53500000D01*
X197200000Y-55000000D02*
X196200000Y-54000000D01*
X181700000Y-53500000D02*
X181400000Y-53200000D01*
X210200000Y-55000000D02*
X197200000Y-55000000D01*
X196200000Y-54000000D02*
X192000000Y-54000000D01*
X210900000Y-56100000D02*
X210900000Y-55700000D01*
%TO.N,/MCU/USB_MCU-*%
X143600000Y-58700000D02*
X143599749Y-58699749D01*
X143599749Y-58699749D02*
X143572898Y-58699749D01*
X143486274Y-58760000D02*
X143600000Y-58760000D01*
X142600613Y-58152227D02*
X142573386Y-58125000D01*
X142688723Y-58188724D02*
X143100000Y-58600000D01*
X142600613Y-58152227D02*
G75*
G02*
X142688710Y-58188737I-13J-124573D01*
G01*
X143100000Y-58600000D02*
G75*
G03*
X143486274Y-58760011I386300J386300D01*
G01*
%TO.N,Net-(U2-RXD)*%
X186400000Y-60800000D02*
X186400000Y-65600000D01*
X186400000Y-65600000D02*
X185600000Y-66400000D01*
X185600000Y-66400000D02*
X159700000Y-66400000D01*
%TO.N,Net-(U2-TXD)*%
X186200000Y-67100000D02*
X187300000Y-66000000D01*
X160600000Y-67100000D02*
X186200000Y-67100000D01*
X187300000Y-66000000D02*
X187300000Y-60800000D01*
%TO.N,/MCU/ADC-CH2*%
X184100000Y-44300000D02*
X185600000Y-42800000D01*
X191800000Y-36600000D02*
X191800000Y-35000000D01*
X184100000Y-50600000D02*
X184100000Y-44300000D01*
X185600000Y-42800000D02*
X191800000Y-36600000D01*
%TO.N,Net-(U3-PH3)*%
X190700000Y-56400000D02*
X191500000Y-57200000D01*
X191500000Y-57200000D02*
X191500000Y-68500000D01*
%TO.N,/MCU/UART-TX*%
X184600000Y-64100000D02*
X184500000Y-64000000D01*
X172900000Y-45600000D02*
X172900000Y-43900000D01*
X172000000Y-64000000D02*
X170000000Y-62000000D01*
X170000000Y-62000000D02*
X170000000Y-48500000D01*
X184600000Y-64100000D02*
X184700000Y-64100000D01*
X184500000Y-64000000D02*
X172000000Y-64000000D01*
X170000000Y-48500000D02*
X172900000Y-45600000D01*
%TO.N,/MCU/UART-RX*%
X185500000Y-63300000D02*
X172300000Y-63300000D01*
X172300000Y-63300000D02*
X170800000Y-61800000D01*
X175300000Y-45500000D02*
X175300000Y-44100000D01*
X170800000Y-50000000D02*
X175300000Y-45500000D01*
X170800000Y-61800000D02*
X170800000Y-50000000D01*
%TD*%
%TA.AperFunction,Conductor*%
%TO.N,+3V3*%
G36*
X164104650Y-59854468D02*
G01*
X164222758Y-59870018D01*
X164254024Y-59878396D01*
X164356508Y-59920846D01*
X164384542Y-59937031D01*
X164472551Y-60004562D01*
X164495439Y-60027450D01*
X164562968Y-60115457D01*
X164579153Y-60143491D01*
X164621603Y-60245975D01*
X164629981Y-60277241D01*
X164645531Y-60395348D01*
X164646592Y-60411534D01*
X164646592Y-60533101D01*
X164645995Y-60545255D01*
X164628574Y-60722129D01*
X164623832Y-60745970D01*
X164574016Y-60910193D01*
X164564713Y-60932651D01*
X164483819Y-61083993D01*
X164470314Y-61104205D01*
X164357561Y-61241594D01*
X164349389Y-61250610D01*
X161598906Y-64001093D01*
X161588539Y-64010358D01*
X161429851Y-64136912D01*
X161406345Y-64151683D01*
X161229803Y-64236713D01*
X161203597Y-64245885D01*
X161005725Y-64291065D01*
X160992019Y-64293395D01*
X159518382Y-64459590D01*
X157391393Y-64699468D01*
X157391389Y-64699470D01*
X157387931Y-64699860D01*
X157387929Y-64699860D01*
X157232848Y-64717349D01*
X156500000Y-64799999D01*
X156500000Y-64800000D01*
X154000000Y-62700000D01*
X154247233Y-62534272D01*
X154247245Y-62534266D01*
X154252644Y-62530646D01*
X154252646Y-62530646D01*
X156258929Y-61185786D01*
X157988896Y-60026146D01*
X157999317Y-60019881D01*
X158156367Y-59935688D01*
X158178853Y-59926347D01*
X158343467Y-59876279D01*
X158367349Y-59871516D01*
X158544671Y-59854007D01*
X158556855Y-59853408D01*
X164088466Y-59853408D01*
X164104650Y-59854468D01*
G37*
%TD.AperFunction*%
%TD*%
%TA.AperFunction,Conductor*%
%TO.N,+5V*%
G36*
X140982941Y-31718018D02*
G01*
X141006769Y-31722757D01*
X141171001Y-31772576D01*
X141193453Y-31781877D01*
X141344798Y-31862772D01*
X141365010Y-31876277D01*
X141497666Y-31985145D01*
X141514854Y-32002333D01*
X141623722Y-32134989D01*
X141637227Y-32155201D01*
X141718121Y-32306543D01*
X141727424Y-32329001D01*
X141777240Y-32493224D01*
X141781982Y-32517065D01*
X141799403Y-32693938D01*
X141800000Y-32706092D01*
X141800000Y-44579693D01*
X141799403Y-44591847D01*
X141781982Y-44768721D01*
X141777240Y-44792562D01*
X141727424Y-44956785D01*
X141718121Y-44979243D01*
X141637227Y-45130585D01*
X141623722Y-45150797D01*
X141510969Y-45288186D01*
X141502797Y-45297202D01*
X136897202Y-49902797D01*
X136888186Y-49910969D01*
X136750797Y-50023722D01*
X136730585Y-50037227D01*
X136579243Y-50118121D01*
X136556785Y-50127424D01*
X136392562Y-50177240D01*
X136368721Y-50181982D01*
X136191847Y-50199403D01*
X136179693Y-50200000D01*
X127959646Y-50200000D01*
X127947492Y-50199403D01*
X127799188Y-50184796D01*
X127775348Y-50180054D01*
X127638596Y-50138571D01*
X127616141Y-50129269D01*
X127490116Y-50061907D01*
X127469906Y-50048403D01*
X127359441Y-49957748D01*
X127342251Y-49940558D01*
X127251596Y-49830093D01*
X127238092Y-49809883D01*
X127170728Y-49683853D01*
X127161430Y-49661409D01*
X127119943Y-49524644D01*
X127115204Y-49500818D01*
X127100597Y-49352508D01*
X127100000Y-49340354D01*
X127100000Y-47779143D01*
X127100597Y-47766989D01*
X127117500Y-47595364D01*
X127122239Y-47571540D01*
X127170527Y-47412355D01*
X127179821Y-47389918D01*
X127258235Y-47243216D01*
X127271733Y-47223016D01*
X127377256Y-47094435D01*
X127394435Y-47077256D01*
X127523016Y-46971733D01*
X127543216Y-46958235D01*
X127689918Y-46879821D01*
X127712355Y-46870527D01*
X127871540Y-46822239D01*
X127895364Y-46817500D01*
X128066990Y-46800597D01*
X128079144Y-46800000D01*
X131099999Y-46800000D01*
X131100000Y-46800000D01*
X131244266Y-46655733D01*
X131256430Y-46645065D01*
X131343124Y-46578543D01*
X131371143Y-46562367D01*
X131464502Y-46523697D01*
X131495768Y-46515319D01*
X131604073Y-46501061D01*
X131620258Y-46500000D01*
X136100000Y-46500000D01*
X139800000Y-42800000D01*
X139800000Y-32706092D01*
X139800597Y-32693938D01*
X139818018Y-32517056D01*
X139822757Y-32493232D01*
X139872577Y-32328994D01*
X139881875Y-32306549D01*
X139962775Y-32155195D01*
X139976272Y-32134995D01*
X140085149Y-32002328D01*
X140102328Y-31985149D01*
X140234995Y-31876272D01*
X140255195Y-31862775D01*
X140406549Y-31781875D01*
X140428994Y-31772577D01*
X140593232Y-31722757D01*
X140617056Y-31718018D01*
X140787847Y-31701197D01*
X140812153Y-31701197D01*
X140982941Y-31718018D01*
G37*
%TD.AperFunction*%
%TD*%
%TA.AperFunction,Conductor*%
%TO.N,+3V3*%
G36*
X143056217Y-59306067D02*
G01*
X143070095Y-59310576D01*
X143116788Y-59339190D01*
X143116874Y-59339086D01*
X143117626Y-59339703D01*
X143119458Y-59340826D01*
X143121580Y-59342948D01*
X143121584Y-59342951D01*
X143244498Y-59425080D01*
X143244511Y-59425087D01*
X143368091Y-59476275D01*
X143381087Y-59481658D01*
X143381091Y-59481658D01*
X143381092Y-59481659D01*
X143526079Y-59510500D01*
X143526082Y-59510500D01*
X143673920Y-59510500D01*
X143771462Y-59491096D01*
X143818913Y-59481658D01*
X143955495Y-59425084D01*
X143955498Y-59425081D01*
X143960232Y-59423121D01*
X143961945Y-59422936D01*
X143963317Y-59421891D01*
X143996562Y-59419214D01*
X144029701Y-59415652D01*
X144031791Y-59416379D01*
X144032961Y-59416285D01*
X144066132Y-59428321D01*
X144130591Y-59462775D01*
X144150795Y-59476275D01*
X144266397Y-59571148D01*
X144288186Y-59589030D01*
X144297202Y-59597202D01*
X144302797Y-59602797D01*
X144310969Y-59611813D01*
X144423722Y-59749202D01*
X144437227Y-59769414D01*
X144518121Y-59920756D01*
X144527424Y-59943214D01*
X144577240Y-60107437D01*
X144581982Y-60131278D01*
X144599403Y-60308152D01*
X144600000Y-60320306D01*
X144600000Y-61149016D01*
X144580315Y-61216055D01*
X144527511Y-61261810D01*
X144458353Y-61271754D01*
X144394797Y-61242729D01*
X144361439Y-61196469D01*
X144309395Y-61070823D01*
X144309390Y-61070814D01*
X144221789Y-60939711D01*
X144221786Y-60939707D01*
X144110292Y-60828213D01*
X144110288Y-60828210D01*
X143979185Y-60740609D01*
X143979172Y-60740602D01*
X143833501Y-60680264D01*
X143833489Y-60680261D01*
X143678845Y-60649500D01*
X143678842Y-60649500D01*
X143521158Y-60649500D01*
X143521155Y-60649500D01*
X143366510Y-60680261D01*
X143366498Y-60680264D01*
X143220827Y-60740602D01*
X143220814Y-60740609D01*
X143089711Y-60828210D01*
X143089707Y-60828213D01*
X142978213Y-60939707D01*
X142978210Y-60939711D01*
X142890609Y-61070814D01*
X142890602Y-61070827D01*
X142830264Y-61216498D01*
X142830261Y-61216510D01*
X142799500Y-61371153D01*
X142799500Y-61528846D01*
X142830261Y-61683489D01*
X142830264Y-61683501D01*
X142890602Y-61829172D01*
X142890609Y-61829185D01*
X142978210Y-61960288D01*
X142978213Y-61960292D01*
X143089707Y-62071786D01*
X143089711Y-62071789D01*
X143220814Y-62159390D01*
X143220827Y-62159397D01*
X143358695Y-62216503D01*
X143366503Y-62219737D01*
X143521153Y-62250499D01*
X143521156Y-62250500D01*
X143575500Y-62250500D01*
X143642539Y-62270185D01*
X143688294Y-62322989D01*
X143699500Y-62374500D01*
X143699500Y-62528846D01*
X143730261Y-62683489D01*
X143730264Y-62683501D01*
X143790602Y-62829172D01*
X143790609Y-62829185D01*
X143878210Y-62960288D01*
X143878213Y-62960292D01*
X143989707Y-63071786D01*
X143989711Y-63071789D01*
X144120814Y-63159390D01*
X144120827Y-63159397D01*
X144266498Y-63219735D01*
X144266503Y-63219737D01*
X144421153Y-63250499D01*
X144421156Y-63250500D01*
X144421158Y-63250500D01*
X144578844Y-63250500D01*
X144578845Y-63250499D01*
X144733497Y-63219737D01*
X144879179Y-63159394D01*
X145010289Y-63071789D01*
X145121789Y-62960289D01*
X145209394Y-62829179D01*
X145269737Y-62683497D01*
X145293126Y-62565914D01*
X145325511Y-62504003D01*
X145386226Y-62469429D01*
X145455996Y-62473168D01*
X145502424Y-62502424D01*
X145700000Y-62700000D01*
X154000000Y-62700000D01*
X156500000Y-64800000D01*
X156500000Y-67693907D01*
X156499403Y-67706061D01*
X156481982Y-67882934D01*
X156477240Y-67906775D01*
X156427424Y-68070998D01*
X156418121Y-68093456D01*
X156337227Y-68244798D01*
X156323722Y-68265010D01*
X156214854Y-68397666D01*
X156197666Y-68414854D01*
X156065010Y-68523722D01*
X156044798Y-68537227D01*
X155893456Y-68618121D01*
X155870998Y-68627424D01*
X155706775Y-68677240D01*
X155682934Y-68681982D01*
X155506061Y-68699403D01*
X155493907Y-68700000D01*
X151006093Y-68700000D01*
X150993939Y-68699403D01*
X150817065Y-68681982D01*
X150793224Y-68677240D01*
X150629001Y-68627424D01*
X150606543Y-68618121D01*
X150455201Y-68537227D01*
X150434989Y-68523722D01*
X150302333Y-68414854D01*
X150285145Y-68397666D01*
X150176277Y-68265010D01*
X150162772Y-68244798D01*
X150081878Y-68093456D01*
X150072575Y-68070998D01*
X150022757Y-67906769D01*
X150018018Y-67882941D01*
X150000597Y-67706061D01*
X150000000Y-67693907D01*
X150000000Y-66200000D01*
X149700000Y-65900000D01*
X149487868Y-65900000D01*
X141382923Y-65900000D01*
X141358731Y-65897617D01*
X141329574Y-65891817D01*
X141284874Y-65873301D01*
X141270507Y-65863701D01*
X141236298Y-65829492D01*
X141226698Y-65815125D01*
X141208182Y-65770425D01*
X141202381Y-65741263D01*
X141200000Y-65717076D01*
X141200000Y-59820257D01*
X141201061Y-59804072D01*
X141215319Y-59695769D01*
X141223697Y-59664502D01*
X141230903Y-59647104D01*
X141262367Y-59571143D01*
X141278545Y-59543121D01*
X141340066Y-59462945D01*
X141362945Y-59440066D01*
X141443121Y-59378545D01*
X141471143Y-59362367D01*
X141564502Y-59323697D01*
X141595768Y-59315319D01*
X141704073Y-59301061D01*
X141720258Y-59300000D01*
X143017905Y-59300000D01*
X143056217Y-59306067D01*
G37*
%TD.AperFunction*%
%TD*%
M02*
